<?xml version="1.0" encoding="utf-8" standalone="no"?>
<!DOCTYPE svg PUBLIC "-//W3C//DTD SVG 1.1//EN"
  "http://www.w3.org/Graphics/SVG/1.1/DTD/svg11.dtd">
<svg xmlns:xlink="http://www.w3.org/1999/xlink" width="432pt" height="216pt" viewBox="0 0 432 216" xmlns="http://www.w3.org/2000/svg" version="1.1">
 <metadata>
  <rdf:RDF xmlns:dc="http://purl.org/dc/elements/1.1/" xmlns:cc="http://creativecommons.org/ns#" xmlns:rdf="http://www.w3.org/1999/02/22-rdf-syntax-ns#">
   <cc:Work>
    <dc:type rdf:resource="http://purl.org/dc/dcmitype/StillImage"/>
    <dc:date>2024-03-08T18:54:34.451334</dc:date>
    <dc:format>image/svg+xml</dc:format>
    <dc:creator>
     <cc:Agent>
      <dc:title>Matplotlib v3.6.3, https://matplotlib.org/</dc:title>
     </cc:Agent>
    </dc:creator>
   </cc:Work>
  </rdf:RDF>
 </metadata>
 <defs>
  <style type="text/css">*{stroke-linejoin: round; stroke-linecap: butt}</style>
 </defs>
 <g id="figure_1">
  <g id="patch_1">
   <path d="M 0 216 
L 432 216 
L 432 0 
L 0 0 
L 0 216 
z
" style="fill: none"/>
  </g>
  <g id="axes_1">
   <g id="patch_2">
    <path d="M 59.307189 167.93532 
L 417.96 167.93532 
L 417.96 18.537014 
L 59.307189 18.537014 
L 59.307189 167.93532 
z
" style="fill: none"/>
   </g>
   <g id="patch_3">
    <path d="M 98.898733 167.93532 
L 168.766164 167.93532 
L 168.766164 18.537014 
L 98.898733 18.537014 
z
" clip-path="url(#p19816b35e7)" style="fill: #008000; opacity: 0.2"/>
   </g>
   <g id="patch_4">
    <path d="M 278.225139 167.93532 
L 362.066055 167.93532 
L 362.066055 18.537014 
L 278.225139 18.537014 
z
" clip-path="url(#p19816b35e7)" style="fill: #008000; opacity: 0.2"/>
   </g>
   <g id="matplotlib.axis_1">
    <g id="xtick_1">
     <g id="line2d_1">
      <path d="M 75.609589 167.93532 
L 75.609589 18.537014 
" clip-path="url(#p19816b35e7)" style="fill: none; stroke: #b0b0b0; stroke-width: 0.8; stroke-linecap: square"/>
     </g>
     <g id="line2d_2">
      <defs>
       <path id="m6d6a8ac3e9" d="M 0 0 
L 0 3.5 
" style="stroke: #000000; stroke-width: 0.8"/>
      </defs>
      <g>
       <use xlink:href="#m6d6a8ac3e9" x="75.609589" y="167.93532" style="stroke: #000000; stroke-width: 0.8"/>
      </g>
     </g>
     <g id="text_1">
      <!-- $\mathdefault{−2}$ -->
      <g transform="translate(67.402535 183.929348) scale(0.13 -0.13)">
       <defs>
        <path id="CMSY10-0" d="M 4218 1472 
C 4326 1472 4442 1472 4442 1600 
C 4442 1728 4326 1728 4218 1728 
L 755 1728 
C 646 1728 531 1728 531 1600 
C 531 1472 646 1472 755 1472 
L 4218 1472 
z
" transform="scale(0.015625)"/>
        <path id="CMR17-32" d="M 2669 990 
L 2554 990 
C 2490 537 2438 460 2413 422 
C 2381 371 1920 371 1830 371 
L 602 371 
C 832 620 1280 1073 1824 1596 
C 2214 1966 2669 2400 2669 3033 
C 2669 3788 2067 4224 1395 4224 
C 691 4224 262 3603 262 3027 
C 262 2777 448 2745 525 2745 
C 589 2745 781 2783 781 3007 
C 781 3206 614 3264 525 3264 
C 486 3264 448 3257 422 3244 
C 544 3788 915 4057 1306 4057 
C 1862 4057 2227 3616 2227 3033 
C 2227 2477 1901 1998 1536 1583 
L 262 147 
L 262 0 
L 2515 0 
L 2669 990 
z
" transform="scale(0.015625)"/>
       </defs>
       <use xlink:href="#CMSY10-0" transform="scale(0.996264)"/>
       <use xlink:href="#CMR17-32" transform="translate(77.487468 0) scale(0.996264)"/>
      </g>
     </g>
    </g>
    <g id="xtick_2">
     <g id="line2d_3">
      <path d="M 122.187877 167.93532 
L 122.187877 18.537014 
" clip-path="url(#p19816b35e7)" style="fill: none; stroke: #b0b0b0; stroke-width: 0.8; stroke-linecap: square"/>
     </g>
     <g id="line2d_4">
      <g>
       <use xlink:href="#m6d6a8ac3e9" x="122.187877" y="167.93532" style="stroke: #000000; stroke-width: 0.8"/>
      </g>
     </g>
     <g id="text_2">
      <!-- $\mathdefault{−1}$ -->
      <g transform="translate(113.980822 183.929348) scale(0.13 -0.13)">
       <defs>
        <path id="CMR17-31" d="M 1702 4083 
C 1702 4217 1696 4224 1606 4224 
C 1357 3927 979 3833 621 3820 
C 602 3820 570 3820 563 3808 
C 557 3795 557 3782 557 3648 
C 755 3648 1088 3686 1344 3839 
L 1344 467 
C 1344 243 1331 166 781 166 
L 589 166 
L 589 0 
C 896 6 1216 12 1523 12 
C 1830 12 2150 6 2458 0 
L 2458 166 
L 2266 166 
C 1715 166 1702 236 1702 467 
L 1702 4083 
z
" transform="scale(0.015625)"/>
       </defs>
       <use xlink:href="#CMSY10-0" transform="scale(0.996264)"/>
       <use xlink:href="#CMR17-31" transform="translate(77.487468 0) scale(0.996264)"/>
      </g>
     </g>
    </g>
    <g id="xtick_3">
     <g id="line2d_5">
      <path d="M 168.766164 167.93532 
L 168.766164 18.537014 
" clip-path="url(#p19816b35e7)" style="fill: none; stroke: #b0b0b0; stroke-width: 0.8; stroke-linecap: square"/>
     </g>
     <g id="line2d_6">
      <g>
       <use xlink:href="#m6d6a8ac3e9" x="168.766164" y="167.93532" style="stroke: #000000; stroke-width: 0.8"/>
      </g>
     </g>
     <g id="text_3">
      <!-- $\mathdefault{0}$ -->
      <g transform="translate(165.595794 183.929348) scale(0.13 -0.13)">
       <defs>
        <path id="CMR17-30" d="M 2688 2038 
C 2688 2430 2682 3099 2413 3613 
C 2176 4063 1798 4224 1466 4224 
C 1158 4224 768 4082 525 3620 
C 269 3137 243 2539 243 2038 
C 243 1671 250 1112 448 623 
C 723 -39 1216 -128 1466 -128 
C 1760 -128 2208 -7 2470 604 
C 2662 1048 2688 1568 2688 2038 
z
M 1466 -26 
C 1056 -26 813 328 723 816 
C 653 1196 653 1749 653 2109 
C 653 2604 653 3015 736 3407 
C 858 3954 1216 4121 1466 4121 
C 1728 4121 2067 3947 2189 3420 
C 2272 3054 2278 2623 2278 2109 
C 2278 1691 2278 1176 2202 797 
C 2067 96 1690 -26 1466 -26 
z
" transform="scale(0.015625)"/>
       </defs>
       <use xlink:href="#CMR17-30" transform="scale(0.996264)"/>
      </g>
     </g>
    </g>
    <g id="xtick_4">
     <g id="line2d_7">
      <path d="M 215.344451 167.93532 
L 215.344451 18.537014 
" clip-path="url(#p19816b35e7)" style="fill: none; stroke: #b0b0b0; stroke-width: 0.8; stroke-linecap: square"/>
     </g>
     <g id="line2d_8">
      <g>
       <use xlink:href="#m6d6a8ac3e9" x="215.344451" y="167.93532" style="stroke: #000000; stroke-width: 0.8"/>
      </g>
     </g>
     <g id="text_4">
      <!-- $\mathdefault{1}$ -->
      <g transform="translate(212.174081 183.929348) scale(0.13 -0.13)">
       <use xlink:href="#CMR17-31" transform="scale(0.996264)"/>
      </g>
     </g>
    </g>
    <g id="xtick_5">
     <g id="line2d_9">
      <path d="M 261.922738 167.93532 
L 261.922738 18.537014 
" clip-path="url(#p19816b35e7)" style="fill: none; stroke: #b0b0b0; stroke-width: 0.8; stroke-linecap: square"/>
     </g>
     <g id="line2d_10">
      <g>
       <use xlink:href="#m6d6a8ac3e9" x="261.922738" y="167.93532" style="stroke: #000000; stroke-width: 0.8"/>
      </g>
     </g>
     <g id="text_5">
      <!-- $\mathdefault{2}$ -->
      <g transform="translate(258.752368 183.929348) scale(0.13 -0.13)">
       <use xlink:href="#CMR17-32" transform="scale(0.996264)"/>
      </g>
     </g>
    </g>
    <g id="xtick_6">
     <g id="line2d_11">
      <path d="M 308.501025 167.93532 
L 308.501025 18.537014 
" clip-path="url(#p19816b35e7)" style="fill: none; stroke: #b0b0b0; stroke-width: 0.8; stroke-linecap: square"/>
     </g>
     <g id="line2d_12">
      <g>
       <use xlink:href="#m6d6a8ac3e9" x="308.501025" y="167.93532" style="stroke: #000000; stroke-width: 0.8"/>
      </g>
     </g>
     <g id="text_6">
      <!-- $\mathdefault{3}$ -->
      <g transform="translate(305.330655 183.929348) scale(0.13 -0.13)">
       <defs>
        <path id="CMR17-33" d="M 1414 2176 
C 1984 2176 2234 1673 2234 1094 
C 2234 322 1824 25 1453 25 
C 1114 25 563 193 390 691 
C 422 678 454 678 486 678 
C 640 678 755 780 755 947 
C 755 1132 614 1216 486 1216 
C 378 1216 211 1164 211 927 
C 211 335 787 -128 1466 -128 
C 2176 -128 2720 432 2720 1087 
C 2720 1718 2208 2176 1600 2246 
C 2086 2347 2554 2776 2554 3353 
C 2554 3856 2048 4224 1472 4224 
C 890 4224 378 3862 378 3347 
C 378 3123 544 3084 627 3084 
C 762 3084 877 3167 877 3334 
C 877 3500 762 3584 627 3584 
C 602 3584 570 3584 544 3571 
C 730 3999 1235 4076 1459 4076 
C 1683 4076 2106 3966 2106 3347 
C 2106 3167 2080 2851 1862 2574 
C 1670 2329 1453 2316 1242 2297 
C 1210 2297 1062 2284 1037 2284 
C 992 2278 966 2272 966 2227 
C 966 2182 973 2176 1101 2176 
L 1414 2176 
z
" transform="scale(0.015625)"/>
       </defs>
       <use xlink:href="#CMR17-33" transform="scale(0.996264)"/>
      </g>
     </g>
    </g>
    <g id="xtick_7">
     <g id="line2d_13">
      <path d="M 355.079312 167.93532 
L 355.079312 18.537014 
" clip-path="url(#p19816b35e7)" style="fill: none; stroke: #b0b0b0; stroke-width: 0.8; stroke-linecap: square"/>
     </g>
     <g id="line2d_14">
      <g>
       <use xlink:href="#m6d6a8ac3e9" x="355.079312" y="167.93532" style="stroke: #000000; stroke-width: 0.8"/>
      </g>
     </g>
     <g id="text_7">
      <!-- $\mathdefault{4}$ -->
      <g transform="translate(351.908943 183.929348) scale(0.13 -0.13)">
       <defs>
        <path id="CMR17-34" d="M 2150 4147 
C 2150 4281 2144 4288 2029 4288 
L 128 1254 
L 128 1088 
L 1779 1088 
L 1779 460 
C 1779 230 1766 166 1318 166 
L 1197 166 
L 1197 0 
C 1402 12 1747 12 1965 12 
C 2182 12 2528 12 2733 0 
L 2733 166 
L 2611 166 
C 2163 166 2150 230 2150 460 
L 2150 1088 
L 2803 1088 
L 2803 1254 
L 2150 1254 
L 2150 4147 
z
M 1798 3723 
L 1798 1254 
L 256 1254 
L 1798 3723 
z
" transform="scale(0.015625)"/>
       </defs>
       <use xlink:href="#CMR17-34" transform="scale(0.996264)"/>
      </g>
     </g>
    </g>
    <g id="xtick_8">
     <g id="line2d_15">
      <path d="M 401.657599 167.93532 
L 401.657599 18.537014 
" clip-path="url(#p19816b35e7)" style="fill: none; stroke: #b0b0b0; stroke-width: 0.8; stroke-linecap: square"/>
     </g>
     <g id="line2d_16">
      <g>
       <use xlink:href="#m6d6a8ac3e9" x="401.657599" y="167.93532" style="stroke: #000000; stroke-width: 0.8"/>
      </g>
     </g>
     <g id="text_8">
      <!-- $\mathdefault{5}$ -->
      <g transform="translate(398.48723 183.929348) scale(0.13 -0.13)">
       <defs>
        <path id="CMR17-35" d="M 730 3750 
C 794 3724 1056 3641 1325 3641 
C 1920 3641 2246 3961 2432 4140 
C 2432 4191 2432 4224 2394 4224 
C 2387 4224 2374 4224 2323 4198 
C 2099 4102 1837 4032 1517 4032 
C 1325 4032 1037 4055 723 4191 
C 653 4224 640 4224 634 4224 
C 602 4224 595 4217 595 4090 
L 595 2231 
C 595 2113 595 2080 659 2080 
C 691 2080 704 2093 736 2139 
C 941 2435 1222 2560 1542 2560 
C 1766 2560 2246 2415 2246 1293 
C 2246 1087 2246 716 2054 422 
C 1894 159 1645 25 1370 25 
C 947 25 518 319 403 812 
C 429 806 480 793 506 793 
C 589 793 749 838 749 1036 
C 749 1209 627 1280 506 1280 
C 358 1280 262 1190 262 1011 
C 262 454 704 -128 1382 -128 
C 2042 -128 2669 441 2669 1267 
C 2669 2054 2170 2662 1549 2662 
C 1222 2662 947 2540 730 2304 
L 730 3750 
z
" transform="scale(0.015625)"/>
       </defs>
       <use xlink:href="#CMR17-35" transform="scale(0.996264)"/>
      </g>
     </g>
    </g>
    <g id="text_9">
     <!-- $x$ -->
     <g transform="translate(235.030384 199.441688) scale(0.13 -0.13)">
      <defs>
       <path id="CMMI12-78" d="M 3034 2624 
C 2829 2585 2752 2431 2752 2310 
C 2752 2156 2874 2105 2963 2105 
C 3155 2105 3290 2271 3290 2444 
C 3290 2694 2982 2816 2714 2816 
C 2323 2816 2106 2451 2048 2329 
C 1901 2790 1504 2816 1389 2816 
C 736 2816 390 1993 390 1849 
C 390 1823 416 1790 461 1790 
C 512 1790 525 1829 538 1855 
C 755 2572 1184 2687 1370 2687 
C 1658 2687 1715 2438 1715 2284 
C 1715 2143 1677 1993 1600 1678 
L 1382 778 
C 1286 390 1101 64 762 64 
C 730 64 570 64 435 126 
C 666 166 717 358 717 435 
C 717 563 621 640 499 640 
C 346 640 179 505 179 300 
C 179 57 480 -64 755 -64 
C 1062 -64 1280 153 1414 415 
C 1517 64 1837 -64 2074 -64 
C 2726 -64 3072 751 3072 896 
C 3072 929 3046 955 3008 955 
C 2950 955 2944 922 2925 870 
C 2752 300 2381 64 2093 64 
C 1869 64 1747 204 1747 467 
C 1747 607 1773 712 1875 1146 
L 2099 2039 
C 2195 2425 2413 2687 2707 2687 
C 2720 2687 2899 2687 3034 2624 
z
" transform="scale(0.015625)"/>
      </defs>
      <use xlink:href="#CMMI12-78" transform="scale(0.996264)"/>
     </g>
    </g>
   </g>
   <g id="matplotlib.axis_2">
    <g id="ytick_1">
     <g id="line2d_17">
      <path d="M 59.307189 167.93532 
L 417.96 167.93532 
" clip-path="url(#p19816b35e7)" style="fill: none; stroke: #b0b0b0; stroke-width: 0.8; stroke-linecap: square"/>
     </g>
     <g id="line2d_18">
      <defs>
       <path id="m6c98065a5a" d="M 0 0 
L -3.5 0 
" style="stroke: #000000; stroke-width: 0.8"/>
      </defs>
      <g>
       <use xlink:href="#m6c98065a5a" x="59.307189" y="167.93532" style="stroke: #000000; stroke-width: 0.8"/>
      </g>
     </g>
     <g id="text_10">
      <!-- $\mathdefault{−15}$ -->
      <g transform="translate(29.55234 172.432334) scale(0.13 -0.13)">
       <use xlink:href="#CMSY10-0" transform="scale(0.996264)"/>
       <use xlink:href="#CMR17-31" transform="translate(77.487468 0) scale(0.996264)"/>
       <use xlink:href="#CMR17-35" transform="translate(123.177945 0) scale(0.996264)"/>
      </g>
     </g>
    </g>
    <g id="ytick_2">
     <g id="line2d_19">
      <path d="M 59.307189 138.055658 
L 417.96 138.055658 
" clip-path="url(#p19816b35e7)" style="fill: none; stroke: #b0b0b0; stroke-width: 0.8; stroke-linecap: square"/>
     </g>
     <g id="line2d_20">
      <g>
       <use xlink:href="#m6c98065a5a" x="59.307189" y="138.055658" style="stroke: #000000; stroke-width: 0.8"/>
      </g>
     </g>
     <g id="text_11">
      <!-- $\mathdefault{−10}$ -->
      <g transform="translate(29.55234 142.552673) scale(0.13 -0.13)">
       <use xlink:href="#CMSY10-0" transform="scale(0.996264)"/>
       <use xlink:href="#CMR17-31" transform="translate(77.487468 0) scale(0.996264)"/>
       <use xlink:href="#CMR17-30" transform="translate(123.177945 0) scale(0.996264)"/>
      </g>
     </g>
    </g>
    <g id="ytick_3">
     <g id="line2d_21">
      <path d="M 59.307189 108.175997 
L 417.96 108.175997 
" clip-path="url(#p19816b35e7)" style="fill: none; stroke: #b0b0b0; stroke-width: 0.8; stroke-linecap: square"/>
     </g>
     <g id="line2d_22">
      <g>
       <use xlink:href="#m6c98065a5a" x="59.307189" y="108.175997" style="stroke: #000000; stroke-width: 0.8"/>
      </g>
     </g>
     <g id="text_12">
      <!-- $\mathdefault{−5}$ -->
      <g transform="translate(35.89308 112.673011) scale(0.13 -0.13)">
       <use xlink:href="#CMSY10-0" transform="scale(0.996264)"/>
       <use xlink:href="#CMR17-35" transform="translate(77.487468 0) scale(0.996264)"/>
      </g>
     </g>
    </g>
    <g id="ytick_4">
     <g id="line2d_23">
      <path d="M 59.307189 78.296336 
L 417.96 78.296336 
" clip-path="url(#p19816b35e7)" style="fill: none; stroke: #b0b0b0; stroke-width: 0.8; stroke-linecap: square"/>
     </g>
     <g id="line2d_24">
      <g>
       <use xlink:href="#m6c98065a5a" x="59.307189" y="78.296336" style="stroke: #000000; stroke-width: 0.8"/>
      </g>
     </g>
     <g id="text_13">
      <!-- $\mathdefault{0}$ -->
      <g transform="translate(45.96645 82.79335) scale(0.13 -0.13)">
       <use xlink:href="#CMR17-30" transform="scale(0.996264)"/>
      </g>
     </g>
    </g>
    <g id="ytick_5">
     <g id="line2d_25">
      <path d="M 59.307189 48.416675 
L 417.96 48.416675 
" clip-path="url(#p19816b35e7)" style="fill: none; stroke: #b0b0b0; stroke-width: 0.8; stroke-linecap: square"/>
     </g>
     <g id="line2d_26">
      <g>
       <use xlink:href="#m6c98065a5a" x="59.307189" y="48.416675" style="stroke: #000000; stroke-width: 0.8"/>
      </g>
     </g>
     <g id="text_14">
      <!-- $\mathdefault{5}$ -->
      <g transform="translate(45.96645 52.913689) scale(0.13 -0.13)">
       <use xlink:href="#CMR17-35" transform="scale(0.996264)"/>
      </g>
     </g>
    </g>
    <g id="ytick_6">
     <g id="line2d_27">
      <path d="M 59.307189 18.537014 
L 417.96 18.537014 
" clip-path="url(#p19816b35e7)" style="fill: none; stroke: #b0b0b0; stroke-width: 0.8; stroke-linecap: square"/>
     </g>
     <g id="line2d_28">
      <g>
       <use xlink:href="#m6c98065a5a" x="59.307189" y="18.537014" style="stroke: #000000; stroke-width: 0.8"/>
      </g>
     </g>
     <g id="text_15">
      <!-- $\mathdefault{10}$ -->
      <g transform="translate(39.62571 23.034028) scale(0.13 -0.13)">
       <use xlink:href="#CMR17-31" transform="scale(0.996264)"/>
       <use xlink:href="#CMR17-30" transform="translate(45.690477 0) scale(0.996264)"/>
      </g>
     </g>
    </g>
    <g id="text_16">
     <!-- $f$ -->
     <g transform="translate(23.034028 96.361577) rotate(-90) scale(0.13 -0.13)">
      <defs>
       <path id="CMMI12-66" d="M 2854 2566 
C 2982 2566 3034 2566 3034 2687 
C 3034 2752 2982 2752 2867 2752 
L 2349 2752 
C 2470 3398 2560 3846 2611 4051 
C 2650 4204 2784 4351 2950 4351 
C 3085 4351 3219 4294 3283 4236 
C 3034 4211 2957 4025 2957 3916 
C 2957 3788 3053 3712 3174 3712 
C 3302 3712 3494 3820 3494 4064 
C 3494 4332 3226 4480 2944 4480 
C 2669 4480 2400 4275 2272 4025 
C 2157 3801 2093 3573 1946 2752 
L 1517 2752 
C 1395 2752 1331 2752 1331 2636 
C 1331 2566 1370 2566 1498 2566 
L 1907 2566 
C 1792 1977 1530 545 1382 -132 
C 1274 -685 1178 -1152 858 -1152 
C 838 -1152 653 -1152 538 -1031 
C 864 -1005 864 -724 864 -717 
C 864 -589 768 -512 646 -512 
C 518 -512 326 -621 326 -865 
C 326 -1140 608 -1280 858 -1280 
C 1510 -1280 1779 -113 1850 203 
C 1965 691 2278 2376 2310 2566 
L 2854 2566 
z
" transform="scale(0.015625)"/>
      </defs>
      <use xlink:href="#CMMI12-66" transform="scale(0.996264)"/>
     </g>
    </g>
   </g>
   <g id="line2d_29">
    <path d="M 75.609589 11.126859 
L 78.903004 18.601003 
L 82.196419 25.461754 
L 85.489834 31.740992 
L 88.783249 37.469871 
L 92.076663 42.67884 
L 95.370073 47.397629 
L 98.663488 51.655253 
L 101.956902 55.480003 
L 105.250317 58.899454 
L 108.543732 61.940469 
L 111.837141 64.62919 
L 115.130556 66.99105 
L 118.423971 69.050753 
L 121.717386 70.832292 
L 125.0108 72.358944 
L 128.304215 73.653268 
L 131.59763 74.737104 
L 134.891045 75.631579 
L 138.18446 76.357099 
L 141.477874 76.933357 
L 144.771284 77.379325 
L 148.064698 77.713261 
L 151.358113 77.952706 
L 154.651528 78.114481 
L 157.944943 78.214694 
L 161.238358 78.268733 
L 164.531773 78.291271 
L 167.825182 78.296262 
L 171.118597 78.296946 
L 174.412011 78.305843 
L 177.705426 78.334757 
L 180.998841 78.394777 
L 184.292256 78.496272 
L 187.585671 78.648895 
L 190.879085 78.861585 
L 194.1725 79.142558 
L 197.465915 79.49932 
L 200.75933 79.938654 
L 204.052745 80.46663 
L 207.346159 81.088599 
L 210.639563 81.809192 
L 213.932978 82.632335 
L 217.226393 83.561223 
L 220.519808 84.598341 
L 223.813222 85.745457 
L 227.106637 87.003619 
L 230.400052 88.373161 
L 233.693467 89.853697 
L 236.986882 91.444128 
L 240.280307 93.142642 
L 243.573722 94.946691 
L 246.867137 96.853034 
L 250.160552 98.857692 
L 253.453967 100.955986 
L 256.747381 103.142513 
L 260.040796 105.411151 
L 263.334211 107.755062 
L 266.627626 110.166696 
L 269.92103 112.637772 
L 273.214444 115.159327 
L 276.507859 117.721628 
L 279.801274 120.314276 
L 283.094689 122.926114 
L 286.388104 125.545311 
L 289.681518 128.159246 
L 292.974933 130.754693 
L 296.268348 133.317609 
L 299.561763 135.833269 
L 302.855178 138.286232 
L 306.148592 140.660355 
L 309.442007 142.938755 
L 312.735411 145.103852 
L 316.028837 147.137334 
L 319.322241 149.020132 
L 322.615666 150.732596 
L 325.90907 152.254185 
L 329.202496 153.563734 
L 332.4959 154.639392 
L 335.789315 155.458546 
L 339.082729 155.997794 
L 342.376144 156.233144 
L 345.669559 156.139884 
L 348.962974 155.692459 
L 352.256389 154.8647 
L 355.549814 153.629639 
L 358.843218 151.95985 
L 362.136622 149.826793 
L 365.430048 147.201449 
L 368.723451 144.053931 
L 372.016877 140.353989 
L 375.310281 136.070277 
L 378.603707 131.170789 
L 381.897111 125.623019 
L 385.190537 119.393499 
L 388.48394 112.448266 
L 391.777366 104.752301 
L 395.07077 96.270318 
L 398.364196 86.965933 
L 401.657599 76.802353 
" clip-path="url(#p19816b35e7)" style="fill: none; stroke: #808080; stroke-width: 1.5; stroke-linecap: square"/>
   </g>
   <g id="line2d_30">
    <path d="M 75.609589 22.809807 
L 78.903004 26.929578 
L 82.196419 31.04935 
L 85.489834 35.169122 
L 88.783249 39.288894 
L 92.076663 43.408666 
L 95.370073 47.528432 
L 98.663488 51.648203 
L 101.956902 55.767977 
L 105.250317 59.88775 
L 108.543732 64.007522 
L 111.837141 68.127286 
L 115.130556 72.247058 
L 118.423971 76.366831 
L 121.717386 80.486603 
L 125.0108 84.606375 
L 128.304215 88.726147 
L 131.59763 92.845919 
L 134.891045 96.96569 
L 138.18446 101.085465 
L 141.477874 105.205237 
L 144.771284 109.325003 
L 148.064698 113.444775 
L 151.358113 117.564547 
L 154.651528 121.684318 
L 157.944943 125.80409 
L 161.238358 129.923862 
L 164.531773 134.043634 
L 167.825182 138.1634 
L 171.118597 142.283172 
L 174.412011 146.402943 
L 177.705426 150.522721 
L 180.998841 154.642493 
L 184.292256 158.762265 
L 187.585671 162.882036 
L 190.879085 167.001808 
L 194.1725 171.12158 
L 197.465915 175.241352 
L 200.75933 179.361124 
L 204.052745 183.480895 
L 207.346159 187.600667 
L 210.639563 191.720428 
L 213.932978 195.840199 
L 217.226393 199.959971 
L 220.519808 204.079743 
L 223.813222 208.199515 
L 227.106637 212.319287 
L 230.400052 216.439058 
L 230.848478 217 
" clip-path="url(#p19816b35e7)" style="fill: none; stroke-dasharray: 1.5,2.475; stroke-dashoffset: 0; stroke: #000000; stroke-width: 1.5"/>
   </g>
   <g id="line2d_31">
    <path d="M 75.609589 43.202675 
L 78.903004 44.438606 
L 82.196419 45.674539 
L 85.489834 46.91047 
L 88.783249 48.146401 
L 92.076663 49.382332 
L 95.370073 50.618263 
L 98.663488 51.854194 
L 101.956902 53.090125 
L 105.250317 54.326059 
L 108.543732 55.56199 
L 111.837141 56.79792 
L 115.130556 58.033851 
L 118.423971 59.269783 
L 121.717386 60.505714 
L 125.0108 61.741645 
L 128.304215 62.977577 
L 131.59763 64.213508 
L 134.891045 65.449441 
L 138.18446 66.685372 
L 141.477874 67.921304 
L 144.771284 69.157234 
L 148.064698 70.393165 
L 151.358113 71.629097 
L 154.651528 72.865028 
L 157.944943 74.10096 
L 161.238358 75.336891 
L 164.531773 76.572822 
L 167.825182 77.808753 
L 171.118597 79.044684 
L 174.412011 80.280615 
L 177.705426 81.516546 
L 180.998841 82.75248 
L 184.292256 83.988411 
L 187.585671 85.224342 
L 190.879085 86.460273 
L 194.1725 87.696207 
L 197.465915 88.932138 
L 200.75933 90.168069 
L 204.052745 91.404 
L 207.346159 92.639933 
L 210.639563 93.875859 
L 213.932978 95.111793 
L 217.226393 96.347723 
L 220.519808 97.583654 
L 223.813222 98.819585 
L 227.106637 100.055519 
L 230.400052 101.291447 
L 233.693467 102.527381 
L 236.986882 103.763315 
L 240.280307 104.999249 
L 243.573722 106.235183 
L 246.867137 107.471111 
L 250.160552 108.707045 
L 253.453967 109.942973 
L 256.747381 111.178907 
L 260.040796 112.41484 
L 263.334211 113.650768 
L 266.627626 114.886702 
L 269.92103 116.12263 
L 273.214444 117.358559 
L 276.507859 118.594492 
L 279.801274 119.830426 
L 283.094689 121.066354 
L 286.388104 122.302282 
L 289.681518 123.538216 
L 292.974933 124.774156 
L 296.268348 126.010084 
L 299.561763 127.246012 
L 302.855178 128.481946 
L 306.148592 129.71788 
L 309.442007 130.953808 
L 312.735411 132.189736 
L 316.028837 133.42567 
L 319.322241 134.661598 
L 322.615666 135.897537 
L 325.90907 137.13346 
L 329.202496 138.369399 
L 332.4959 139.605327 
L 335.789315 140.841256 
L 339.082729 142.077189 
L 342.376144 143.313123 
L 345.669559 144.549051 
L 348.962974 145.784979 
L 352.256389 147.020913 
L 355.549814 148.256853 
L 358.843218 149.492781 
L 362.136622 150.728709 
L 365.430048 151.964637 
L 368.723451 153.200565 
L 372.016877 154.436505 
L 375.310281 155.672433 
L 378.603707 156.908372 
L 381.897111 158.1443 
L 385.190537 159.380229 
L 388.48394 160.616157 
L 391.777366 161.852096 
L 395.07077 163.088024 
L 398.364196 164.323952 
L 401.657599 165.559881 
" clip-path="url(#p19816b35e7)" style="fill: none; stroke: #000000; stroke-width: 1.5; stroke-linecap: square"/>
   </g>
   <g id="line2d_32">
    <defs>
     <path id="m8c8f0025b1" d="M 0 3 
C 0.795609 3 1.55874 2.683901 2.12132 2.12132 
C 2.683901 1.55874 3 0.795609 3 0 
C 3 -0.795609 2.683901 -1.55874 2.12132 -2.12132 
C 1.55874 -2.683901 0.795609 -3 0 -3 
C -0.795609 -3 -1.55874 -2.683901 -2.12132 -2.12132 
C -2.683901 -1.55874 -3 -0.795609 -3 0 
C -3 0.795609 -2.683901 1.55874 -2.12132 2.12132 
C -1.55874 2.683901 -0.795609 3 0 3 
z
" style="stroke: #000000"/>
    </defs>
    <g clip-path="url(#p19816b35e7)">
     <use xlink:href="#m8c8f0025b1" x="98.898733" y="51.942475" style="stroke: #000000"/>
    </g>
   </g>
   <g id="patch_5">
    <path d="M 59.307189 167.93532 
L 59.307189 18.537014 
" style="fill: none; stroke: #000000; stroke-width: 0.8; stroke-linejoin: miter; stroke-linecap: square"/>
   </g>
   <g id="patch_6">
    <path d="M 417.96 167.93532 
L 417.96 18.537014 
" style="fill: none; stroke: #000000; stroke-width: 0.8; stroke-linejoin: miter; stroke-linecap: square"/>
   </g>
   <g id="patch_7">
    <path d="M 59.307189 167.93532 
L 417.96 167.93532 
" style="fill: none; stroke: #000000; stroke-width: 0.8; stroke-linejoin: miter; stroke-linecap: square"/>
   </g>
   <g id="patch_8">
    <path d="M 59.307189 18.537014 
L 417.96 18.537014 
" style="fill: none; stroke: #000000; stroke-width: 0.8; stroke-linejoin: miter; stroke-linecap: square"/>
   </g>
   <g id="legend_1">
    <g id="patch_9">
     <path d="M 236.794123 89.855699 
L 408.86 89.855699 
Q 411.46 89.855699 411.46 87.255699 
L 411.46 27.637014 
Q 411.46 25.037014 408.86 25.037014 
L 236.794123 25.037014 
Q 234.194123 25.037014 234.194123 27.637014 
L 234.194123 87.255699 
Q 234.194123 89.855699 236.794123 89.855699 
z
" style="fill: #ffffff; opacity: 0.8; stroke: #cccccc; stroke-linejoin: miter"/>
    </g>
    <g id="line2d_33">
     <path d="M 239.394123 35.400588 
L 252.394123 35.400588 
L 265.394123 35.400588 
" style="fill: none; stroke: #808080; stroke-width: 1.5; stroke-linecap: square"/>
    </g>
    <g id="text_17">
     <!-- $f(x)$ -->
     <g transform="translate(275.794123 39.950588) scale(0.13 -0.13)">
      <defs>
       <path id="CMR17-28" d="M 1958 -1562 
C 1958 -1556 1958 -1543 1939 -1524 
C 1645 -1223 858 -403 858 1596 
C 858 3595 1632 4408 1946 4729 
C 1946 4735 1958 4748 1958 4767 
C 1958 4787 1939 4800 1914 4800 
C 1843 4800 1299 4325 986 3620 
C 666 2909 576 2218 576 1603 
C 576 1141 621 360 1005 -467 
C 1312 -1133 1837 -1600 1914 -1600 
C 1946 -1600 1958 -1588 1958 -1562 
z
" transform="scale(0.015625)"/>
       <path id="CMR17-29" d="M 1683 1596 
C 1683 2057 1638 2839 1254 3665 
C 947 4332 422 4800 346 4800 
C 326 4800 301 4793 301 4761 
C 301 4748 307 4742 314 4729 
C 621 4408 1402 3595 1402 1603 
C 1402 -396 627 -1210 314 -1530 
C 307 -1543 301 -1549 301 -1562 
C 301 -1594 326 -1600 346 -1600 
C 416 -1600 960 -1127 1274 -422 
C 1594 289 1683 981 1683 1596 
z
" transform="scale(0.015625)"/>
      </defs>
      <use xlink:href="#CMMI12-66" transform="scale(0.996264)"/>
      <use xlink:href="#CMR17-28" transform="translate(58.720305 0) scale(0.996264)"/>
      <use xlink:href="#CMMI12-78" transform="translate(94.001073 0) scale(0.996264)"/>
      <use xlink:href="#CMR17-29" transform="translate(149.435132 0) scale(0.996264)"/>
     </g>
    </g>
    <g id="line2d_34">
     <path d="M 239.394123 56.134215 
L 252.394123 56.134215 
L 265.394123 56.134215 
" style="fill: none; stroke-dasharray: 1.5,2.475; stroke-dashoffset: 0; stroke: #000000; stroke-width: 1.5"/>
    </g>
    <g id="text_18">
     <!-- $f(x^k) + f'(x^k) (x-x^k)$ -->
     <g transform="translate(275.794123 60.684215) scale(0.13 -0.13)">
      <defs>
       <path id="CMMI12-6b" d="M 1798 4255 
C 1805 4281 1818 4319 1818 4351 
C 1818 4416 1754 4416 1741 4416 
C 1734 4416 1504 4396 1389 4383 
C 1280 4377 1184 4364 1069 4358 
C 915 4345 870 4339 870 4223 
C 870 4159 934 4159 998 4159 
C 1325 4159 1325 4103 1325 4040 
C 1325 4014 1325 4002 1293 3888 
L 378 250 
C 352 153 352 141 352 102 
C 352 -39 461 -64 525 -64 
C 704 -64 742 76 794 275 
L 1094 1476 
C 1555 1425 1830 1232 1830 924 
C 1830 885 1830 860 1811 763 
C 1786 667 1786 590 1786 558 
C 1786 185 2029 -64 2355 -64 
C 2650 -64 2803 205 2854 295 
C 2989 532 3072 892 3072 917 
C 3072 949 3046 975 3008 975 
C 2950 975 2944 949 2918 847 
C 2829 513 2694 64 2368 64 
C 2240 64 2157 128 2157 372 
C 2157 494 2182 635 2208 731 
C 2234 847 2234 853 2234 930 
C 2234 1309 1894 1521 1306 1598 
C 1536 1739 1766 1989 1856 2086 
C 2221 2495 2470 2687 2765 2687 
C 2912 2687 2950 2655 2995 2624 
C 2758 2598 2669 2431 2669 2303 
C 2669 2150 2790 2099 2880 2099 
C 3053 2099 3206 2246 3206 2451 
C 3206 2634 3059 2816 2771 2816 
C 2419 2816 2131 2579 1677 2067 
C 1613 1989 1376 1746 1139 1656 
L 1798 4255 
z
" transform="scale(0.015625)"/>
       <path id="CMR17-2b" d="M 2413 1472 
L 4109 1472 
C 4198 1472 4307 1472 4307 1580 
C 4307 1696 4205 1696 4109 1696 
L 2413 1696 
L 2413 3385 
C 2413 3475 2413 3584 2304 3584 
C 2189 3584 2189 3481 2189 3385 
L 2189 1696 
L 493 1696 
C 403 1696 294 1696 294 1587 
C 294 1472 397 1472 493 1472 
L 2189 1472 
L 2189 -194 
C 2189 -282 2189 -391 2298 -391 
C 2413 -391 2413 -289 2413 -194 
L 2413 1472 
z
" transform="scale(0.015625)"/>
       <path id="CMSY10-30" d="M 1619 3048 
C 1651 3125 1677 3182 1677 3246 
C 1677 3430 1510 3584 1312 3584 
C 1133 3584 1018 3462 973 3297 
L 211 517 
C 211 505 186 435 186 428 
C 186 358 352 313 403 313 
C 442 313 448 332 486 415 
L 1619 3048 
z
" transform="scale(0.015625)"/>
      </defs>
      <use xlink:href="#CMMI12-66" transform="scale(0.996264)"/>
      <use xlink:href="#CMR17-28" transform="translate(58.720305 0) scale(0.996264)"/>
      <use xlink:href="#CMMI12-78" transform="translate(94.001073 0) scale(0.996264)"/>
      <use xlink:href="#CMMI12-6b" transform="translate(149.435132 36.153639) scale(0.697382)"/>
      <use xlink:href="#CMR17-29" transform="translate(187.788515 0) scale(0.996264)"/>
      <use xlink:href="#CMR17-2b" transform="translate(245.208489 0) scale(0.996264)"/>
      <use xlink:href="#CMMI12-66" transform="translate(339.062485 0) scale(0.996264)"/>
      <use xlink:href="#CMSY10-30" transform="translate(397.78279 36.153639) scale(0.697382)"/>
      <use xlink:href="#CMR17-28" transform="translate(417.458882 0) scale(0.996264)"/>
      <use xlink:href="#CMMI12-78" transform="translate(452.73965 0) scale(0.996264)"/>
      <use xlink:href="#CMMI12-6b" transform="translate(508.17371 36.153639) scale(0.697382)"/>
      <use xlink:href="#CMR17-29" transform="translate(546.527092 0) scale(0.996264)"/>
      <use xlink:href="#CMR17-28" transform="translate(581.80786 0) scale(0.996264)"/>
      <use xlink:href="#CMMI12-78" transform="translate(617.088628 0) scale(0.996264)"/>
      <use xlink:href="#CMSY10-0" transform="translate(694.661894 0) scale(0.996264)"/>
      <use xlink:href="#CMMI12-78" transform="translate(794.288569 0) scale(0.996264)"/>
      <use xlink:href="#CMMI12-6b" transform="translate(849.722628 36.153639) scale(0.697382)"/>
      <use xlink:href="#CMR17-29" transform="translate(888.076011 0) scale(0.996264)"/>
     </g>
    </g>
    <g id="line2d_35">
     <path d="M 239.394123 76.867841 
L 252.394123 76.867841 
L 265.394123 76.867841 
" style="fill: none; stroke: #000000; stroke-width: 1.5; stroke-linecap: square"/>
    </g>
    <g id="text_19">
     <!-- $f(x^k) + c f'(x^k) (x-x^k)$ -->
     <g transform="translate(275.794123 81.417841) scale(0.13 -0.13)">
      <defs>
       <path id="CMMI12-63" d="M 2502 2432 
C 2381 2432 2323 2432 2234 2355 
C 2195 2323 2125 2227 2125 2124 
C 2125 1996 2221 1919 2342 1919 
C 2496 1919 2669 2047 2669 2303 
C 2669 2591 2374 2816 1933 2816 
C 1094 2816 256 1932 256 1011 
C 256 446 602 -64 1254 -64 
C 2125 -64 2675 622 2675 706 
C 2675 745 2637 777 2611 777 
C 2592 777 2586 771 2528 712 
C 2118 161 1510 64 1267 64 
C 826 64 685 453 685 777 
C 685 1004 794 1634 1024 2073 
C 1190 2374 1536 2687 1939 2687 
C 2022 2687 2374 2676 2502 2432 
z
" transform="scale(0.015625)"/>
      </defs>
      <use xlink:href="#CMMI12-66" transform="scale(0.996264)"/>
      <use xlink:href="#CMR17-28" transform="translate(58.720305 0) scale(0.996264)"/>
      <use xlink:href="#CMMI12-78" transform="translate(94.001073 0) scale(0.996264)"/>
      <use xlink:href="#CMMI12-6b" transform="translate(149.435132 36.153639) scale(0.697382)"/>
      <use xlink:href="#CMR17-29" transform="translate(187.788515 0) scale(0.996264)"/>
      <use xlink:href="#CMR17-2b" transform="translate(245.208489 0) scale(0.996264)"/>
      <use xlink:href="#CMMI12-63" transform="translate(339.062485 0) scale(0.996264)"/>
      <use xlink:href="#CMMI12-66" transform="translate(381.045718 0) scale(0.996264)"/>
      <use xlink:href="#CMSY10-30" transform="translate(439.766023 36.153639) scale(0.697382)"/>
      <use xlink:href="#CMR17-28" transform="translate(459.442116 0) scale(0.996264)"/>
      <use xlink:href="#CMMI12-78" transform="translate(494.722884 0) scale(0.996264)"/>
      <use xlink:href="#CMMI12-6b" transform="translate(550.156943 36.153639) scale(0.697382)"/>
      <use xlink:href="#CMR17-29" transform="translate(588.510326 0) scale(0.996264)"/>
      <use xlink:href="#CMR17-28" transform="translate(623.791093 0) scale(0.996264)"/>
      <use xlink:href="#CMMI12-78" transform="translate(659.071861 0) scale(0.996264)"/>
      <use xlink:href="#CMSY10-0" transform="translate(736.645128 0) scale(0.996264)"/>
      <use xlink:href="#CMMI12-78" transform="translate(836.271802 0) scale(0.996264)"/>
      <use xlink:href="#CMMI12-6b" transform="translate(891.705862 36.153639) scale(0.697382)"/>
      <use xlink:href="#CMR17-29" transform="translate(930.059244 0) scale(0.996264)"/>
     </g>
    </g>
   </g>
  </g>
 </g>
 <defs>
  <clipPath id="p19816b35e7">
   <rect x="59.307189" y="18.537014" width="358.652811" height="149.398306"/>
  </clipPath>
 </defs>
</svg>
