<?xml version="1.0" encoding="utf-8" standalone="no"?>
<!DOCTYPE svg PUBLIC "-//W3C//DTD SVG 1.1//EN"
  "http://www.w3.org/Graphics/SVG/1.1/DTD/svg11.dtd">
<svg xmlns:xlink="http://www.w3.org/1999/xlink" width="432pt" height="216pt" viewBox="0 0 432 216" xmlns="http://www.w3.org/2000/svg" version="1.1">
 <metadata>
  <rdf:RDF xmlns:dc="http://purl.org/dc/elements/1.1/" xmlns:cc="http://creativecommons.org/ns#" xmlns:rdf="http://www.w3.org/1999/02/22-rdf-syntax-ns#">
   <cc:Work>
    <dc:type rdf:resource="http://purl.org/dc/dcmitype/StillImage"/>
    <dc:date>2024-02-21T18:16:32.163924</dc:date>
    <dc:format>image/svg+xml</dc:format>
    <dc:creator>
     <cc:Agent>
      <dc:title>Matplotlib v3.6.3, https://matplotlib.org/</dc:title>
     </cc:Agent>
    </dc:creator>
   </cc:Work>
  </rdf:RDF>
 </metadata>
 <defs>
  <style type="text/css">*{stroke-linejoin: round; stroke-linecap: butt}</style>
 </defs>
 <g id="figure_1">
  <g id="patch_1">
   <path d="M 0 216 
L 432 216 
L 432 0 
L 0 0 
L 0 216 
z
" style="fill: none"/>
  </g>
  <g id="axes_1">
   <g id="patch_2">
    <path d="M 48.367091 176.488647 
L 421.2 176.488647 
L 421.2 14.259249 
L 48.367091 14.259249 
L 48.367091 176.488647 
z
" style="fill: none"/>
   </g>
   <g id="patch_3">
    <path d="M 89.523971 176.488647 
L 162.153758 176.488647 
L 162.153758 14.259249 
L 89.523971 14.259249 
z
" clip-path="url(#pc3df238186)" style="fill: #008000; opacity: 0.2"/>
   </g>
   <g id="patch_4">
    <path d="M 275.940425 176.488647 
L 363.09617 176.488647 
L 363.09617 14.259249 
L 275.940425 14.259249 
z
" clip-path="url(#pc3df238186)" style="fill: #008000; opacity: 0.2"/>
   </g>
   <g id="matplotlib.axis_1">
    <g id="xtick_1">
     <g id="line2d_1">
      <path d="M 65.314041 176.488647 
L 65.314041 14.259249 
" clip-path="url(#pc3df238186)" style="fill: none; stroke: #b0b0b0; stroke-width: 0.8; stroke-linecap: square"/>
     </g>
     <g id="line2d_2">
      <defs>
       <path id="m894c9a4ee6" d="M 0 0 
L 0 3.5 
" style="stroke: #000000; stroke-width: 0.8"/>
      </defs>
      <g>
       <use xlink:href="#m894c9a4ee6" x="65.314041" y="176.488647" style="stroke: #000000; stroke-width: 0.8"/>
      </g>
     </g>
     <g id="text_1">
      <!-- $\mathdefault{−2}$ -->
      <g transform="translate(58.949002 190.407145) scale(0.1 -0.1)">
       <defs>
        <path id="CMSY10-0" d="M 4218 1472 
C 4326 1472 4442 1472 4442 1600 
C 4442 1728 4326 1728 4218 1728 
L 755 1728 
C 646 1728 531 1728 531 1600 
C 531 1472 646 1472 755 1472 
L 4218 1472 
z
" transform="scale(0.015625)"/>
        <path id="CMR17-32" d="M 2669 990 
L 2554 990 
C 2490 537 2438 460 2413 422 
C 2381 371 1920 371 1830 371 
L 602 371 
C 832 620 1280 1073 1824 1596 
C 2214 1966 2669 2400 2669 3033 
C 2669 3788 2067 4224 1395 4224 
C 691 4224 262 3603 262 3027 
C 262 2777 448 2745 525 2745 
C 589 2745 781 2783 781 3007 
C 781 3206 614 3264 525 3264 
C 486 3264 448 3257 422 3244 
C 544 3788 915 4057 1306 4057 
C 1862 4057 2227 3616 2227 3033 
C 2227 2477 1901 1998 1536 1583 
L 262 147 
L 262 0 
L 2515 0 
L 2669 990 
z
" transform="scale(0.015625)"/>
       </defs>
       <use xlink:href="#CMSY10-0" transform="scale(0.996264)"/>
       <use xlink:href="#CMR17-32" transform="translate(77.487468 0) scale(0.996264)"/>
      </g>
     </g>
    </g>
    <g id="xtick_2">
     <g id="line2d_3">
      <path d="M 113.7339 176.488647 
L 113.7339 14.259249 
" clip-path="url(#pc3df238186)" style="fill: none; stroke: #b0b0b0; stroke-width: 0.8; stroke-linecap: square"/>
     </g>
     <g id="line2d_4">
      <g>
       <use xlink:href="#m894c9a4ee6" x="113.7339" y="176.488647" style="stroke: #000000; stroke-width: 0.8"/>
      </g>
     </g>
     <g id="text_2">
      <!-- $\mathdefault{−1}$ -->
      <g transform="translate(107.36886 190.407145) scale(0.1 -0.1)">
       <defs>
        <path id="CMR17-31" d="M 1702 4083 
C 1702 4217 1696 4224 1606 4224 
C 1357 3927 979 3833 621 3820 
C 602 3820 570 3820 563 3808 
C 557 3795 557 3782 557 3648 
C 755 3648 1088 3686 1344 3839 
L 1344 467 
C 1344 243 1331 166 781 166 
L 589 166 
L 589 0 
C 896 6 1216 12 1523 12 
C 1830 12 2150 6 2458 0 
L 2458 166 
L 2266 166 
C 1715 166 1702 236 1702 467 
L 1702 4083 
z
" transform="scale(0.015625)"/>
       </defs>
       <use xlink:href="#CMSY10-0" transform="scale(0.996264)"/>
       <use xlink:href="#CMR17-31" transform="translate(77.487468 0) scale(0.996264)"/>
      </g>
     </g>
    </g>
    <g id="xtick_3">
     <g id="line2d_5">
      <path d="M 162.153758 176.488647 
L 162.153758 14.259249 
" clip-path="url(#pc3df238186)" style="fill: none; stroke: #b0b0b0; stroke-width: 0.8; stroke-linecap: square"/>
     </g>
     <g id="line2d_6">
      <g>
       <use xlink:href="#m894c9a4ee6" x="162.153758" y="176.488647" style="stroke: #000000; stroke-width: 0.8"/>
      </g>
     </g>
     <g id="text_3">
      <!-- $\mathdefault{0}$ -->
      <g transform="translate(159.66309 190.407145) scale(0.1 -0.1)">
       <defs>
        <path id="CMR17-30" d="M 2688 2038 
C 2688 2430 2682 3099 2413 3613 
C 2176 4063 1798 4224 1466 4224 
C 1158 4224 768 4082 525 3620 
C 269 3137 243 2539 243 2038 
C 243 1671 250 1112 448 623 
C 723 -39 1216 -128 1466 -128 
C 1760 -128 2208 -7 2470 604 
C 2662 1048 2688 1568 2688 2038 
z
M 1466 -26 
C 1056 -26 813 328 723 816 
C 653 1196 653 1749 653 2109 
C 653 2604 653 3015 736 3407 
C 858 3954 1216 4121 1466 4121 
C 1728 4121 2067 3947 2189 3420 
C 2272 3054 2278 2623 2278 2109 
C 2278 1691 2278 1176 2202 797 
C 2067 96 1690 -26 1466 -26 
z
" transform="scale(0.015625)"/>
       </defs>
       <use xlink:href="#CMR17-30" transform="scale(0.996264)"/>
      </g>
     </g>
    </g>
    <g id="xtick_4">
     <g id="line2d_7">
      <path d="M 210.573616 176.488647 
L 210.573616 14.259249 
" clip-path="url(#pc3df238186)" style="fill: none; stroke: #b0b0b0; stroke-width: 0.8; stroke-linecap: square"/>
     </g>
     <g id="line2d_8">
      <g>
       <use xlink:href="#m894c9a4ee6" x="210.573616" y="176.488647" style="stroke: #000000; stroke-width: 0.8"/>
      </g>
     </g>
     <g id="text_4">
      <!-- $\mathdefault{1}$ -->
      <g transform="translate(208.082949 190.407145) scale(0.1 -0.1)">
       <use xlink:href="#CMR17-31" transform="scale(0.996264)"/>
      </g>
     </g>
    </g>
    <g id="xtick_5">
     <g id="line2d_9">
      <path d="M 258.993475 176.488647 
L 258.993475 14.259249 
" clip-path="url(#pc3df238186)" style="fill: none; stroke: #b0b0b0; stroke-width: 0.8; stroke-linecap: square"/>
     </g>
     <g id="line2d_10">
      <g>
       <use xlink:href="#m894c9a4ee6" x="258.993475" y="176.488647" style="stroke: #000000; stroke-width: 0.8"/>
      </g>
     </g>
     <g id="text_5">
      <!-- $\mathdefault{2}$ -->
      <g transform="translate(256.502807 190.407145) scale(0.1 -0.1)">
       <use xlink:href="#CMR17-32" transform="scale(0.996264)"/>
      </g>
     </g>
    </g>
    <g id="xtick_6">
     <g id="line2d_11">
      <path d="M 307.413333 176.488647 
L 307.413333 14.259249 
" clip-path="url(#pc3df238186)" style="fill: none; stroke: #b0b0b0; stroke-width: 0.8; stroke-linecap: square"/>
     </g>
     <g id="line2d_12">
      <g>
       <use xlink:href="#m894c9a4ee6" x="307.413333" y="176.488647" style="stroke: #000000; stroke-width: 0.8"/>
      </g>
     </g>
     <g id="text_6">
      <!-- $\mathdefault{3}$ -->
      <g transform="translate(304.922665 190.407145) scale(0.1 -0.1)">
       <defs>
        <path id="CMR17-33" d="M 1414 2176 
C 1984 2176 2234 1673 2234 1094 
C 2234 322 1824 25 1453 25 
C 1114 25 563 193 390 691 
C 422 678 454 678 486 678 
C 640 678 755 780 755 947 
C 755 1132 614 1216 486 1216 
C 378 1216 211 1164 211 927 
C 211 335 787 -128 1466 -128 
C 2176 -128 2720 432 2720 1087 
C 2720 1718 2208 2176 1600 2246 
C 2086 2347 2554 2776 2554 3353 
C 2554 3856 2048 4224 1472 4224 
C 890 4224 378 3862 378 3347 
C 378 3123 544 3084 627 3084 
C 762 3084 877 3167 877 3334 
C 877 3500 762 3584 627 3584 
C 602 3584 570 3584 544 3571 
C 730 3999 1235 4076 1459 4076 
C 1683 4076 2106 3966 2106 3347 
C 2106 3167 2080 2851 1862 2574 
C 1670 2329 1453 2316 1242 2297 
C 1210 2297 1062 2284 1037 2284 
C 992 2278 966 2272 966 2227 
C 966 2182 973 2176 1101 2176 
L 1414 2176 
z
" transform="scale(0.015625)"/>
       </defs>
       <use xlink:href="#CMR17-33" transform="scale(0.996264)"/>
      </g>
     </g>
    </g>
    <g id="xtick_7">
     <g id="line2d_13">
      <path d="M 355.833191 176.488647 
L 355.833191 14.259249 
" clip-path="url(#pc3df238186)" style="fill: none; stroke: #b0b0b0; stroke-width: 0.8; stroke-linecap: square"/>
     </g>
     <g id="line2d_14">
      <g>
       <use xlink:href="#m894c9a4ee6" x="355.833191" y="176.488647" style="stroke: #000000; stroke-width: 0.8"/>
      </g>
     </g>
     <g id="text_7">
      <!-- $\mathdefault{4}$ -->
      <g transform="translate(353.342524 190.407145) scale(0.1 -0.1)">
       <defs>
        <path id="CMR17-34" d="M 2150 4147 
C 2150 4281 2144 4288 2029 4288 
L 128 1254 
L 128 1088 
L 1779 1088 
L 1779 460 
C 1779 230 1766 166 1318 166 
L 1197 166 
L 1197 0 
C 1402 12 1747 12 1965 12 
C 2182 12 2528 12 2733 0 
L 2733 166 
L 2611 166 
C 2163 166 2150 230 2150 460 
L 2150 1088 
L 2803 1088 
L 2803 1254 
L 2150 1254 
L 2150 4147 
z
M 1798 3723 
L 1798 1254 
L 256 1254 
L 1798 3723 
z
" transform="scale(0.015625)"/>
       </defs>
       <use xlink:href="#CMR17-34" transform="scale(0.996264)"/>
      </g>
     </g>
    </g>
    <g id="xtick_8">
     <g id="line2d_15">
      <path d="M 404.25305 176.488647 
L 404.25305 14.259249 
" clip-path="url(#pc3df238186)" style="fill: none; stroke: #b0b0b0; stroke-width: 0.8; stroke-linecap: square"/>
     </g>
     <g id="line2d_16">
      <g>
       <use xlink:href="#m894c9a4ee6" x="404.25305" y="176.488647" style="stroke: #000000; stroke-width: 0.8"/>
      </g>
     </g>
     <g id="text_8">
      <!-- $\mathdefault{5}$ -->
      <g transform="translate(401.762382 190.407145) scale(0.1 -0.1)">
       <defs>
        <path id="CMR17-35" d="M 730 3750 
C 794 3724 1056 3641 1325 3641 
C 1920 3641 2246 3961 2432 4140 
C 2432 4191 2432 4224 2394 4224 
C 2387 4224 2374 4224 2323 4198 
C 2099 4102 1837 4032 1517 4032 
C 1325 4032 1037 4055 723 4191 
C 653 4224 640 4224 634 4224 
C 602 4224 595 4217 595 4090 
L 595 2231 
C 595 2113 595 2080 659 2080 
C 691 2080 704 2093 736 2139 
C 941 2435 1222 2560 1542 2560 
C 1766 2560 2246 2415 2246 1293 
C 2246 1087 2246 716 2054 422 
C 1894 159 1645 25 1370 25 
C 947 25 518 319 403 812 
C 429 806 480 793 506 793 
C 589 793 749 838 749 1036 
C 749 1209 627 1280 506 1280 
C 358 1280 262 1190 262 1011 
C 262 454 704 -128 1382 -128 
C 2042 -128 2669 441 2669 1267 
C 2669 2054 2170 2662 1549 2662 
C 1222 2662 947 2540 730 2304 
L 730 3750 
z
" transform="scale(0.015625)"/>
       </defs>
       <use xlink:href="#CMR17-35" transform="scale(0.996264)"/>
      </g>
     </g>
    </g>
    <g id="text_9">
     <!-- $x$ -->
     <g transform="translate(231.936586 203.262822) scale(0.1 -0.1)">
      <defs>
       <path id="CMMI12-78" d="M 3034 2624 
C 2829 2585 2752 2431 2752 2310 
C 2752 2156 2874 2105 2963 2105 
C 3155 2105 3290 2271 3290 2444 
C 3290 2694 2982 2816 2714 2816 
C 2323 2816 2106 2451 2048 2329 
C 1901 2790 1504 2816 1389 2816 
C 736 2816 390 1993 390 1849 
C 390 1823 416 1790 461 1790 
C 512 1790 525 1829 538 1855 
C 755 2572 1184 2687 1370 2687 
C 1658 2687 1715 2438 1715 2284 
C 1715 2143 1677 1993 1600 1678 
L 1382 778 
C 1286 390 1101 64 762 64 
C 730 64 570 64 435 126 
C 666 166 717 358 717 435 
C 717 563 621 640 499 640 
C 346 640 179 505 179 300 
C 179 57 480 -64 755 -64 
C 1062 -64 1280 153 1414 415 
C 1517 64 1837 -64 2074 -64 
C 2726 -64 3072 751 3072 896 
C 3072 929 3046 955 3008 955 
C 2950 955 2944 922 2925 870 
C 2752 300 2381 64 2093 64 
C 1869 64 1747 204 1747 467 
C 1747 607 1773 712 1875 1146 
L 2099 2039 
C 2195 2425 2413 2687 2707 2687 
C 2720 2687 2899 2687 3034 2624 
z
" transform="scale(0.015625)"/>
      </defs>
      <use xlink:href="#CMMI12-78" transform="scale(0.996264)"/>
     </g>
    </g>
   </g>
   <g id="matplotlib.axis_2">
    <g id="ytick_1">
     <g id="line2d_17">
      <path d="M 48.367091 176.488647 
L 421.2 176.488647 
" clip-path="url(#pc3df238186)" style="fill: none; stroke: #b0b0b0; stroke-width: 0.8; stroke-linecap: square"/>
     </g>
     <g id="line2d_18">
      <defs>
       <path id="me44d7ae89a" d="M 0 0 
L -3.5 0 
" style="stroke: #000000; stroke-width: 0.8"/>
      </defs>
      <g>
       <use xlink:href="#me44d7ae89a" x="48.367091" y="176.488647" style="stroke: #000000; stroke-width: 0.8"/>
      </g>
     </g>
     <g id="text_10">
      <!-- $\mathdefault{−15}$ -->
      <g transform="translate(23.655677 179.947896) scale(0.1 -0.1)">
       <use xlink:href="#CMSY10-0" transform="scale(0.996264)"/>
       <use xlink:href="#CMR17-31" transform="translate(77.487468 0) scale(0.996264)"/>
       <use xlink:href="#CMR17-35" transform="translate(123.177945 0) scale(0.996264)"/>
      </g>
     </g>
    </g>
    <g id="ytick_2">
     <g id="line2d_19">
      <path d="M 48.367091 144.042767 
L 421.2 144.042767 
" clip-path="url(#pc3df238186)" style="fill: none; stroke: #b0b0b0; stroke-width: 0.8; stroke-linecap: square"/>
     </g>
     <g id="line2d_20">
      <g>
       <use xlink:href="#me44d7ae89a" x="48.367091" y="144.042767" style="stroke: #000000; stroke-width: 0.8"/>
      </g>
     </g>
     <g id="text_11">
      <!-- $\mathdefault{−10}$ -->
      <g transform="translate(23.655677 147.502016) scale(0.1 -0.1)">
       <use xlink:href="#CMSY10-0" transform="scale(0.996264)"/>
       <use xlink:href="#CMR17-31" transform="translate(77.487468 0) scale(0.996264)"/>
       <use xlink:href="#CMR17-30" transform="translate(123.177945 0) scale(0.996264)"/>
      </g>
     </g>
    </g>
    <g id="ytick_3">
     <g id="line2d_21">
      <path d="M 48.367091 111.596888 
L 421.2 111.596888 
" clip-path="url(#pc3df238186)" style="fill: none; stroke: #b0b0b0; stroke-width: 0.8; stroke-linecap: square"/>
     </g>
     <g id="line2d_22">
      <g>
       <use xlink:href="#me44d7ae89a" x="48.367091" y="111.596888" style="stroke: #000000; stroke-width: 0.8"/>
      </g>
     </g>
     <g id="text_12">
      <!-- $\mathdefault{−5}$ -->
      <g transform="translate(28.637012 115.056137) scale(0.1 -0.1)">
       <use xlink:href="#CMSY10-0" transform="scale(0.996264)"/>
       <use xlink:href="#CMR17-35" transform="translate(77.487468 0) scale(0.996264)"/>
      </g>
     </g>
    </g>
    <g id="ytick_4">
     <g id="line2d_23">
      <path d="M 48.367091 79.151008 
L 421.2 79.151008 
" clip-path="url(#pc3df238186)" style="fill: none; stroke: #b0b0b0; stroke-width: 0.8; stroke-linecap: square"/>
     </g>
     <g id="line2d_24">
      <g>
       <use xlink:href="#me44d7ae89a" x="48.367091" y="79.151008" style="stroke: #000000; stroke-width: 0.8"/>
      </g>
     </g>
     <g id="text_13">
      <!-- $\mathdefault{0}$ -->
      <g transform="translate(36.385756 82.610257) scale(0.1 -0.1)">
       <use xlink:href="#CMR17-30" transform="scale(0.996264)"/>
      </g>
     </g>
    </g>
    <g id="ytick_5">
     <g id="line2d_25">
      <path d="M 48.367091 46.705129 
L 421.2 46.705129 
" clip-path="url(#pc3df238186)" style="fill: none; stroke: #b0b0b0; stroke-width: 0.8; stroke-linecap: square"/>
     </g>
     <g id="line2d_26">
      <g>
       <use xlink:href="#me44d7ae89a" x="48.367091" y="46.705129" style="stroke: #000000; stroke-width: 0.8"/>
      </g>
     </g>
     <g id="text_14">
      <!-- $\mathdefault{5}$ -->
      <g transform="translate(36.385756 50.164378) scale(0.1 -0.1)">
       <use xlink:href="#CMR17-35" transform="scale(0.996264)"/>
      </g>
     </g>
    </g>
    <g id="ytick_6">
     <g id="line2d_27">
      <path d="M 48.367091 14.259249 
L 421.2 14.259249 
" clip-path="url(#pc3df238186)" style="fill: none; stroke: #b0b0b0; stroke-width: 0.8; stroke-linecap: square"/>
     </g>
     <g id="line2d_28">
      <g>
       <use xlink:href="#me44d7ae89a" x="48.367091" y="14.259249" style="stroke: #000000; stroke-width: 0.8"/>
      </g>
     </g>
     <g id="text_15">
      <!-- $\mathdefault{10}$ -->
      <g transform="translate(31.40442 17.718498) scale(0.1 -0.1)">
       <use xlink:href="#CMR17-31" transform="scale(0.996264)"/>
       <use xlink:href="#CMR17-30" transform="translate(45.690477 0) scale(0.996264)"/>
      </g>
     </g>
    </g>
    <g id="text_16">
     <!-- $f$ -->
     <g transform="translate(17.718498 97.812732) rotate(-90) scale(0.1 -0.1)">
      <defs>
       <path id="CMMI12-66" d="M 2854 2566 
C 2982 2566 3034 2566 3034 2687 
C 3034 2752 2982 2752 2867 2752 
L 2349 2752 
C 2470 3398 2560 3846 2611 4051 
C 2650 4204 2784 4351 2950 4351 
C 3085 4351 3219 4294 3283 4236 
C 3034 4211 2957 4025 2957 3916 
C 2957 3788 3053 3712 3174 3712 
C 3302 3712 3494 3820 3494 4064 
C 3494 4332 3226 4480 2944 4480 
C 2669 4480 2400 4275 2272 4025 
C 2157 3801 2093 3573 1946 2752 
L 1517 2752 
C 1395 2752 1331 2752 1331 2636 
C 1331 2566 1370 2566 1498 2566 
L 1907 2566 
C 1792 1977 1530 545 1382 -132 
C 1274 -685 1178 -1152 858 -1152 
C 838 -1152 653 -1152 538 -1031 
C 864 -1005 864 -724 864 -717 
C 864 -589 768 -512 646 -512 
C 518 -512 326 -621 326 -865 
C 326 -1140 608 -1280 858 -1280 
C 1510 -1280 1779 -113 1850 203 
C 1965 691 2278 2376 2310 2566 
L 2854 2566 
z
" transform="scale(0.015625)"/>
      </defs>
      <use xlink:href="#CMMI12-66" transform="scale(0.996264)"/>
     </g>
    </g>
   </g>
   <g id="line2d_29">
    <path d="M 65.314041 6.212673 
L 68.737668 14.328734 
L 72.161295 21.778721 
L 75.584922 28.597252 
L 79.008549 34.818157 
L 82.432176 40.474498 
L 85.855797 45.598561 
L 89.279424 50.221852 
L 92.703051 54.375091 
L 96.126678 58.088223 
L 99.550305 61.390415 
L 102.973926 64.310057 
L 106.397553 66.874766 
L 109.82118 69.111367 
L 113.244807 71.045914 
L 116.668434 72.703682 
L 120.092061 74.109169 
L 123.515688 75.286091 
L 126.939315 76.257388 
L 130.362941 77.04522 
L 133.786568 77.670969 
L 137.21019 78.155239 
L 140.633816 78.517856 
L 144.057443 78.777865 
L 147.48107 78.953535 
L 150.904697 79.062354 
L 154.328324 79.121034 
L 157.751951 79.145508 
L 161.175572 79.150928 
L 164.599199 79.15167 
L 168.022826 79.161331 
L 171.446453 79.192729 
L 174.87008 79.257903 
L 178.293707 79.368115 
L 181.717334 79.533847 
L 185.140961 79.764803 
L 188.564588 80.069908 
L 191.988215 80.45731 
L 195.411842 80.934376 
L 198.835468 81.507697 
L 202.259095 82.183084 
L 205.682711 82.965566 
L 209.106338 83.859405 
L 212.529965 84.868071 
L 215.953592 85.994262 
L 219.377219 87.239898 
L 222.800845 88.606117 
L 226.224472 90.093282 
L 229.648099 91.700974 
L 233.071726 93.428 
L 236.495365 95.272391 
L 239.918992 97.231381 
L 243.342619 99.30145 
L 246.766245 101.478279 
L 250.189872 103.756785 
L 253.613499 106.131102 
L 257.037126 108.594582 
L 260.460753 111.139801 
L 263.88438 113.758558 
L 267.307996 116.441862 
L 270.731622 119.179981 
L 274.155249 121.962346 
L 277.578876 124.777664 
L 281.002503 127.613819 
L 284.42613 130.457967 
L 287.849757 133.2964 
L 291.273384 136.114757 
L 294.697011 138.89779 
L 298.120638 141.629507 
L 301.544265 144.293144 
L 304.967892 146.871168 
L 308.391519 149.345249 
L 311.815134 151.696296 
L 315.238773 153.904424 
L 318.662388 155.948926 
L 322.086026 157.808465 
L 325.509642 159.460736 
L 328.93328 160.882756 
L 332.356896 162.050797 
L 335.780523 162.940304 
L 339.204149 163.525865 
L 342.627776 163.781428 
L 346.051403 163.680158 
L 349.47503 163.194307 
L 352.898657 162.295456 
L 356.322296 160.95432 
L 359.745911 159.141122 
L 363.169526 156.824867 
L 366.593165 153.974045 
L 370.01678 150.556202 
L 373.440419 146.53849 
L 376.864034 141.886871 
L 380.287673 136.56659 
L 383.711288 130.542348 
L 387.134926 123.777806 
L 390.558542 116.23608 
L 393.98218 107.879147 
L 397.405796 98.668688 
L 400.829434 88.565195 
L 404.25305 77.528714 
" clip-path="url(#pc3df238186)" style="fill: none; stroke: #808080; stroke-width: 1.5; stroke-linecap: square"/>
   </g>
   <g id="line2d_30">
    <path d="M 65.314041 18.899011 
L 68.737668 23.37261 
L 72.161295 27.846209 
L 75.584922 32.319808 
L 79.008549 36.793407 
L 82.432176 41.267005 
L 85.855797 45.740598 
L 89.279424 50.214197 
L 92.703051 54.687798 
L 96.126678 59.161398 
L 99.550305 63.634997 
L 102.973926 68.108588 
L 106.397553 72.582187 
L 109.82118 77.055787 
L 113.244807 81.529386 
L 116.668434 86.002985 
L 120.092061 90.476584 
L 123.515688 94.950183 
L 126.939315 99.423782 
L 130.362941 103.897384 
L 133.786568 108.370983 
L 137.21019 112.844576 
L 140.633816 117.318175 
L 144.057443 121.791773 
L 147.48107 126.265372 
L 150.904697 130.738971 
L 154.328324 135.21257 
L 157.751951 139.686169 
L 161.175572 144.159762 
L 164.599199 148.633361 
L 168.022826 153.10696 
L 171.446453 157.580565 
L 174.87008 162.054164 
L 178.293707 166.527763 
L 181.717334 171.001361 
L 185.140961 175.47496 
L 188.564588 179.948559 
L 191.988215 184.422158 
L 195.411842 188.895757 
L 198.835468 193.369356 
L 202.259095 197.842955 
L 205.682711 202.316541 
L 209.106338 206.79014 
L 212.529965 211.263739 
L 215.953592 215.737338 
L 216.919901 217 
" clip-path="url(#pc3df238186)" style="fill: none; stroke-dasharray: 1.5,2.475; stroke-dashoffset: 0; stroke: #000000; stroke-width: 1.5"/>
   </g>
   <g id="line2d_31">
    <path d="M 65.314041 41.043323 
L 68.737668 42.385402 
L 72.161295 43.727484 
L 75.584922 45.069563 
L 79.008549 46.411642 
L 82.432176 47.753721 
L 85.855797 49.0958 
L 89.279424 50.43788 
L 92.703051 51.779959 
L 96.126678 53.122041 
L 99.550305 54.46412 
L 102.973926 55.806197 
L 106.397553 57.148276 
L 109.82118 58.490357 
L 113.244807 59.832436 
L 116.668434 61.174515 
L 120.092061 62.516596 
L 123.515688 63.858675 
L 126.939315 65.200755 
L 130.362941 66.542834 
L 133.786568 67.884915 
L 137.21019 69.226992 
L 140.633816 70.569072 
L 144.057443 71.911152 
L 147.48107 73.253231 
L 150.904697 74.595312 
L 154.328324 75.937391 
L 157.751951 77.27947 
L 161.175572 78.621549 
L 164.599199 79.963628 
L 168.022826 81.305707 
L 171.446453 82.647786 
L 174.87008 83.989868 
L 178.293707 85.331947 
L 181.717334 86.674026 
L 185.140961 88.016105 
L 188.564588 89.358188 
L 191.988215 90.700267 
L 195.411842 92.042346 
L 198.835468 93.384425 
L 202.259095 94.726507 
L 205.682711 96.06858 
L 209.106338 97.410662 
L 212.529965 98.752741 
L 215.953592 100.09482 
L 219.377219 101.436899 
L 222.800845 102.778981 
L 226.224472 104.121057 
L 229.648099 105.463139 
L 233.071726 106.805221 
L 236.495365 108.147304 
L 239.918992 109.489386 
L 243.342619 110.831462 
L 246.766245 112.173544 
L 250.189872 113.51562 
L 253.613499 114.857702 
L 257.037126 116.199784 
L 260.460753 117.54186 
L 263.88438 118.883942 
L 267.307996 120.226018 
L 270.731622 121.568094 
L 274.155249 122.910176 
L 277.578876 124.252258 
L 281.002503 125.594334 
L 284.42613 126.93641 
L 287.849757 128.278493 
L 291.273384 129.620581 
L 294.697011 130.962657 
L 298.120638 132.304733 
L 301.544265 133.646815 
L 304.967892 134.988897 
L 308.391519 136.330973 
L 311.815134 137.673049 
L 315.238773 139.015131 
L 318.662388 140.357207 
L 322.086026 141.699295 
L 325.509642 143.041365 
L 328.93328 144.383454 
L 332.356896 145.725529 
L 335.780523 147.067605 
L 339.204149 148.409688 
L 342.627776 149.75177 
L 346.051403 151.093846 
L 349.47503 152.435922 
L 352.898657 153.778004 
L 356.322296 155.120092 
L 359.745911 156.462168 
L 363.169526 157.804244 
L 366.593165 159.14632 
L 370.01678 160.488396 
L 373.440419 161.830484 
L 376.864034 163.17256 
L 380.287673 164.514649 
L 383.711288 165.856725 
L 387.134926 167.198801 
L 390.558542 168.540877 
L 393.98218 169.882965 
L 397.405796 171.225041 
L 400.829434 172.567117 
L 404.25305 173.909193 
" clip-path="url(#pc3df238186)" style="fill: none; stroke: #000000; stroke-width: 1.5; stroke-linecap: square"/>
   </g>
   <g id="line2d_32">
    <defs>
     <path id="mab97a5f426" d="M 0 3 
C 0.795609 3 1.55874 2.683901 2.12132 2.12132 
C 2.683901 1.55874 3 0.795609 3 0 
C 3 -0.795609 2.683901 -1.55874 2.12132 -2.12132 
C 1.55874 -2.683901 0.795609 -3 0 -3 
C -0.795609 -3 -1.55874 -2.683901 -2.12132 -2.12132 
C -2.683901 -1.55874 -3 -0.795609 -3 0 
C -3 0.795609 -2.683901 1.55874 -2.12132 2.12132 
C -1.55874 2.683901 -0.795609 3 0 3 
z
" style="stroke: #000000"/>
    </defs>
    <g clip-path="url(#pc3df238186)">
     <use xlink:href="#mab97a5f426" x="89.523971" y="50.533742" style="stroke: #000000"/>
    </g>
   </g>
   <g id="patch_5">
    <path d="M 48.367091 176.488647 
L 48.367091 14.259249 
" style="fill: none; stroke: #000000; stroke-width: 0.8; stroke-linejoin: miter; stroke-linecap: square"/>
   </g>
   <g id="patch_6">
    <path d="M 421.2 176.488647 
L 421.2 14.259249 
" style="fill: none; stroke: #000000; stroke-width: 0.8; stroke-linejoin: miter; stroke-linecap: square"/>
   </g>
   <g id="patch_7">
    <path d="M 48.367091 176.488647 
L 421.2 176.488647 
" style="fill: none; stroke: #000000; stroke-width: 0.8; stroke-linejoin: miter; stroke-linecap: square"/>
   </g>
   <g id="patch_8">
    <path d="M 48.367091 14.259249 
L 421.2 14.259249 
" style="fill: none; stroke: #000000; stroke-width: 0.8; stroke-linejoin: miter; stroke-linecap: square"/>
   </g>
   <g id="legend_1">
    <g id="patch_9">
     <path d="M 278.113426 69.119814 
L 414.2 69.119814 
Q 416.2 69.119814 416.2 67.119814 
L 416.2 21.259249 
Q 416.2 19.259249 414.2 19.259249 
L 278.113426 19.259249 
Q 276.113426 19.259249 276.113426 21.259249 
L 276.113426 67.119814 
Q 276.113426 69.119814 278.113426 69.119814 
z
" style="fill: #ffffff; opacity: 0.8; stroke: #cccccc; stroke-linejoin: miter"/>
    </g>
    <g id="line2d_33">
     <path d="M 280.113426 27.231229 
L 290.113426 27.231229 
L 300.113426 27.231229 
" style="fill: none; stroke: #808080; stroke-width: 1.5; stroke-linecap: square"/>
    </g>
    <g id="text_17">
     <!-- $f(x)$ -->
     <g transform="translate(308.113426 30.731229) scale(0.1 -0.1)">
      <defs>
       <path id="CMR17-28" d="M 1958 -1562 
C 1958 -1556 1958 -1543 1939 -1524 
C 1645 -1223 858 -403 858 1596 
C 858 3595 1632 4408 1946 4729 
C 1946 4735 1958 4748 1958 4767 
C 1958 4787 1939 4800 1914 4800 
C 1843 4800 1299 4325 986 3620 
C 666 2909 576 2218 576 1603 
C 576 1141 621 360 1005 -467 
C 1312 -1133 1837 -1600 1914 -1600 
C 1946 -1600 1958 -1588 1958 -1562 
z
" transform="scale(0.015625)"/>
       <path id="CMR17-29" d="M 1683 1596 
C 1683 2057 1638 2839 1254 3665 
C 947 4332 422 4800 346 4800 
C 326 4800 301 4793 301 4761 
C 301 4748 307 4742 314 4729 
C 621 4408 1402 3595 1402 1603 
C 1402 -396 627 -1210 314 -1530 
C 307 -1543 301 -1549 301 -1562 
C 301 -1594 326 -1600 346 -1600 
C 416 -1600 960 -1127 1274 -422 
C 1594 289 1683 981 1683 1596 
z
" transform="scale(0.015625)"/>
      </defs>
      <use xlink:href="#CMMI12-66" transform="scale(0.996264)"/>
      <use xlink:href="#CMR17-28" transform="translate(58.720305 0) scale(0.996264)"/>
      <use xlink:href="#CMMI12-78" transform="translate(94.001073 0) scale(0.996264)"/>
      <use xlink:href="#CMR17-29" transform="translate(149.435132 0) scale(0.996264)"/>
     </g>
    </g>
    <g id="line2d_34">
     <path d="M 280.113426 43.180191 
L 290.113426 43.180191 
L 300.113426 43.180191 
" style="fill: none; stroke-dasharray: 1.5,2.475; stroke-dashoffset: 0; stroke: #000000; stroke-width: 1.5"/>
    </g>
    <g id="text_18">
     <!-- $f(x^k) + f'(x^k) (x-x^k)$ -->
     <g transform="translate(308.113426 46.680191) scale(0.1 -0.1)">
      <defs>
       <path id="CMMI12-6b" d="M 1798 4255 
C 1805 4281 1818 4319 1818 4351 
C 1818 4416 1754 4416 1741 4416 
C 1734 4416 1504 4396 1389 4383 
C 1280 4377 1184 4364 1069 4358 
C 915 4345 870 4339 870 4223 
C 870 4159 934 4159 998 4159 
C 1325 4159 1325 4103 1325 4040 
C 1325 4014 1325 4002 1293 3888 
L 378 250 
C 352 153 352 141 352 102 
C 352 -39 461 -64 525 -64 
C 704 -64 742 76 794 275 
L 1094 1476 
C 1555 1425 1830 1232 1830 924 
C 1830 885 1830 860 1811 763 
C 1786 667 1786 590 1786 558 
C 1786 185 2029 -64 2355 -64 
C 2650 -64 2803 205 2854 295 
C 2989 532 3072 892 3072 917 
C 3072 949 3046 975 3008 975 
C 2950 975 2944 949 2918 847 
C 2829 513 2694 64 2368 64 
C 2240 64 2157 128 2157 372 
C 2157 494 2182 635 2208 731 
C 2234 847 2234 853 2234 930 
C 2234 1309 1894 1521 1306 1598 
C 1536 1739 1766 1989 1856 2086 
C 2221 2495 2470 2687 2765 2687 
C 2912 2687 2950 2655 2995 2624 
C 2758 2598 2669 2431 2669 2303 
C 2669 2150 2790 2099 2880 2099 
C 3053 2099 3206 2246 3206 2451 
C 3206 2634 3059 2816 2771 2816 
C 2419 2816 2131 2579 1677 2067 
C 1613 1989 1376 1746 1139 1656 
L 1798 4255 
z
" transform="scale(0.015625)"/>
       <path id="CMR17-2b" d="M 2413 1472 
L 4109 1472 
C 4198 1472 4307 1472 4307 1580 
C 4307 1696 4205 1696 4109 1696 
L 2413 1696 
L 2413 3385 
C 2413 3475 2413 3584 2304 3584 
C 2189 3584 2189 3481 2189 3385 
L 2189 1696 
L 493 1696 
C 403 1696 294 1696 294 1587 
C 294 1472 397 1472 493 1472 
L 2189 1472 
L 2189 -194 
C 2189 -282 2189 -391 2298 -391 
C 2413 -391 2413 -289 2413 -194 
L 2413 1472 
z
" transform="scale(0.015625)"/>
       <path id="CMSY10-30" d="M 1619 3048 
C 1651 3125 1677 3182 1677 3246 
C 1677 3430 1510 3584 1312 3584 
C 1133 3584 1018 3462 973 3297 
L 211 517 
C 211 505 186 435 186 428 
C 186 358 352 313 403 313 
C 442 313 448 332 486 415 
L 1619 3048 
z
" transform="scale(0.015625)"/>
      </defs>
      <use xlink:href="#CMMI12-66" transform="scale(0.996264)"/>
      <use xlink:href="#CMR17-28" transform="translate(58.720305 0) scale(0.996264)"/>
      <use xlink:href="#CMMI12-78" transform="translate(94.001073 0) scale(0.996264)"/>
      <use xlink:href="#CMMI12-6b" transform="translate(149.435132 36.153639) scale(0.697382)"/>
      <use xlink:href="#CMR17-29" transform="translate(187.788515 0) scale(0.996264)"/>
      <use xlink:href="#CMR17-2b" transform="translate(245.208489 0) scale(0.996264)"/>
      <use xlink:href="#CMMI12-66" transform="translate(339.062485 0) scale(0.996264)"/>
      <use xlink:href="#CMSY10-30" transform="translate(397.78279 36.153639) scale(0.697382)"/>
      <use xlink:href="#CMR17-28" transform="translate(417.458882 0) scale(0.996264)"/>
      <use xlink:href="#CMMI12-78" transform="translate(452.73965 0) scale(0.996264)"/>
      <use xlink:href="#CMMI12-6b" transform="translate(508.17371 36.153639) scale(0.697382)"/>
      <use xlink:href="#CMR17-29" transform="translate(546.527092 0) scale(0.996264)"/>
      <use xlink:href="#CMR17-28" transform="translate(581.80786 0) scale(0.996264)"/>
      <use xlink:href="#CMMI12-78" transform="translate(617.088628 0) scale(0.996264)"/>
      <use xlink:href="#CMSY10-0" transform="translate(694.661894 0) scale(0.996264)"/>
      <use xlink:href="#CMMI12-78" transform="translate(794.288569 0) scale(0.996264)"/>
      <use xlink:href="#CMMI12-6b" transform="translate(849.722628 36.153639) scale(0.697382)"/>
      <use xlink:href="#CMR17-29" transform="translate(888.076011 0) scale(0.996264)"/>
     </g>
    </g>
    <g id="line2d_35">
     <path d="M 280.113426 59.129154 
L 290.113426 59.129154 
L 300.113426 59.129154 
" style="fill: none; stroke: #000000; stroke-width: 1.5; stroke-linecap: square"/>
    </g>
    <g id="text_19">
     <!-- $f(x^k) + c f'(x^k) (x-x^k)$ -->
     <g transform="translate(308.113426 62.629154) scale(0.1 -0.1)">
      <defs>
       <path id="CMMI12-63" d="M 2502 2432 
C 2381 2432 2323 2432 2234 2355 
C 2195 2323 2125 2227 2125 2124 
C 2125 1996 2221 1919 2342 1919 
C 2496 1919 2669 2047 2669 2303 
C 2669 2591 2374 2816 1933 2816 
C 1094 2816 256 1932 256 1011 
C 256 446 602 -64 1254 -64 
C 2125 -64 2675 622 2675 706 
C 2675 745 2637 777 2611 777 
C 2592 777 2586 771 2528 712 
C 2118 161 1510 64 1267 64 
C 826 64 685 453 685 777 
C 685 1004 794 1634 1024 2073 
C 1190 2374 1536 2687 1939 2687 
C 2022 2687 2374 2676 2502 2432 
z
" transform="scale(0.015625)"/>
      </defs>
      <use xlink:href="#CMMI12-66" transform="scale(0.996264)"/>
      <use xlink:href="#CMR17-28" transform="translate(58.720305 0) scale(0.996264)"/>
      <use xlink:href="#CMMI12-78" transform="translate(94.001073 0) scale(0.996264)"/>
      <use xlink:href="#CMMI12-6b" transform="translate(149.435132 36.153639) scale(0.697382)"/>
      <use xlink:href="#CMR17-29" transform="translate(187.788515 0) scale(0.996264)"/>
      <use xlink:href="#CMR17-2b" transform="translate(245.208489 0) scale(0.996264)"/>
      <use xlink:href="#CMMI12-63" transform="translate(339.062485 0) scale(0.996264)"/>
      <use xlink:href="#CMMI12-66" transform="translate(381.045718 0) scale(0.996264)"/>
      <use xlink:href="#CMSY10-30" transform="translate(439.766023 36.153639) scale(0.697382)"/>
      <use xlink:href="#CMR17-28" transform="translate(459.442116 0) scale(0.996264)"/>
      <use xlink:href="#CMMI12-78" transform="translate(494.722884 0) scale(0.996264)"/>
      <use xlink:href="#CMMI12-6b" transform="translate(550.156943 36.153639) scale(0.697382)"/>
      <use xlink:href="#CMR17-29" transform="translate(588.510326 0) scale(0.996264)"/>
      <use xlink:href="#CMR17-28" transform="translate(623.791093 0) scale(0.996264)"/>
      <use xlink:href="#CMMI12-78" transform="translate(659.071861 0) scale(0.996264)"/>
      <use xlink:href="#CMSY10-0" transform="translate(736.645128 0) scale(0.996264)"/>
      <use xlink:href="#CMMI12-78" transform="translate(836.271802 0) scale(0.996264)"/>
      <use xlink:href="#CMMI12-6b" transform="translate(891.705862 36.153639) scale(0.697382)"/>
      <use xlink:href="#CMR17-29" transform="translate(930.059244 0) scale(0.996264)"/>
     </g>
    </g>
   </g>
  </g>
 </g>
 <defs>
  <clipPath id="pc3df238186">
   <rect x="48.367091" y="14.259249" width="372.832909" height="162.229397"/>
  </clipPath>
 </defs>
</svg>
