<?xml version="1.0" encoding="utf-8" standalone="no"?>
<!DOCTYPE svg PUBLIC "-//W3C//DTD SVG 1.1//EN"
  "http://www.w3.org/Graphics/SVG/1.1/DTD/svg11.dtd">
<svg xmlns:xlink="http://www.w3.org/1999/xlink" width="371.52pt" height="103.68pt" viewBox="0 0 371.52 103.68" xmlns="http://www.w3.org/2000/svg" version="1.1">
 <metadata>
  <rdf:RDF xmlns:dc="http://purl.org/dc/elements/1.1/" xmlns:cc="http://creativecommons.org/ns#" xmlns:rdf="http://www.w3.org/1999/02/22-rdf-syntax-ns#">
   <cc:Work>
    <dc:type rdf:resource="http://purl.org/dc/dcmitype/StillImage"/>
    <dc:date>2024-03-08T16:00:00.931656</dc:date>
    <dc:format>image/svg+xml</dc:format>
    <dc:creator>
     <cc:Agent>
      <dc:title>Matplotlib v3.6.3, https://matplotlib.org/</dc:title>
     </cc:Agent>
    </dc:creator>
   </cc:Work>
  </rdf:RDF>
 </metadata>
 <defs>
  <style type="text/css">*{stroke-linejoin: round; stroke-linecap: butt}</style>
 </defs>
 <g id="figure_1">
  <g id="patch_1">
   <path d="M 0 103.68 
L 371.52 103.68 
L 371.52 -0 
L 0 -0 
L 0 103.68 
z
" style="fill: none"/>
  </g>
  <g id="axes_1">
   <g id="PathCollection_1">
    <defs>
     <path id="m6d92deecd7" d="M 0 3 
C 0.795609 3 1.55874 2.683901 2.12132 2.12132 
C 2.683901 1.55874 3 0.795609 3 0 
C 3 -0.795609 2.683901 -1.55874 2.12132 -2.12132 
C 1.55874 -2.683901 0.795609 -3 0 -3 
C -0.795609 -3 -1.55874 -2.683901 -2.12132 -2.12132 
C -2.683901 -1.55874 -3 -0.795609 -3 0 
C -3 0.795609 -2.683901 1.55874 -2.12132 2.12132 
C -1.55874 2.683901 -0.795609 3 0 3 
z
" style="stroke: #000000"/>
    </defs>
    <g clip-path="url(#p3601cab42d)">
     <use xlink:href="#m6d92deecd7" x="36.96" y="66.72" style="stroke: #000000"/>
     <use xlink:href="#m6d92deecd7" x="55.56" y="66.72" style="stroke: #000000"/>
     <use xlink:href="#m6d92deecd7" x="74.16" y="66.72" style="stroke: #000000"/>
     <use xlink:href="#m6d92deecd7" x="92.76" y="66.72" style="stroke: #000000"/>
     <use xlink:href="#m6d92deecd7" x="111.36" y="66.72" style="stroke: #000000"/>
     <use xlink:href="#m6d92deecd7" x="129.96" y="66.72" style="stroke: #000000"/>
     <use xlink:href="#m6d92deecd7" x="148.56" y="66.72" style="stroke: #000000"/>
     <use xlink:href="#m6d92deecd7" x="167.16" y="66.72" style="stroke: #000000"/>
     <use xlink:href="#m6d92deecd7" x="185.76" y="66.72" style="stroke: #000000"/>
     <use xlink:href="#m6d92deecd7" x="204.36" y="66.72" style="stroke: #000000"/>
     <use xlink:href="#m6d92deecd7" x="222.96" y="66.72" style="stroke: #000000"/>
     <use xlink:href="#m6d92deecd7" x="241.56" y="66.72" style="stroke: #000000"/>
     <use xlink:href="#m6d92deecd7" x="260.16" y="66.72" style="stroke: #000000"/>
     <use xlink:href="#m6d92deecd7" x="278.76" y="66.72" style="stroke: #000000"/>
     <use xlink:href="#m6d92deecd7" x="297.36" y="66.72" style="stroke: #000000"/>
     <use xlink:href="#m6d92deecd7" x="315.96" y="66.72" style="stroke: #000000"/>
     <use xlink:href="#m6d92deecd7" x="334.56" y="66.72" style="stroke: #000000"/>
     <use xlink:href="#m6d92deecd7" x="36.96" y="36.96" style="stroke: #000000"/>
     <use xlink:href="#m6d92deecd7" x="55.56" y="36.96" style="stroke: #000000"/>
     <use xlink:href="#m6d92deecd7" x="74.16" y="36.96" style="stroke: #000000"/>
     <use xlink:href="#m6d92deecd7" x="92.76" y="36.96" style="stroke: #000000"/>
     <use xlink:href="#m6d92deecd7" x="111.36" y="36.96" style="stroke: #000000"/>
     <use xlink:href="#m6d92deecd7" x="129.96" y="36.96" style="stroke: #000000"/>
     <use xlink:href="#m6d92deecd7" x="148.56" y="36.96" style="stroke: #000000"/>
     <use xlink:href="#m6d92deecd7" x="167.16" y="36.96" style="stroke: #000000"/>
     <use xlink:href="#m6d92deecd7" x="185.76" y="36.96" style="stroke: #000000"/>
     <use xlink:href="#m6d92deecd7" x="204.36" y="36.96" style="stroke: #000000"/>
     <use xlink:href="#m6d92deecd7" x="222.96" y="36.96" style="stroke: #000000"/>
     <use xlink:href="#m6d92deecd7" x="241.56" y="36.96" style="stroke: #000000"/>
     <use xlink:href="#m6d92deecd7" x="260.16" y="36.96" style="stroke: #000000"/>
     <use xlink:href="#m6d92deecd7" x="278.76" y="36.96" style="stroke: #000000"/>
     <use xlink:href="#m6d92deecd7" x="297.36" y="36.96" style="stroke: #000000"/>
     <use xlink:href="#m6d92deecd7" x="315.96" y="36.96" style="stroke: #000000"/>
     <use xlink:href="#m6d92deecd7" x="334.56" y="36.96" style="stroke: #000000"/>
    </g>
   </g>
   <g id="patch_2">
    <path d="M 55.56 86.064 
L 51.096 72.672 
L 54.072 72.672 
L 54.072 66.72 
L 57.048 66.72 
L 57.048 72.672 
L 60.024 72.672 
z
" clip-path="url(#p3601cab42d)" style="fill: #808080; stroke: #000000; stroke-linejoin: miter"/>
   </g>
   <g id="patch_3">
    <path d="M 74.16 86.064 
L 69.696 72.672 
L 72.672 72.672 
L 72.672 66.72 
L 75.648 66.72 
L 75.648 72.672 
L 78.624 72.672 
z
" clip-path="url(#p3601cab42d)" style="fill: #808080; stroke: #000000; stroke-linejoin: miter"/>
   </g>
   <g id="patch_4">
    <path d="M 92.76 86.064 
L 88.296 72.672 
L 91.272 72.672 
L 91.272 66.72 
L 94.248 66.72 
L 94.248 72.672 
L 97.224 72.672 
z
" clip-path="url(#p3601cab42d)" style="fill: #808080; stroke: #000000; stroke-linejoin: miter"/>
   </g>
   <g id="patch_5">
    <path d="M 111.36 86.064 
L 106.896 72.672 
L 109.872 72.672 
L 109.872 66.72 
L 112.848 66.72 
L 112.848 72.672 
L 115.824 72.672 
z
" clip-path="url(#p3601cab42d)" style="fill: #808080; stroke: #000000; stroke-linejoin: miter"/>
   </g>
   <g id="patch_6">
    <path d="M 129.96 86.064 
L 125.496 72.672 
L 128.472 72.672 
L 128.472 66.72 
L 131.448 66.72 
L 131.448 72.672 
L 134.424 72.672 
z
" clip-path="url(#p3601cab42d)" style="fill: #808080; stroke: #000000; stroke-linejoin: miter"/>
   </g>
   <g id="patch_7">
    <path d="M 148.56 86.064 
L 144.096 72.672 
L 147.072 72.672 
L 147.072 66.72 
L 150.048 66.72 
L 150.048 72.672 
L 153.024 72.672 
z
" clip-path="url(#p3601cab42d)" style="fill: #808080; stroke: #000000; stroke-linejoin: miter"/>
   </g>
   <g id="patch_8">
    <path d="M 167.16 86.064 
L 162.696 72.672 
L 165.672 72.672 
L 165.672 66.72 
L 168.648 66.72 
L 168.648 72.672 
L 171.624 72.672 
z
" clip-path="url(#p3601cab42d)" style="fill: #808080; stroke: #000000; stroke-linejoin: miter"/>
   </g>
   <g id="patch_9">
    <path d="M 185.76 86.064 
L 181.296 72.672 
L 184.272 72.672 
L 184.272 66.72 
L 187.248 66.72 
L 187.248 72.672 
L 190.224 72.672 
z
" clip-path="url(#p3601cab42d)" style="fill: #808080; stroke: #000000; stroke-linejoin: miter"/>
   </g>
   <g id="patch_10">
    <path d="M 204.36 86.064 
L 199.896 72.672 
L 202.872 72.672 
L 202.872 66.72 
L 205.848 66.72 
L 205.848 72.672 
L 208.824 72.672 
z
" clip-path="url(#p3601cab42d)" style="fill: #808080; stroke: #000000; stroke-linejoin: miter"/>
   </g>
   <g id="patch_11">
    <path d="M 222.96 86.064 
L 218.496 72.672 
L 221.472 72.672 
L 221.472 66.72 
L 224.448 66.72 
L 224.448 72.672 
L 227.424 72.672 
z
" clip-path="url(#p3601cab42d)" style="fill: #808080; stroke: #000000; stroke-linejoin: miter"/>
   </g>
   <g id="patch_12">
    <path d="M 241.56 86.064 
L 237.096 72.672 
L 240.072 72.672 
L 240.072 66.72 
L 243.048 66.72 
L 243.048 72.672 
L 246.024 72.672 
z
" clip-path="url(#p3601cab42d)" style="fill: #808080; stroke: #000000; stroke-linejoin: miter"/>
   </g>
   <g id="patch_13">
    <path d="M 260.16 86.064 
L 255.696 72.672 
L 258.672 72.672 
L 258.672 66.72 
L 261.648 66.72 
L 261.648 72.672 
L 264.624 72.672 
z
" clip-path="url(#p3601cab42d)" style="fill: #808080; stroke: #000000; stroke-linejoin: miter"/>
   </g>
   <g id="patch_14">
    <path d="M 278.76 86.064 
L 274.296 72.672 
L 277.272 72.672 
L 277.272 66.72 
L 280.248 66.72 
L 280.248 72.672 
L 283.224 72.672 
z
" clip-path="url(#p3601cab42d)" style="fill: #808080; stroke: #000000; stroke-linejoin: miter"/>
   </g>
   <g id="patch_15">
    <path d="M 297.36 86.064 
L 292.896 72.672 
L 295.872 72.672 
L 295.872 66.72 
L 298.848 66.72 
L 298.848 72.672 
L 301.824 72.672 
z
" clip-path="url(#p3601cab42d)" style="fill: #808080; stroke: #000000; stroke-linejoin: miter"/>
   </g>
   <g id="patch_16">
    <path d="M 315.96 86.064 
L 311.496 72.672 
L 314.472 72.672 
L 314.472 66.72 
L 317.448 66.72 
L 317.448 72.672 
L 320.424 72.672 
z
" clip-path="url(#p3601cab42d)" style="fill: #808080; stroke: #000000; stroke-linejoin: miter"/>
   </g>
   <g id="line2d_1">
    <path d="M 36.96 66.72 
L 55.56 66.72 
" clip-path="url(#p3601cab42d)" style="fill: none; stroke: #000000; stroke-width: 1.644461; stroke-linecap: square"/>
   </g>
   <g id="line2d_2">
    <path d="M 36.96 36.96 
L 55.56 36.96 
" clip-path="url(#p3601cab42d)" style="fill: none; stroke: #000000; stroke-width: 0.247138; stroke-linecap: square"/>
   </g>
   <g id="line2d_3">
    <path d="M 55.56 66.72 
L 74.16 66.72 
" clip-path="url(#p3601cab42d)" style="fill: none; stroke: #000000; stroke-width: 2.106877; stroke-linecap: square"/>
   </g>
   <g id="line2d_4">
    <path d="M 55.56 36.96 
L 74.16 36.96 
" clip-path="url(#p3601cab42d)" style="fill: none; stroke: #000000; stroke-width: 3.261044; stroke-linecap: square"/>
   </g>
   <g id="line2d_5">
    <path d="M 74.16 66.72 
L 92.76 66.72 
" clip-path="url(#p3601cab42d)" style="fill: none; stroke: #000000; stroke-width: 4.536104; stroke-linecap: square"/>
   </g>
   <g id="line2d_6">
    <path d="M 74.16 36.96 
L 92.76 36.96 
" clip-path="url(#p3601cab42d)" style="fill: none; stroke: #000000; stroke-width: 3.86048; stroke-linecap: square"/>
   </g>
   <g id="line2d_7">
    <path d="M 92.76 66.72 
L 111.36 66.72 
" clip-path="url(#p3601cab42d)" style="fill: none; stroke: #000000; stroke-width: 5.083582; stroke-linecap: square"/>
   </g>
   <g id="line2d_8">
    <path d="M 92.76 36.96 
L 111.36 36.96 
" clip-path="url(#p3601cab42d)" style="fill: none; stroke: #000000; stroke-width: 5.815719; stroke-linecap: square"/>
   </g>
   <g id="line2d_9">
    <path d="M 111.36 66.72 
L 129.96 66.72 
" clip-path="url(#p3601cab42d)" style="fill: none; stroke: #000000; stroke-width: 6.604015; stroke-linecap: square"/>
   </g>
   <g id="line2d_10">
    <path d="M 111.36 36.96 
L 129.96 36.96 
" clip-path="url(#p3601cab42d)" style="fill: none; stroke: #000000; stroke-width: 6.311782; stroke-linecap: square"/>
   </g>
   <g id="line2d_11">
    <path d="M 129.96 66.72 
L 148.56 66.72 
" clip-path="url(#p3601cab42d)" style="fill: none; stroke: #000000; stroke-width: 7.008999; stroke-linecap: square"/>
   </g>
   <g id="line2d_12">
    <path d="M 129.96 36.96 
L 148.56 36.96 
" clip-path="url(#p3601cab42d)" style="fill: none; stroke: #000000; stroke-width: 7.394562; stroke-linecap: square"/>
   </g>
   <g id="line2d_13">
    <path d="M 148.56 66.72 
L 167.16 66.72 
" clip-path="url(#p3601cab42d)" style="fill: none; stroke: #000000; stroke-width: 7.689427; stroke-linecap: square"/>
   </g>
   <g id="line2d_14">
    <path d="M 148.56 36.96 
L 167.16 36.96 
" clip-path="url(#p3601cab42d)" style="fill: none; stroke: #000000; stroke-width: 7.721425; stroke-linecap: square"/>
   </g>
   <g id="line2d_15">
    <path d="M 167.16 66.72 
L 185.76 66.72 
" clip-path="url(#p3601cab42d)" style="fill: none; stroke: #000000; stroke-width: 7.925651; stroke-linecap: square"/>
   </g>
   <g id="line2d_16">
    <path d="M 167.16 36.96 
L 185.76 36.96 
" clip-path="url(#p3601cab42d)" style="fill: none; stroke: #000000; stroke-width: 7.99994; stroke-linecap: square"/>
   </g>
   <g id="line2d_17">
    <path d="M 185.76 66.72 
L 204.36 66.72 
" clip-path="url(#p3601cab42d)" style="fill: none; stroke: #000000; stroke-width: 7.925591; stroke-linecap: square"/>
   </g>
   <g id="line2d_18">
    <path d="M 185.76 36.96 
L 204.36 36.96 
" clip-path="url(#p3601cab42d)" style="fill: none; stroke: #000000; stroke-width: 8; stroke-linecap: square"/>
   </g>
   <g id="line2d_19">
    <path d="M 204.36 66.72 
L 222.96 66.72 
" clip-path="url(#p3601cab42d)" style="fill: none; stroke: #000000; stroke-width: 7.68965; stroke-linecap: square"/>
   </g>
   <g id="line2d_20">
    <path d="M 204.36 36.96 
L 222.96 36.96 
" clip-path="url(#p3601cab42d)" style="fill: none; stroke: #000000; stroke-width: 7.721317; stroke-linecap: square"/>
   </g>
   <g id="line2d_21">
    <path d="M 222.96 66.72 
L 241.56 66.72 
" clip-path="url(#p3601cab42d)" style="fill: none; stroke: #000000; stroke-width: 7.002568; stroke-linecap: square"/>
   </g>
   <g id="line2d_22">
    <path d="M 222.96 36.96 
L 241.56 36.96 
" clip-path="url(#p3601cab42d)" style="fill: none; stroke: #000000; stroke-width: 7.394139; stroke-linecap: square"/>
   </g>
   <g id="line2d_23">
    <path d="M 241.56 66.72 
L 260.16 66.72 
" clip-path="url(#p3601cab42d)" style="fill: none; stroke: #000000; stroke-width: 6.602326; stroke-linecap: square"/>
   </g>
   <g id="line2d_24">
    <path d="M 241.56 36.96 
L 260.16 36.96 
" clip-path="url(#p3601cab42d)" style="fill: none; stroke: #000000; stroke-width: 6.31183; stroke-linecap: square"/>
   </g>
   <g id="line2d_25">
    <path d="M 260.16 66.72 
L 278.76 66.72 
" clip-path="url(#p3601cab42d)" style="fill: none; stroke: #000000; stroke-width: 5.086479; stroke-linecap: square"/>
   </g>
   <g id="line2d_26">
    <path d="M 260.16 36.96 
L 278.76 36.96 
" clip-path="url(#p3601cab42d)" style="fill: none; stroke: #000000; stroke-width: 5.815705; stroke-linecap: square"/>
   </g>
   <g id="line2d_27">
    <path d="M 278.76 66.72 
L 297.36 66.72 
" clip-path="url(#p3601cab42d)" style="fill: none; stroke: #000000; stroke-width: 4.542485; stroke-linecap: square"/>
   </g>
   <g id="line2d_28">
    <path d="M 278.76 36.96 
L 297.36 36.96 
" clip-path="url(#p3601cab42d)" style="fill: none; stroke: #000000; stroke-width: 3.860657; stroke-linecap: square"/>
   </g>
   <g id="line2d_29">
    <path d="M 297.36 66.72 
L 315.96 66.72 
" clip-path="url(#p3601cab42d)" style="fill: none; stroke: #000000; stroke-width: 2.119996; stroke-linecap: square"/>
   </g>
   <g id="line2d_30">
    <path d="M 297.36 36.96 
L 315.96 36.96 
" clip-path="url(#p3601cab42d)" style="fill: none; stroke: #000000; stroke-width: 3.284989; stroke-linecap: square"/>
   </g>
   <g id="line2d_31">
    <path d="M 315.96 66.72 
L 334.56 66.72 
" clip-path="url(#p3601cab42d)" style="fill: none; stroke: #000000; stroke-width: 1.661577; stroke-linecap: square"/>
   </g>
   <g id="line2d_32">
    <path d="M 315.96 36.96 
L 334.56 36.96 
" clip-path="url(#p3601cab42d)" style="fill: none; stroke: #000000; stroke-width: 0.247138; stroke-linecap: square"/>
   </g>
   <g id="line2d_33">
    <path d="M 36.96 66.72 
L 36.96 36.96 
" clip-path="url(#p3601cab42d)" style="fill: none; stroke: #000000; stroke-width: 0.372562; stroke-linecap: square"/>
   </g>
   <g id="line2d_34">
    <path d="M 55.56 66.72 
L 55.56 36.96 
" clip-path="url(#p3601cab42d)" style="fill: none; stroke: #000000; stroke-width: 0.37555; stroke-linecap: square"/>
   </g>
   <g id="line2d_35">
    <path d="M 74.16 66.72 
L 74.16 36.96 
" clip-path="url(#p3601cab42d)" style="fill: none; stroke: #000000; stroke-width: 0.247138; stroke-linecap: square"/>
   </g>
   <g id="line2d_36">
    <path d="M 92.76 66.72 
L 92.76 36.96 
" clip-path="url(#p3601cab42d)" style="fill: none; stroke: #000000; stroke-width: 0.247138; stroke-linecap: square"/>
   </g>
   <g id="line2d_37">
    <path d="M 111.36 66.72 
L 111.36 36.96 
" clip-path="url(#p3601cab42d)" style="fill: none; stroke: #000000; stroke-width: 0.247138; stroke-linecap: square"/>
   </g>
   <g id="line2d_38">
    <path d="M 129.96 66.72 
L 129.96 36.96 
" clip-path="url(#p3601cab42d)" style="fill: none; stroke: #000000; stroke-width: 0.247138; stroke-linecap: square"/>
   </g>
   <g id="line2d_39">
    <path d="M 148.56 66.72 
L 148.56 36.96 
" clip-path="url(#p3601cab42d)" style="fill: none; stroke: #000000; stroke-width: 0.247138; stroke-linecap: square"/>
   </g>
   <g id="line2d_40">
    <path d="M 167.16 66.72 
L 167.16 36.96 
" clip-path="url(#p3601cab42d)" style="fill: none; stroke: #000000; stroke-width: 0.247138; stroke-linecap: square"/>
   </g>
   <g id="line2d_41">
    <path d="M 185.76 66.72 
L 185.76 36.96 
" clip-path="url(#p3601cab42d)" style="fill: none; stroke: #000000; stroke-width: 0.247138; stroke-linecap: square"/>
   </g>
   <g id="line2d_42">
    <path d="M 204.36 66.72 
L 204.36 36.96 
" clip-path="url(#p3601cab42d)" style="fill: none; stroke: #000000; stroke-width: 0.247138; stroke-linecap: square"/>
   </g>
   <g id="line2d_43">
    <path d="M 222.96 66.72 
L 222.96 36.96 
" clip-path="url(#p3601cab42d)" style="fill: none; stroke: #000000; stroke-width: 0.247138; stroke-linecap: square"/>
   </g>
   <g id="line2d_44">
    <path d="M 241.56 66.72 
L 241.56 36.96 
" clip-path="url(#p3601cab42d)" style="fill: none; stroke: #000000; stroke-width: 0.247138; stroke-linecap: square"/>
   </g>
   <g id="line2d_45">
    <path d="M 260.16 66.72 
L 260.16 36.96 
" clip-path="url(#p3601cab42d)" style="fill: none; stroke: #000000; stroke-width: 0.247138; stroke-linecap: square"/>
   </g>
   <g id="line2d_46">
    <path d="M 278.76 66.72 
L 278.76 36.96 
" clip-path="url(#p3601cab42d)" style="fill: none; stroke: #000000; stroke-width: 0.247138; stroke-linecap: square"/>
   </g>
   <g id="line2d_47">
    <path d="M 297.36 66.72 
L 297.36 36.96 
" clip-path="url(#p3601cab42d)" style="fill: none; stroke: #000000; stroke-width: 0.247138; stroke-linecap: square"/>
   </g>
   <g id="line2d_48">
    <path d="M 315.96 66.72 
L 315.96 36.96 
" clip-path="url(#p3601cab42d)" style="fill: none; stroke: #000000; stroke-width: 0.40582; stroke-linecap: square"/>
   </g>
   <g id="line2d_49">
    <path d="M 334.56 66.72 
L 334.56 36.96 
" clip-path="url(#p3601cab42d)" style="fill: none; stroke: #000000; stroke-width: 0.342563; stroke-linecap: square"/>
   </g>
   <g id="line2d_50">
    <path d="M 36.96 66.72 
L 55.56 36.96 
" clip-path="url(#p3601cab42d)" style="fill: none; stroke: #000000; stroke-width: 3.103193; stroke-linecap: square"/>
   </g>
   <g id="line2d_51">
    <path d="M 55.56 66.72 
L 36.96 36.96 
" clip-path="url(#p3601cab42d)" style="fill: none; stroke: #000000; stroke-width: 0.437774; stroke-linecap: square"/>
   </g>
   <g id="line2d_52">
    <path d="M 55.56 66.72 
L 74.16 36.96 
" clip-path="url(#p3601cab42d)" style="fill: none; stroke: #000000; stroke-width: 0.508647; stroke-linecap: square"/>
   </g>
   <g id="line2d_53">
    <path d="M 74.16 66.72 
L 55.56 36.96 
" clip-path="url(#p3601cab42d)" style="fill: none; stroke: #000000; stroke-width: 2.623464; stroke-linecap: square"/>
   </g>
   <g id="line2d_54">
    <path d="M 74.16 66.72 
L 92.76 36.96 
" clip-path="url(#p3601cab42d)" style="fill: none; stroke: #000000; stroke-width: 1.958953; stroke-linecap: square"/>
   </g>
   <g id="line2d_55">
    <path d="M 92.76 66.72 
L 74.16 36.96 
" clip-path="url(#p3601cab42d)" style="fill: none; stroke: #000000; stroke-width: 0.634268; stroke-linecap: square"/>
   </g>
   <g id="line2d_56">
    <path d="M 92.76 66.72 
L 111.36 36.96 
" clip-path="url(#p3601cab42d)" style="fill: none; stroke: #000000; stroke-width: 0.337497; stroke-linecap: square"/>
   </g>
   <g id="line2d_57">
    <path d="M 111.36 66.72 
L 92.76 36.96 
" clip-path="url(#p3601cab42d)" style="fill: none; stroke: #000000; stroke-width: 1.777716; stroke-linecap: square"/>
   </g>
   <g id="line2d_58">
    <path d="M 111.36 66.72 
L 129.96 36.96 
" clip-path="url(#p3601cab42d)" style="fill: none; stroke: #000000; stroke-width: 1.124753; stroke-linecap: square"/>
   </g>
   <g id="line2d_59">
    <path d="M 129.96 66.72 
L 111.36 36.96 
" clip-path="url(#p3601cab42d)" style="fill: none; stroke: #000000; stroke-width: 0.52487; stroke-linecap: square"/>
   </g>
   <g id="line2d_60">
    <path d="M 129.96 66.72 
L 148.56 36.96 
" clip-path="url(#p3601cab42d)" style="fill: none; stroke: #000000; stroke-width: 0.247138; stroke-linecap: square"/>
   </g>
   <g id="line2d_61">
    <path d="M 148.56 66.72 
L 129.96 36.96 
" clip-path="url(#p3601cab42d)" style="fill: none; stroke: #000000; stroke-width: 0.947975; stroke-linecap: square"/>
   </g>
   <g id="line2d_62">
    <path d="M 148.56 66.72 
L 167.16 36.96 
" clip-path="url(#p3601cab42d)" style="fill: none; stroke: #000000; stroke-width: 0.32892; stroke-linecap: square"/>
   </g>
   <g id="line2d_63">
    <path d="M 167.16 66.72 
L 148.56 36.96 
" clip-path="url(#p3601cab42d)" style="fill: none; stroke: #000000; stroke-width: 0.379381; stroke-linecap: square"/>
   </g>
   <g id="line2d_64">
    <path d="M 167.16 66.72 
L 185.76 36.96 
" clip-path="url(#p3601cab42d)" style="fill: none; stroke: #000000; stroke-width: 0.247138; stroke-linecap: square"/>
   </g>
   <g id="line2d_65">
    <path d="M 185.76 66.72 
L 167.16 36.96 
" clip-path="url(#p3601cab42d)" style="fill: none; stroke: #000000; stroke-width: 0.247138; stroke-linecap: square"/>
   </g>
   <g id="line2d_66">
    <path d="M 185.76 66.72 
L 204.36 36.96 
" clip-path="url(#p3601cab42d)" style="fill: none; stroke: #000000; stroke-width: 0.247138; stroke-linecap: square"/>
   </g>
   <g id="line2d_67">
    <path d="M 204.36 66.72 
L 185.76 36.96 
" clip-path="url(#p3601cab42d)" style="fill: none; stroke: #000000; stroke-width: 0.247138; stroke-linecap: square"/>
   </g>
   <g id="line2d_68">
    <path d="M 204.36 66.72 
L 222.96 36.96 
" clip-path="url(#p3601cab42d)" style="fill: none; stroke: #000000; stroke-width: 0.379729; stroke-linecap: square"/>
   </g>
   <g id="line2d_69">
    <path d="M 222.96 66.72 
L 204.36 36.96 
" clip-path="url(#p3601cab42d)" style="fill: none; stroke: #000000; stroke-width: 0.328753; stroke-linecap: square"/>
   </g>
   <g id="line2d_70">
    <path d="M 222.96 66.72 
L 241.56 36.96 
" clip-path="url(#p3601cab42d)" style="fill: none; stroke: #000000; stroke-width: 0.945065; stroke-linecap: square"/>
   </g>
   <g id="line2d_71">
    <path d="M 241.56 66.72 
L 222.96 36.96 
" clip-path="url(#p3601cab42d)" style="fill: none; stroke: #000000; stroke-width: 0.247138; stroke-linecap: square"/>
   </g>
   <g id="line2d_72">
    <path d="M 241.56 66.72 
L 260.16 36.96 
" clip-path="url(#p3601cab42d)" style="fill: none; stroke: #000000; stroke-width: 0.538827; stroke-linecap: square"/>
   </g>
   <g id="line2d_73">
    <path d="M 260.16 66.72 
L 241.56 36.96 
" clip-path="url(#p3601cab42d)" style="fill: none; stroke: #000000; stroke-width: 1.119257; stroke-linecap: square"/>
   </g>
   <g id="line2d_74">
    <path d="M 260.16 66.72 
L 278.76 36.96 
" clip-path="url(#p3601cab42d)" style="fill: none; stroke: #000000; stroke-width: 1.772688; stroke-linecap: square"/>
   </g>
   <g id="line2d_75">
    <path d="M 278.76 66.72 
L 260.16 36.96 
" clip-path="url(#p3601cab42d)" style="fill: none; stroke: #000000; stroke-width: 0.353149; stroke-linecap: square"/>
   </g>
   <g id="line2d_76">
    <path d="M 278.76 66.72 
L 297.36 36.96 
" clip-path="url(#p3601cab42d)" style="fill: none; stroke: #000000; stroke-width: 0.693898; stroke-linecap: square"/>
   </g>
   <g id="line2d_77">
    <path d="M 297.36 66.72 
L 278.76 36.96 
" clip-path="url(#p3601cab42d)" style="fill: none; stroke: #000000; stroke-width: 1.960948; stroke-linecap: square"/>
   </g>
   <g id="line2d_78">
    <path d="M 297.36 66.72 
L 315.96 36.96 
" clip-path="url(#p3601cab42d)" style="fill: none; stroke: #000000; stroke-width: 2.653359; stroke-linecap: square"/>
   </g>
   <g id="line2d_79">
    <path d="M 315.96 66.72 
L 297.36 36.96 
" clip-path="url(#p3601cab42d)" style="fill: none; stroke: #000000; stroke-width: 0.501253; stroke-linecap: square"/>
   </g>
   <g id="line2d_80">
    <path d="M 315.96 66.72 
L 334.56 36.96 
" clip-path="url(#p3601cab42d)" style="fill: none; stroke: #000000; stroke-width: 0.401827; stroke-linecap: square"/>
   </g>
   <g id="line2d_81">
    <path d="M 334.56 66.72 
L 315.96 36.96 
" clip-path="url(#p3601cab42d)" style="fill: none; stroke: #000000; stroke-width: 3.135646; stroke-linecap: square"/>
   </g>
   <g id="line2d_82">
    <defs>
     <path id="m2f672b20f8" d="M 3 0 
L -3 -3 
L -3 3 
z
" style="stroke: #808080; stroke-linejoin: miter"/>
    </defs>
    <g clip-path="url(#p3601cab42d)">
     <use xlink:href="#m2f672b20f8" x="31.008" y="66.72" style="fill: #808080; stroke: #808080; stroke-linejoin: miter"/>
    </g>
   </g>
   <g id="line2d_83">
    <defs>
     <path id="md4d5ed84f9" d="M 0 -3 
L -3 3 
L 3 3 
z
" style="stroke: #808080; stroke-linejoin: miter"/>
    </defs>
    <g clip-path="url(#p3601cab42d)">
     <use xlink:href="#md4d5ed84f9" x="36.96" y="72.672" style="fill: #808080; stroke: #808080; stroke-linejoin: miter"/>
    </g>
   </g>
   <g id="line2d_84">
    <g clip-path="url(#p3601cab42d)">
     <use xlink:href="#md4d5ed84f9" x="334.56" y="72.672" style="fill: #808080; stroke: #808080; stroke-linejoin: miter"/>
    </g>
   </g>
  </g>
 </g>
 <defs>
  <clipPath id="p3601cab42d">
   <rect x="7.2" y="7.2" width="357.12" height="89.28"/>
  </clipPath>
 </defs>
</svg>
