<?xml version="1.0" encoding="utf-8" standalone="no"?>
<!DOCTYPE svg PUBLIC "-//W3C//DTD SVG 1.1//EN"
  "http://www.w3.org/Graphics/SVG/1.1/DTD/svg11.dtd">
<svg xmlns:xlink="http://www.w3.org/1999/xlink" width="604.176185pt" height="327.39581pt" viewBox="0 0 604.176185 327.39581" xmlns="http://www.w3.org/2000/svg" version="1.1">
 <metadata>
  <rdf:RDF xmlns:dc="http://purl.org/dc/elements/1.1/" xmlns:cc="http://creativecommons.org/ns#" xmlns:rdf="http://www.w3.org/1999/02/22-rdf-syntax-ns#">
   <cc:Work>
    <dc:type rdf:resource="http://purl.org/dc/dcmitype/StillImage"/>
    <dc:date>2024-03-08T19:26:04.663999</dc:date>
    <dc:format>image/svg+xml</dc:format>
    <dc:creator>
     <cc:Agent>
      <dc:title>Matplotlib v3.6.3, https://matplotlib.org/</dc:title>
     </cc:Agent>
    </dc:creator>
   </cc:Work>
  </rdf:RDF>
 </metadata>
 <defs>
  <style type="text/css">*{stroke-linejoin: round; stroke-linecap: butt}</style>
 </defs>
 <g id="figure_1">
  <g id="patch_1">
   <path d="M 0 327.39581 
L 604.176185 327.39581 
L 604.176185 0 
L 0 0 
L 0 327.39581 
z
" style="fill: none"/>
  </g>
  <g id="axes_1">
   <g id="patch_2">
    <path d="M 38.976185 284.4 
L 292.612548 284.4 
L 292.612548 7.2 
L 38.976185 7.2 
L 38.976185 284.4 
z
" style="fill: none"/>
   </g>
   <g id="PolyCollection_1">
    <path d="M 108.149738 271.8 
L 108.149738 114.3 
L 109.314276 113.701944 
L 110.478814 113.179465 
L 111.643352 112.731004 
L 112.80789 112.355004 
L 113.972428 112.049905 
L 115.136966 111.81415 
L 116.301504 111.64618 
L 117.466042 111.544437 
L 118.63058 111.507363 
L 119.795118 111.533399 
L 120.959656 111.620988 
L 122.124194 111.76857 
L 123.288732 111.974588 
L 124.45327 112.237483 
L 125.617808 112.555697 
L 126.782346 112.927673 
L 127.946883 113.35185 
L 129.111421 113.826672 
L 130.275959 114.350579 
L 131.440497 114.922014 
L 132.605035 115.539419 
L 133.769573 116.201235 
L 134.934111 116.905903 
L 136.098649 117.651866 
L 137.263187 118.437565 
L 138.427725 119.261442 
L 139.592263 120.121938 
L 140.756801 121.017496 
L 141.921339 121.946557 
L 143.085877 122.907563 
L 144.250415 123.898956 
L 145.414953 124.919176 
L 146.579491 125.966667 
L 147.744028 127.039869 
L 148.908566 128.137224 
L 150.073104 129.257175 
L 151.237642 130.398163 
L 152.40218 131.558629 
L 153.566718 132.737015 
L 154.731256 133.931763 
L 155.895794 135.141315 
L 157.060332 136.364112 
L 158.22487 137.598597 
L 159.389408 138.84321 
L 160.553946 140.096394 
L 161.718484 141.35659 
L 162.883022 142.62224 
L 164.04756 143.891786 
L 165.212098 145.163669 
L 166.376636 146.436331 
L 167.541173 147.708214 
L 168.705711 148.97776 
L 169.870249 150.24341 
L 171.034787 151.503606 
L 172.199325 152.75679 
L 173.363863 154.001403 
L 174.528401 155.235888 
L 175.692939 156.458685 
L 176.857477 157.668237 
L 178.022015 158.862985 
L 179.186553 160.041371 
L 180.351091 161.201837 
L 181.515629 162.342825 
L 182.680167 163.462776 
L 183.844705 164.560131 
L 185.009243 165.633333 
L 186.173781 166.680824 
L 187.338319 167.701044 
L 188.502856 168.692437 
L 189.667394 169.653443 
L 190.831932 170.582504 
L 191.99647 171.478062 
L 193.161008 172.338558 
L 194.325546 173.162435 
L 195.490084 173.948134 
L 196.654622 174.694097 
L 197.81916 175.398765 
L 198.983698 176.060581 
L 200.148236 176.677986 
L 201.312774 177.249421 
L 202.477312 177.773328 
L 203.64185 178.24815 
L 204.806388 178.672327 
L 205.970926 179.044303 
L 207.135464 179.362517 
L 208.300001 179.625412 
L 209.464539 179.83143 
L 210.629077 179.979012 
L 211.793615 180.066601 
L 212.958153 180.092637 
L 214.122691 180.055563 
L 215.287229 179.95382 
L 216.451767 179.78585 
L 217.616305 179.550095 
L 218.780843 179.244996 
L 219.945381 178.868996 
L 221.109919 178.420535 
L 222.274457 177.898056 
L 223.438995 177.3 
L 223.438995 271.8 
L 223.438995 271.8 
L 222.274457 271.8 
L 221.109919 271.8 
L 219.945381 271.8 
L 218.780843 271.8 
L 217.616305 271.8 
L 216.451767 271.8 
L 215.287229 271.8 
L 214.122691 271.8 
L 212.958153 271.8 
L 211.793615 271.8 
L 210.629077 271.8 
L 209.464539 271.8 
L 208.300001 271.8 
L 207.135464 271.8 
L 205.970926 271.8 
L 204.806388 271.8 
L 203.64185 271.8 
L 202.477312 271.8 
L 201.312774 271.8 
L 200.148236 271.8 
L 198.983698 271.8 
L 197.81916 271.8 
L 196.654622 271.8 
L 195.490084 271.8 
L 194.325546 271.8 
L 193.161008 271.8 
L 191.99647 271.8 
L 190.831932 271.8 
L 189.667394 271.8 
L 188.502856 271.8 
L 187.338319 271.8 
L 186.173781 271.8 
L 185.009243 271.8 
L 183.844705 271.8 
L 182.680167 271.8 
L 181.515629 271.8 
L 180.351091 271.8 
L 179.186553 271.8 
L 178.022015 271.8 
L 176.857477 271.8 
L 175.692939 271.8 
L 174.528401 271.8 
L 173.363863 271.8 
L 172.199325 271.8 
L 171.034787 271.8 
L 169.870249 271.8 
L 168.705711 271.8 
L 167.541173 271.8 
L 166.376636 271.8 
L 165.212098 271.8 
L 164.04756 271.8 
L 162.883022 271.8 
L 161.718484 271.8 
L 160.553946 271.8 
L 159.389408 271.8 
L 158.22487 271.8 
L 157.060332 271.8 
L 155.895794 271.8 
L 154.731256 271.8 
L 153.566718 271.8 
L 152.40218 271.8 
L 151.237642 271.8 
L 150.073104 271.8 
L 148.908566 271.8 
L 147.744028 271.8 
L 146.579491 271.8 
L 145.414953 271.8 
L 144.250415 271.8 
L 143.085877 271.8 
L 141.921339 271.8 
L 140.756801 271.8 
L 139.592263 271.8 
L 138.427725 271.8 
L 137.263187 271.8 
L 136.098649 271.8 
L 134.934111 271.8 
L 133.769573 271.8 
L 132.605035 271.8 
L 131.440497 271.8 
L 130.275959 271.8 
L 129.111421 271.8 
L 127.946883 271.8 
L 126.782346 271.8 
L 125.617808 271.8 
L 124.45327 271.8 
L 123.288732 271.8 
L 122.124194 271.8 
L 120.959656 271.8 
L 119.795118 271.8 
L 118.63058 271.8 
L 117.466042 271.8 
L 116.301504 271.8 
L 115.136966 271.8 
L 113.972428 271.8 
L 112.80789 271.8 
L 111.643352 271.8 
L 110.478814 271.8 
L 109.314276 271.8 
L 108.149738 271.8 
z
" clip-path="url(#p9c8a515430)" style="fill: #808080"/>
   </g>
   <g id="matplotlib.axis_1">
    <g id="xtick_1">
     <g id="line2d_1">
      <defs>
       <path id="m4d74ff29a3" d="M 0 0 
L 0 3.5 
" style="stroke: #000000; stroke-width: 0.8"/>
      </defs>
      <g>
       <use xlink:href="#m4d74ff29a3" x="50.50511" y="284.4" style="stroke: #000000; stroke-width: 0.8"/>
      </g>
     </g>
     <g id="text_1">
      <!-- $\mathdefault{0}$ -->
      <g transform="translate(47.090866 301.085876) scale(0.14 -0.14)">
       <defs>
        <path id="CMR17-30" d="M 2688 2038 
C 2688 2430 2682 3099 2413 3613 
C 2176 4063 1798 4224 1466 4224 
C 1158 4224 768 4082 525 3620 
C 269 3137 243 2539 243 2038 
C 243 1671 250 1112 448 623 
C 723 -39 1216 -128 1466 -128 
C 1760 -128 2208 -7 2470 604 
C 2662 1048 2688 1568 2688 2038 
z
M 1466 -26 
C 1056 -26 813 328 723 816 
C 653 1196 653 1749 653 2109 
C 653 2604 653 3015 736 3407 
C 858 3954 1216 4121 1466 4121 
C 1728 4121 2067 3947 2189 3420 
C 2272 3054 2278 2623 2278 2109 
C 2278 1691 2278 1176 2202 797 
C 2067 96 1690 -26 1466 -26 
z
" transform="scale(0.015625)"/>
       </defs>
       <use xlink:href="#CMR17-30" transform="scale(0.996264)"/>
      </g>
     </g>
    </g>
    <g id="xtick_2">
     <g id="line2d_2">
      <g>
       <use xlink:href="#m4d74ff29a3" x="108.149738" y="284.4" style="stroke: #000000; stroke-width: 0.8"/>
      </g>
     </g>
     <g id="text_2">
      <!-- $\mathdefault{1}$ -->
      <g transform="translate(104.735494 301.085876) scale(0.14 -0.14)">
       <defs>
        <path id="CMR17-31" d="M 1702 4083 
C 1702 4217 1696 4224 1606 4224 
C 1357 3927 979 3833 621 3820 
C 602 3820 570 3820 563 3808 
C 557 3795 557 3782 557 3648 
C 755 3648 1088 3686 1344 3839 
L 1344 467 
C 1344 243 1331 166 781 166 
L 589 166 
L 589 0 
C 896 6 1216 12 1523 12 
C 1830 12 2150 6 2458 0 
L 2458 166 
L 2266 166 
C 1715 166 1702 236 1702 467 
L 1702 4083 
z
" transform="scale(0.015625)"/>
       </defs>
       <use xlink:href="#CMR17-31" transform="scale(0.996264)"/>
      </g>
     </g>
    </g>
    <g id="xtick_3">
     <g id="line2d_3">
      <g>
       <use xlink:href="#m4d74ff29a3" x="165.794367" y="284.4" style="stroke: #000000; stroke-width: 0.8"/>
      </g>
     </g>
     <g id="text_3">
      <!-- $\mathdefault{2}$ -->
      <g transform="translate(162.380122 301.085876) scale(0.14 -0.14)">
       <defs>
        <path id="CMR17-32" d="M 2669 990 
L 2554 990 
C 2490 537 2438 460 2413 422 
C 2381 371 1920 371 1830 371 
L 602 371 
C 832 620 1280 1073 1824 1596 
C 2214 1966 2669 2400 2669 3033 
C 2669 3788 2067 4224 1395 4224 
C 691 4224 262 3603 262 3027 
C 262 2777 448 2745 525 2745 
C 589 2745 781 2783 781 3007 
C 781 3206 614 3264 525 3264 
C 486 3264 448 3257 422 3244 
C 544 3788 915 4057 1306 4057 
C 1862 4057 2227 3616 2227 3033 
C 2227 2477 1901 1998 1536 1583 
L 262 147 
L 262 0 
L 2515 0 
L 2669 990 
z
" transform="scale(0.015625)"/>
       </defs>
       <use xlink:href="#CMR17-32" transform="scale(0.996264)"/>
      </g>
     </g>
    </g>
    <g id="xtick_4">
     <g id="line2d_4">
      <g>
       <use xlink:href="#m4d74ff29a3" x="223.438995" y="284.4" style="stroke: #000000; stroke-width: 0.8"/>
      </g>
     </g>
     <g id="text_4">
      <!-- $\mathdefault{3}$ -->
      <g transform="translate(220.02475 301.085876) scale(0.14 -0.14)">
       <defs>
        <path id="CMR17-33" d="M 1414 2176 
C 1984 2176 2234 1673 2234 1094 
C 2234 322 1824 25 1453 25 
C 1114 25 563 193 390 691 
C 422 678 454 678 486 678 
C 640 678 755 780 755 947 
C 755 1132 614 1216 486 1216 
C 378 1216 211 1164 211 927 
C 211 335 787 -128 1466 -128 
C 2176 -128 2720 432 2720 1087 
C 2720 1718 2208 2176 1600 2246 
C 2086 2347 2554 2776 2554 3353 
C 2554 3856 2048 4224 1472 4224 
C 890 4224 378 3862 378 3347 
C 378 3123 544 3084 627 3084 
C 762 3084 877 3167 877 3334 
C 877 3500 762 3584 627 3584 
C 602 3584 570 3584 544 3571 
C 730 3999 1235 4076 1459 4076 
C 1683 4076 2106 3966 2106 3347 
C 2106 3167 2080 2851 1862 2574 
C 1670 2329 1453 2316 1242 2297 
C 1210 2297 1062 2284 1037 2284 
C 992 2278 966 2272 966 2227 
C 966 2182 973 2176 1101 2176 
L 1414 2176 
z
" transform="scale(0.015625)"/>
       </defs>
       <use xlink:href="#CMR17-33" transform="scale(0.996264)"/>
      </g>
     </g>
    </g>
    <g id="xtick_5">
     <g id="line2d_5">
      <g>
       <use xlink:href="#m4d74ff29a3" x="281.083623" y="284.4" style="stroke: #000000; stroke-width: 0.8"/>
      </g>
     </g>
     <g id="text_5">
      <!-- $\mathdefault{4}$ -->
      <g transform="translate(277.669378 301.085876) scale(0.14 -0.14)">
       <defs>
        <path id="CMR17-34" d="M 2150 4147 
C 2150 4281 2144 4288 2029 4288 
L 128 1254 
L 128 1088 
L 1779 1088 
L 1779 460 
C 1779 230 1766 166 1318 166 
L 1197 166 
L 1197 0 
C 1402 12 1747 12 1965 12 
C 2182 12 2528 12 2733 0 
L 2733 166 
L 2611 166 
C 2163 166 2150 230 2150 460 
L 2150 1088 
L 2803 1088 
L 2803 1254 
L 2150 1254 
L 2150 4147 
z
M 1798 3723 
L 1798 1254 
L 256 1254 
L 1798 3723 
z
" transform="scale(0.015625)"/>
       </defs>
       <use xlink:href="#CMR17-34" transform="scale(0.996264)"/>
      </g>
     </g>
    </g>
    <g id="text_6">
     <!-- $x$ -->
     <g transform="translate(161.913982 317.483781) scale(0.14 -0.14)">
      <defs>
       <path id="CMMI12-78" d="M 3034 2624 
C 2829 2585 2752 2431 2752 2310 
C 2752 2156 2874 2105 2963 2105 
C 3155 2105 3290 2271 3290 2444 
C 3290 2694 2982 2816 2714 2816 
C 2323 2816 2106 2451 2048 2329 
C 1901 2790 1504 2816 1389 2816 
C 736 2816 390 1993 390 1849 
C 390 1823 416 1790 461 1790 
C 512 1790 525 1829 538 1855 
C 755 2572 1184 2687 1370 2687 
C 1658 2687 1715 2438 1715 2284 
C 1715 2143 1677 1993 1600 1678 
L 1382 778 
C 1286 390 1101 64 762 64 
C 730 64 570 64 435 126 
C 666 166 717 358 717 435 
C 717 563 621 640 499 640 
C 346 640 179 505 179 300 
C 179 57 480 -64 755 -64 
C 1062 -64 1280 153 1414 415 
C 1517 64 1837 -64 2074 -64 
C 2726 -64 3072 751 3072 896 
C 3072 929 3046 955 3008 955 
C 2950 955 2944 922 2925 870 
C 2752 300 2381 64 2093 64 
C 1869 64 1747 204 1747 467 
C 1747 607 1773 712 1875 1146 
L 2099 2039 
C 2195 2425 2413 2687 2707 2687 
C 2720 2687 2899 2687 3034 2624 
z
" transform="scale(0.015625)"/>
      </defs>
      <use xlink:href="#CMMI12-78" transform="scale(0.996264)"/>
     </g>
    </g>
   </g>
   <g id="matplotlib.axis_2">
    <g id="ytick_1">
     <g id="line2d_6">
      <defs>
       <path id="mff11574ca0" d="M 0 0 
L -3.5 0 
" style="stroke: #000000; stroke-width: 0.8"/>
      </defs>
      <g>
       <use xlink:href="#mff11574ca0" x="38.976185" y="271.8" style="stroke: #000000; stroke-width: 0.8"/>
      </g>
     </g>
     <g id="text_7">
      <!-- $\mathdefault{0}$ -->
      <g transform="translate(25.147696 276.642938) scale(0.14 -0.14)">
       <use xlink:href="#CMR17-30" transform="scale(0.996264)"/>
      </g>
     </g>
    </g>
    <g id="ytick_2">
     <g id="line2d_7">
      <g>
       <use xlink:href="#mff11574ca0" x="38.976185" y="240.3" style="stroke: #000000; stroke-width: 0.8"/>
      </g>
     </g>
     <g id="text_8">
      <!-- $\mathdefault{1}$ -->
      <g transform="translate(25.147696 245.142938) scale(0.14 -0.14)">
       <use xlink:href="#CMR17-31" transform="scale(0.996264)"/>
      </g>
     </g>
    </g>
    <g id="ytick_3">
     <g id="line2d_8">
      <g>
       <use xlink:href="#mff11574ca0" x="38.976185" y="208.8" style="stroke: #000000; stroke-width: 0.8"/>
      </g>
     </g>
     <g id="text_9">
      <!-- $\mathdefault{2}$ -->
      <g transform="translate(25.147696 213.642938) scale(0.14 -0.14)">
       <use xlink:href="#CMR17-32" transform="scale(0.996264)"/>
      </g>
     </g>
    </g>
    <g id="ytick_4">
     <g id="line2d_9">
      <g>
       <use xlink:href="#mff11574ca0" x="38.976185" y="177.3" style="stroke: #000000; stroke-width: 0.8"/>
      </g>
     </g>
     <g id="text_10">
      <!-- $\mathdefault{3}$ -->
      <g transform="translate(25.147696 182.142938) scale(0.14 -0.14)">
       <use xlink:href="#CMR17-33" transform="scale(0.996264)"/>
      </g>
     </g>
    </g>
    <g id="ytick_5">
     <g id="line2d_10">
      <g>
       <use xlink:href="#mff11574ca0" x="38.976185" y="145.8" style="stroke: #000000; stroke-width: 0.8"/>
      </g>
     </g>
     <g id="text_11">
      <!-- $\mathdefault{4}$ -->
      <g transform="translate(25.147696 150.642938) scale(0.14 -0.14)">
       <use xlink:href="#CMR17-34" transform="scale(0.996264)"/>
      </g>
     </g>
    </g>
    <g id="ytick_6">
     <g id="line2d_11">
      <g>
       <use xlink:href="#mff11574ca0" x="38.976185" y="114.3" style="stroke: #000000; stroke-width: 0.8"/>
      </g>
     </g>
     <g id="text_12">
      <!-- $\mathdefault{5}$ -->
      <g transform="translate(25.147696 119.142938) scale(0.14 -0.14)">
       <defs>
        <path id="CMR17-35" d="M 730 3750 
C 794 3724 1056 3641 1325 3641 
C 1920 3641 2246 3961 2432 4140 
C 2432 4191 2432 4224 2394 4224 
C 2387 4224 2374 4224 2323 4198 
C 2099 4102 1837 4032 1517 4032 
C 1325 4032 1037 4055 723 4191 
C 653 4224 640 4224 634 4224 
C 602 4224 595 4217 595 4090 
L 595 2231 
C 595 2113 595 2080 659 2080 
C 691 2080 704 2093 736 2139 
C 941 2435 1222 2560 1542 2560 
C 1766 2560 2246 2415 2246 1293 
C 2246 1087 2246 716 2054 422 
C 1894 159 1645 25 1370 25 
C 947 25 518 319 403 812 
C 429 806 480 793 506 793 
C 589 793 749 838 749 1036 
C 749 1209 627 1280 506 1280 
C 358 1280 262 1190 262 1011 
C 262 454 704 -128 1382 -128 
C 2042 -128 2669 441 2669 1267 
C 2669 2054 2170 2662 1549 2662 
C 1222 2662 947 2540 730 2304 
L 730 3750 
z
" transform="scale(0.015625)"/>
       </defs>
       <use xlink:href="#CMR17-35" transform="scale(0.996264)"/>
      </g>
     </g>
    </g>
    <g id="ytick_7">
     <g id="line2d_12">
      <g>
       <use xlink:href="#mff11574ca0" x="38.976185" y="82.8" style="stroke: #000000; stroke-width: 0.8"/>
      </g>
     </g>
     <g id="text_13">
      <!-- $\mathdefault{6}$ -->
      <g transform="translate(25.147696 87.642938) scale(0.14 -0.14)">
       <defs>
        <path id="CMR17-36" d="M 678 2198 
C 678 3712 1395 4076 1811 4076 
C 1946 4076 2272 4049 2400 3782 
C 2298 3782 2106 3782 2106 3558 
C 2106 3385 2246 3328 2336 3328 
C 2394 3328 2566 3353 2566 3571 
C 2566 3987 2246 4224 1805 4224 
C 1043 4224 243 3411 243 2011 
C 243 257 966 -128 1478 -128 
C 2099 -128 2688 431 2688 1295 
C 2688 2101 2170 2688 1517 2688 
C 1126 2688 838 2430 678 1979 
L 678 2198 
z
M 1478 25 
C 691 25 691 1212 691 1450 
C 691 1914 909 2585 1504 2585 
C 1613 2585 1926 2585 2138 2140 
C 2253 1889 2253 1624 2253 1302 
C 2253 954 2253 696 2118 438 
C 1978 173 1773 25 1478 25 
z
" transform="scale(0.015625)"/>
       </defs>
       <use xlink:href="#CMR17-36" transform="scale(0.996264)"/>
      </g>
     </g>
    </g>
    <g id="ytick_8">
     <g id="line2d_13">
      <g>
       <use xlink:href="#mff11574ca0" x="38.976185" y="51.3" style="stroke: #000000; stroke-width: 0.8"/>
      </g>
     </g>
     <g id="text_14">
      <!-- $\mathdefault{7}$ -->
      <g transform="translate(25.147696 56.142938) scale(0.14 -0.14)">
       <defs>
        <path id="CMR17-37" d="M 2886 3955 
L 2886 4096 
L 1382 4096 
C 634 4096 621 4166 595 4288 
L 480 4288 
L 294 3104 
L 410 3104 
C 429 3226 474 3552 550 3673 
C 589 3724 1062 3724 1171 3724 
L 2579 3724 
L 1869 2670 
C 1395 1961 1069 1003 1069 166 
C 1069 89 1069 -128 1299 -128 
C 1530 -128 1530 89 1530 172 
L 1530 466 
C 1530 1514 1709 2204 2003 2644 
L 2886 3955 
z
" transform="scale(0.015625)"/>
       </defs>
       <use xlink:href="#CMR17-37" transform="scale(0.996264)"/>
      </g>
     </g>
    </g>
    <g id="ytick_9">
     <g id="line2d_14">
      <g>
       <use xlink:href="#mff11574ca0" x="38.976185" y="19.8" style="stroke: #000000; stroke-width: 0.8"/>
      </g>
     </g>
     <g id="text_15">
      <!-- $\mathdefault{8}$ -->
      <g transform="translate(25.147696 24.642938) scale(0.14 -0.14)">
       <defs>
        <path id="CMR17-38" d="M 1741 2289 
C 2144 2494 2554 2803 2554 3298 
C 2554 3884 1990 4224 1472 4224 
C 890 4224 378 3800 378 3215 
C 378 3054 416 2777 666 2533 
C 730 2469 998 2276 1171 2154 
C 883 2006 211 1652 211 945 
C 211 282 838 -128 1459 -128 
C 2144 -128 2720 366 2720 1022 
C 2720 1607 2330 1877 2074 2051 
L 1741 2289 
z
M 902 2855 
C 851 2887 595 3086 595 3388 
C 595 3781 998 4076 1459 4076 
C 1965 4076 2336 3716 2336 3298 
C 2336 2700 1670 2359 1638 2359 
C 1632 2359 1626 2359 1574 2398 
L 902 2855 
z
M 2080 1536 
C 2176 1466 2483 1253 2483 861 
C 2483 385 2010 25 1472 25 
C 890 25 448 443 448 951 
C 448 1459 838 1884 1280 2083 
L 2080 1536 
z
" transform="scale(0.015625)"/>
       </defs>
       <use xlink:href="#CMR17-38" transform="scale(0.996264)"/>
      </g>
     </g>
    </g>
    <g id="text_16">
     <!-- $f(x)$ -->
     <g transform="translate(17.660772 159.101848) rotate(-90) scale(0.14 -0.14)">
      <defs>
       <path id="CMMI12-66" d="M 2854 2566 
C 2982 2566 3034 2566 3034 2687 
C 3034 2752 2982 2752 2867 2752 
L 2349 2752 
C 2470 3398 2560 3846 2611 4051 
C 2650 4204 2784 4351 2950 4351 
C 3085 4351 3219 4294 3283 4236 
C 3034 4211 2957 4025 2957 3916 
C 2957 3788 3053 3712 3174 3712 
C 3302 3712 3494 3820 3494 4064 
C 3494 4332 3226 4480 2944 4480 
C 2669 4480 2400 4275 2272 4025 
C 2157 3801 2093 3573 1946 2752 
L 1517 2752 
C 1395 2752 1331 2752 1331 2636 
C 1331 2566 1370 2566 1498 2566 
L 1907 2566 
C 1792 1977 1530 545 1382 -132 
C 1274 -685 1178 -1152 858 -1152 
C 838 -1152 653 -1152 538 -1031 
C 864 -1005 864 -724 864 -717 
C 864 -589 768 -512 646 -512 
C 518 -512 326 -621 326 -865 
C 326 -1140 608 -1280 858 -1280 
C 1510 -1280 1779 -113 1850 203 
C 1965 691 2278 2376 2310 2566 
L 2854 2566 
z
" transform="scale(0.015625)"/>
       <path id="CMR17-28" d="M 1958 -1562 
C 1958 -1556 1958 -1543 1939 -1524 
C 1645 -1223 858 -403 858 1596 
C 858 3595 1632 4408 1946 4729 
C 1946 4735 1958 4748 1958 4767 
C 1958 4787 1939 4800 1914 4800 
C 1843 4800 1299 4325 986 3620 
C 666 2909 576 2218 576 1603 
C 576 1141 621 360 1005 -467 
C 1312 -1133 1837 -1600 1914 -1600 
C 1946 -1600 1958 -1588 1958 -1562 
z
" transform="scale(0.015625)"/>
       <path id="CMR17-29" d="M 1683 1596 
C 1683 2057 1638 2839 1254 3665 
C 947 4332 422 4800 346 4800 
C 326 4800 301 4793 301 4761 
C 301 4748 307 4742 314 4729 
C 621 4408 1402 3595 1402 1603 
C 1402 -396 627 -1210 314 -1530 
C 307 -1543 301 -1549 301 -1562 
C 301 -1594 326 -1600 346 -1600 
C 416 -1600 960 -1127 1274 -422 
C 1594 289 1683 981 1683 1596 
z
" transform="scale(0.015625)"/>
      </defs>
      <use xlink:href="#CMMI12-66" transform="scale(0.996264)"/>
      <use xlink:href="#CMR17-28" transform="translate(58.720305 0) scale(0.996264)"/>
      <use xlink:href="#CMMI12-78" transform="translate(94.001073 0) scale(0.996264)"/>
      <use xlink:href="#CMR17-29" transform="translate(149.435132 0) scale(0.996264)"/>
     </g>
    </g>
   </g>
   <g id="line2d_15">
    <path d="M 50.50511 271.8 
L 52.834186 259.37919 
L 55.163262 247.562993 
L 57.492338 236.338943 
L 59.821414 225.694575 
L 62.15049 215.617421 
L 64.479566 206.095016 
L 66.808642 197.114894 
L 69.137717 188.664587 
L 71.466793 180.73163 
L 73.795869 173.303557 
L 76.124945 166.367901 
L 78.454021 159.912196 
L 80.783097 153.923976 
L 83.112173 148.390775 
L 85.441249 143.300125 
L 87.770325 138.639562 
L 90.0994 134.396618 
L 92.428476 130.558828 
L 94.757552 127.113725 
L 97.086628 124.048843 
L 99.415704 121.351716 
L 101.74478 119.009877 
L 104.073856 117.01086 
L 106.402932 115.342199 
L 108.732007 113.991428 
L 111.061083 112.94608 
L 113.390159 112.193689 
L 115.719235 111.721789 
L 118.048311 111.517914 
L 120.377387 111.569597 
L 122.706463 111.864372 
L 125.035539 112.389773 
L 127.364615 113.133333 
L 129.69369 114.082587 
L 132.022766 115.225068 
L 134.351842 116.54831 
L 136.680918 118.039846 
L 139.009994 119.68721 
L 141.33907 121.477936 
L 143.668146 123.399558 
L 145.997222 125.43961 
L 148.326297 127.585625 
L 150.655373 129.825137 
L 152.984449 132.145679 
L 155.313525 134.534786 
L 157.642601 136.979991 
L 159.971677 139.468828 
L 162.300753 141.98883 
L 164.629829 144.527532 
L 166.958905 147.072468 
L 169.28798 149.61117 
L 171.617056 152.131172 
L 173.946132 154.620009 
L 176.275208 157.065214 
L 178.604284 159.454321 
L 180.93336 161.774863 
L 183.262436 164.014375 
L 185.591512 166.16039 
L 187.920587 168.200442 
L 190.249663 170.122064 
L 192.578739 171.91279 
L 194.907815 173.560154 
L 197.236891 175.05169 
L 199.565967 176.374932 
L 201.895043 177.517413 
L 204.224119 178.466667 
L 206.553195 179.210227 
L 208.88227 179.735628 
L 211.211346 180.030403 
L 213.540422 180.082086 
L 215.869498 179.878211 
L 218.198574 179.406311 
L 220.52765 178.65392 
L 222.856726 177.608572 
L 225.185802 176.257801 
L 227.514877 174.58914 
L 229.843953 172.590123 
L 232.173029 170.248284 
L 234.502105 167.551157 
L 236.831181 164.486275 
L 239.160257 161.041172 
L 241.489333 157.203382 
L 243.818409 152.960438 
L 246.147485 148.299875 
L 248.47656 143.209225 
L 250.805636 137.676024 
L 253.134712 131.687804 
L 255.463788 125.232099 
L 257.792864 118.296443 
L 260.12194 110.86837 
L 262.451016 102.935413 
L 264.780092 94.485106 
L 267.109167 85.504984 
L 269.438243 75.982579 
L 271.767319 65.905425 
L 274.096395 55.261057 
L 276.425471 44.037007 
L 278.754547 32.22081 
L 281.083623 19.8 
" clip-path="url(#p9c8a515430)" style="fill: none; stroke: #000000; stroke-width: 1.5; stroke-linecap: square"/>
   </g>
   <g id="patch_3">
    <path d="M 38.976185 284.4 
L 38.976185 7.2 
" style="fill: none; stroke: #000000; stroke-width: 0.8; stroke-linejoin: miter; stroke-linecap: square"/>
   </g>
   <g id="patch_4">
    <path d="M 292.612548 284.4 
L 292.612548 7.2 
" style="fill: none; stroke: #000000; stroke-width: 0.8; stroke-linejoin: miter; stroke-linecap: square"/>
   </g>
   <g id="patch_5">
    <path d="M 38.976185 284.4 
L 292.612548 284.4 
" style="fill: none; stroke: #000000; stroke-width: 0.8; stroke-linejoin: miter; stroke-linecap: square"/>
   </g>
   <g id="patch_6">
    <path d="M 38.976185 7.2 
L 292.612548 7.2 
" style="fill: none; stroke: #000000; stroke-width: 0.8; stroke-linejoin: miter; stroke-linecap: square"/>
   </g>
  </g>
  <g id="axes_2">
   <g id="patch_7">
    <path d="M 343.339821 284.4 
L 596.976185 284.4 
L 596.976185 7.2 
L 343.339821 7.2 
L 343.339821 284.4 
z
" style="fill: none"/>
   </g>
   <g id="PolyCollection_2">
    <path d="M 354.868747 271.8 
L 354.868747 24.190374 
L 357.197823 23.250155 
L 359.526899 22.428753 
L 361.855974 21.723717 
L 364.18505 21.132597 
L 366.514126 20.652944 
L 368.843202 20.282307 
L 371.172278 20.018238 
L 373.501354 19.858285 
L 375.83043 19.8 
L 378.159506 19.840932 
L 380.488581 19.978632 
L 382.817657 20.21065 
L 385.146733 20.534536 
L 387.475809 20.94784 
L 389.804885 21.448113 
L 392.133961 22.032904 
L 394.463037 22.699764 
L 396.792113 23.446242 
L 399.121189 24.26989 
L 401.450264 25.168258 
L 403.77934 26.138895 
L 406.108416 27.179351 
L 408.437492 28.287178 
L 410.766568 29.459924 
L 413.095644 30.695141 
L 415.42472 31.990378 
L 417.753796 33.343186 
L 420.082871 34.751115 
L 422.411947 36.211715 
L 424.741023 37.722536 
L 427.070099 39.281128 
L 429.399175 40.885042 
L 431.728251 42.531827 
L 434.057327 44.219035 
L 436.386403 45.944215 
L 438.715479 47.704917 
L 441.044554 49.498691 
L 443.37363 51.323088 
L 445.702706 53.175658 
L 448.031782 55.053951 
L 450.360858 56.955518 
L 452.689934 58.877907 
L 455.01901 60.818671 
L 457.348086 62.775358 
L 459.677161 64.745519 
L 462.006237 66.726704 
L 464.335313 68.716464 
L 466.664389 70.712348 
L 468.993465 72.711907 
L 471.322541 74.712691 
L 473.651617 76.71225 
L 475.980693 78.708134 
L 478.309769 80.697893 
L 480.638844 82.679079 
L 482.96792 84.64924 
L 485.296996 86.605927 
L 487.626072 88.54669 
L 489.955148 90.46908 
L 492.284224 92.370646 
L 494.6133 94.248939 
L 496.942376 96.101509 
L 499.271451 97.925907 
L 501.600527 99.719681 
L 503.929603 101.480383 
L 506.258679 103.205563 
L 508.587755 104.89277 
L 510.916831 106.539556 
L 513.245907 108.14347 
L 515.574983 109.702062 
L 517.904059 111.212883 
L 520.233134 112.673483 
L 522.56221 114.081411 
L 524.891286 115.434219 
L 527.220362 116.729457 
L 529.549438 117.964673 
L 531.878514 119.13742 
L 534.20759 120.245246 
L 536.536666 121.285703 
L 538.865741 122.25634 
L 541.194817 123.154707 
L 543.523893 123.978355 
L 545.852969 124.724834 
L 548.182045 125.391694 
L 550.511121 125.976485 
L 552.840197 126.476758 
L 555.169273 126.890062 
L 557.498349 127.213948 
L 559.827424 127.445965 
L 562.1565 127.583665 
L 564.485576 127.624598 
L 566.814652 127.566313 
L 569.143728 127.40636 
L 571.472804 127.14229 
L 573.80188 126.771654 
L 576.130956 126.292001 
L 578.460031 125.700881 
L 580.789107 124.995845 
L 583.118183 124.174442 
L 585.447259 123.234224 
L 585.447259 271.8 
L 585.447259 271.8 
L 583.118183 271.8 
L 580.789107 271.8 
L 578.460031 271.8 
L 576.130956 271.8 
L 573.80188 271.8 
L 571.472804 271.8 
L 569.143728 271.8 
L 566.814652 271.8 
L 564.485576 271.8 
L 562.1565 271.8 
L 559.827424 271.8 
L 557.498349 271.8 
L 555.169273 271.8 
L 552.840197 271.8 
L 550.511121 271.8 
L 548.182045 271.8 
L 545.852969 271.8 
L 543.523893 271.8 
L 541.194817 271.8 
L 538.865741 271.8 
L 536.536666 271.8 
L 534.20759 271.8 
L 531.878514 271.8 
L 529.549438 271.8 
L 527.220362 271.8 
L 524.891286 271.8 
L 522.56221 271.8 
L 520.233134 271.8 
L 517.904059 271.8 
L 515.574983 271.8 
L 513.245907 271.8 
L 510.916831 271.8 
L 508.587755 271.8 
L 506.258679 271.8 
L 503.929603 271.8 
L 501.600527 271.8 
L 499.271451 271.8 
L 496.942376 271.8 
L 494.6133 271.8 
L 492.284224 271.8 
L 489.955148 271.8 
L 487.626072 271.8 
L 485.296996 271.8 
L 482.96792 271.8 
L 480.638844 271.8 
L 478.309769 271.8 
L 475.980693 271.8 
L 473.651617 271.8 
L 471.322541 271.8 
L 468.993465 271.8 
L 466.664389 271.8 
L 464.335313 271.8 
L 462.006237 271.8 
L 459.677161 271.8 
L 457.348086 271.8 
L 455.01901 271.8 
L 452.689934 271.8 
L 450.360858 271.8 
L 448.031782 271.8 
L 445.702706 271.8 
L 443.37363 271.8 
L 441.044554 271.8 
L 438.715479 271.8 
L 436.386403 271.8 
L 434.057327 271.8 
L 431.728251 271.8 
L 429.399175 271.8 
L 427.070099 271.8 
L 424.741023 271.8 
L 422.411947 271.8 
L 420.082871 271.8 
L 417.753796 271.8 
L 415.42472 271.8 
L 413.095644 271.8 
L 410.766568 271.8 
L 408.437492 271.8 
L 406.108416 271.8 
L 403.77934 271.8 
L 401.450264 271.8 
L 399.121189 271.8 
L 396.792113 271.8 
L 394.463037 271.8 
L 392.133961 271.8 
L 389.804885 271.8 
L 387.475809 271.8 
L 385.146733 271.8 
L 382.817657 271.8 
L 380.488581 271.8 
L 378.159506 271.8 
L 375.83043 271.8 
L 373.501354 271.8 
L 371.172278 271.8 
L 368.843202 271.8 
L 366.514126 271.8 
L 364.18505 271.8 
L 361.855974 271.8 
L 359.526899 271.8 
L 357.197823 271.8 
L 354.868747 271.8 
z
" clip-path="url(#pa654229e33)" style="fill: #808080"/>
   </g>
   <g id="matplotlib.axis_3">
    <g id="xtick_6">
     <g id="line2d_16">
      <g>
       <use xlink:href="#m4d74ff29a3" x="354.868747" y="284.4" style="stroke: #000000; stroke-width: 0.8"/>
      </g>
     </g>
     <g id="text_17">
      <!-- $\mathdefault{−1}$ -->
      <g transform="translate(346.030385 301.085876) scale(0.14 -0.14)">
       <defs>
        <path id="CMSY10-0" d="M 4218 1472 
C 4326 1472 4442 1472 4442 1600 
C 4442 1728 4326 1728 4218 1728 
L 755 1728 
C 646 1728 531 1728 531 1600 
C 531 1472 646 1472 755 1472 
L 4218 1472 
z
" transform="scale(0.015625)"/>
       </defs>
       <use xlink:href="#CMSY10-0" transform="scale(0.996264)"/>
       <use xlink:href="#CMR17-31" transform="translate(77.487468 0) scale(0.996264)"/>
      </g>
     </g>
    </g>
    <g id="xtick_7">
     <g id="line2d_17">
      <g>
       <use xlink:href="#m4d74ff29a3" x="470.158003" y="284.4" style="stroke: #000000; stroke-width: 0.8"/>
      </g>
     </g>
     <g id="text_18">
      <!-- $\mathdefault{0}$ -->
      <g transform="translate(466.743759 301.085876) scale(0.14 -0.14)">
       <use xlink:href="#CMR17-30" transform="scale(0.996264)"/>
      </g>
     </g>
    </g>
    <g id="xtick_8">
     <g id="line2d_18">
      <g>
       <use xlink:href="#m4d74ff29a3" x="585.447259" y="284.4" style="stroke: #000000; stroke-width: 0.8"/>
      </g>
     </g>
     <g id="text_19">
      <!-- $\mathdefault{1}$ -->
      <g transform="translate(582.033015 301.085876) scale(0.14 -0.14)">
       <use xlink:href="#CMR17-31" transform="scale(0.996264)"/>
      </g>
     </g>
    </g>
    <g id="text_20">
     <!-- $\xi$ -->
     <g transform="translate(467.17558 317.483781) scale(0.14 -0.14)">
      <defs>
       <path id="CMMI12-18" d="M 1670 0 
L 998 271 
C 832 335 448 490 448 876 
C 448 1430 1120 1990 1254 1990 
C 1267 1990 1325 1977 1344 1971 
C 1517 1919 1683 1919 1798 1919 
C 1997 1919 2374 1919 2374 2089 
C 2374 2220 2144 2240 1869 2240 
C 1741 2240 1568 2240 1338 2163 
C 1184 2291 1120 2497 1120 2690 
C 1120 3043 1350 3545 1856 3780 
C 1971 3648 2125 3648 2259 3648 
C 2419 3648 2810 3648 2810 3817 
C 2810 3968 2502 3968 2298 3968 
C 2170 3968 2074 3968 1894 3936 
C 1862 4016 1856 4029 1856 4180 
C 1856 4303 1882 4396 1882 4415 
C 1882 4454 1850 4480 1818 4480 
C 1715 4480 1715 4235 1715 4180 
C 1715 4084 1722 3988 1760 3904 
C 992 3705 653 3159 653 2741 
C 653 2355 909 2144 1082 2066 
C 422 1713 141 1057 141 709 
C 141 148 646 -51 877 -148 
L 1453 -380 
C 1613 -438 1875 -547 1920 -573 
C 1984 -618 2035 -695 2035 -798 
C 2035 -934 1933 -1152 1709 -1152 
C 1613 -1152 1402 -1127 1171 -953 
C 1126 -914 1120 -908 1094 -908 
C 1062 -908 1030 -934 1030 -972 
C 1030 -1043 1363 -1280 1709 -1280 
C 2118 -1280 2368 -882 2368 -605 
C 2368 -405 2259 -244 2054 -154 
L 1670 0 
z
M 1997 3817 
C 2106 3840 2221 3840 2304 3840 
C 2515 3840 2534 3835 2662 3812 
C 2586 3789 2534 3776 2266 3776 
C 2144 3776 2067 3776 1997 3817 
z
M 1491 2084 
C 1645 2112 1786 2112 1862 2112 
C 2074 2112 2086 2107 2227 2084 
C 2157 2061 2099 2048 1824 2048 
C 1670 2048 1606 2048 1491 2084 
z
" transform="scale(0.015625)"/>
      </defs>
      <use xlink:href="#CMMI12-18" transform="scale(0.996264)"/>
     </g>
    </g>
   </g>
   <g id="matplotlib.axis_4">
    <g id="ytick_10">
     <g id="line2d_19">
      <g>
       <use xlink:href="#mff11574ca0" x="343.339821" y="271.8" style="stroke: #000000; stroke-width: 0.8"/>
      </g>
     </g>
     <g id="text_21">
      <!-- $\mathdefault{0}$ -->
      <g transform="translate(329.511333 276.642938) scale(0.14 -0.14)">
       <use xlink:href="#CMR17-30" transform="scale(0.996264)"/>
      </g>
     </g>
    </g>
    <g id="ytick_11">
     <g id="line2d_20">
      <g>
       <use xlink:href="#mff11574ca0" x="343.339821" y="222.278075" style="stroke: #000000; stroke-width: 0.8"/>
      </g>
     </g>
     <g id="text_22">
      <!-- $\mathdefault{1}$ -->
      <g transform="translate(329.511333 227.121013) scale(0.14 -0.14)">
       <use xlink:href="#CMR17-31" transform="scale(0.996264)"/>
      </g>
     </g>
    </g>
    <g id="ytick_12">
     <g id="line2d_21">
      <g>
       <use xlink:href="#mff11574ca0" x="343.339821" y="172.756149" style="stroke: #000000; stroke-width: 0.8"/>
      </g>
     </g>
     <g id="text_23">
      <!-- $\mathdefault{2}$ -->
      <g transform="translate(329.511333 177.599088) scale(0.14 -0.14)">
       <use xlink:href="#CMR17-32" transform="scale(0.996264)"/>
      </g>
     </g>
    </g>
    <g id="ytick_13">
     <g id="line2d_22">
      <g>
       <use xlink:href="#mff11574ca0" x="343.339821" y="123.234224" style="stroke: #000000; stroke-width: 0.8"/>
      </g>
     </g>
     <g id="text_24">
      <!-- $\mathdefault{3}$ -->
      <g transform="translate(329.511333 128.077162) scale(0.14 -0.14)">
       <use xlink:href="#CMR17-33" transform="scale(0.996264)"/>
      </g>
     </g>
    </g>
    <g id="ytick_14">
     <g id="line2d_23">
      <g>
       <use xlink:href="#mff11574ca0" x="343.339821" y="73.712299" style="stroke: #000000; stroke-width: 0.8"/>
      </g>
     </g>
     <g id="text_25">
      <!-- $\mathdefault{4}$ -->
      <g transform="translate(329.511333 78.555237) scale(0.14 -0.14)">
       <use xlink:href="#CMR17-34" transform="scale(0.996264)"/>
      </g>
     </g>
    </g>
    <g id="ytick_15">
     <g id="line2d_24">
      <g>
       <use xlink:href="#mff11574ca0" x="343.339821" y="24.190374" style="stroke: #000000; stroke-width: 0.8"/>
      </g>
     </g>
     <g id="text_26">
      <!-- $\mathdefault{5}$ -->
      <g transform="translate(329.511333 29.033312) scale(0.14 -0.14)">
       <use xlink:href="#CMR17-35" transform="scale(0.996264)"/>
      </g>
     </g>
    </g>
    <g id="text_27">
     <!-- $f(\xi)$ -->
     <g transform="translate(322.024408 158.540887) rotate(-90) scale(0.14 -0.14)">
      <use xlink:href="#CMMI12-66" transform="scale(0.996264)"/>
      <use xlink:href="#CMR17-28" transform="translate(58.720305 0) scale(0.996264)"/>
      <use xlink:href="#CMMI12-18" transform="translate(94.001073 0) scale(0.996264)"/>
      <use xlink:href="#CMR17-29" transform="translate(141.421406 0) scale(0.996264)"/>
     </g>
    </g>
   </g>
   <g id="line2d_25">
    <path d="M 354.868747 24.190374 
L 357.197823 23.250155 
L 359.526899 22.428753 
L 361.855974 21.723717 
L 364.18505 21.132597 
L 366.514126 20.652944 
L 368.843202 20.282307 
L 371.172278 20.018238 
L 373.501354 19.858285 
L 375.83043 19.8 
L 378.159506 19.840932 
L 380.488581 19.978632 
L 382.817657 20.21065 
L 385.146733 20.534536 
L 387.475809 20.94784 
L 389.804885 21.448113 
L 392.133961 22.032904 
L 394.463037 22.699764 
L 396.792113 23.446242 
L 399.121189 24.26989 
L 401.450264 25.168258 
L 403.77934 26.138895 
L 406.108416 27.179351 
L 408.437492 28.287178 
L 410.766568 29.459924 
L 413.095644 30.695141 
L 415.42472 31.990378 
L 417.753796 33.343186 
L 420.082871 34.751115 
L 422.411947 36.211715 
L 424.741023 37.722536 
L 427.070099 39.281128 
L 429.399175 40.885042 
L 431.728251 42.531827 
L 434.057327 44.219035 
L 436.386403 45.944215 
L 438.715479 47.704917 
L 441.044554 49.498691 
L 443.37363 51.323088 
L 445.702706 53.175658 
L 448.031782 55.053951 
L 450.360858 56.955518 
L 452.689934 58.877907 
L 455.01901 60.818671 
L 457.348086 62.775358 
L 459.677161 64.745519 
L 462.006237 66.726704 
L 464.335313 68.716464 
L 466.664389 70.712348 
L 468.993465 72.711907 
L 471.322541 74.712691 
L 473.651617 76.71225 
L 475.980693 78.708134 
L 478.309769 80.697893 
L 480.638844 82.679079 
L 482.96792 84.64924 
L 485.296996 86.605927 
L 487.626072 88.54669 
L 489.955148 90.46908 
L 492.284224 92.370646 
L 494.6133 94.248939 
L 496.942376 96.101509 
L 499.271451 97.925907 
L 501.600527 99.719681 
L 503.929603 101.480383 
L 506.258679 103.205563 
L 508.587755 104.89277 
L 510.916831 106.539556 
L 513.245907 108.14347 
L 515.574983 109.702062 
L 517.904059 111.212883 
L 520.233134 112.673483 
L 522.56221 114.081411 
L 524.891286 115.434219 
L 527.220362 116.729457 
L 529.549438 117.964673 
L 531.878514 119.13742 
L 534.20759 120.245246 
L 536.536666 121.285703 
L 538.865741 122.25634 
L 541.194817 123.154707 
L 543.523893 123.978355 
L 545.852969 124.724834 
L 548.182045 125.391694 
L 550.511121 125.976485 
L 552.840197 126.476758 
L 555.169273 126.890062 
L 557.498349 127.213948 
L 559.827424 127.445965 
L 562.1565 127.583665 
L 564.485576 127.624598 
L 566.814652 127.566313 
L 569.143728 127.40636 
L 571.472804 127.14229 
L 573.80188 126.771654 
L 576.130956 126.292001 
L 578.460031 125.700881 
L 580.789107 124.995845 
L 583.118183 124.174442 
L 585.447259 123.234224 
" clip-path="url(#pa654229e33)" style="fill: none; stroke: #000000; stroke-width: 1.5; stroke-linecap: square"/>
   </g>
   <g id="line2d_26">
    <path d="M 403.59572 271.8 
L 403.59572 26.059804 
" clip-path="url(#pa654229e33)" style="fill: none; stroke: #000000; stroke-width: 1.5; stroke-linecap: square"/>
   </g>
   <g id="line2d_27">
    <path d="M 536.720286 271.8 
L 536.720286 121.364794 
" clip-path="url(#pa654229e33)" style="fill: none; stroke: #000000; stroke-width: 1.5; stroke-linecap: square"/>
   </g>
   <g id="patch_8">
    <path d="M 343.339821 284.4 
L 343.339821 7.2 
" style="fill: none; stroke: #000000; stroke-width: 0.8; stroke-linejoin: miter; stroke-linecap: square"/>
   </g>
   <g id="patch_9">
    <path d="M 596.976185 284.4 
L 596.976185 7.2 
" style="fill: none; stroke: #000000; stroke-width: 0.8; stroke-linejoin: miter; stroke-linecap: square"/>
   </g>
   <g id="patch_10">
    <path d="M 343.339821 284.4 
L 596.976185 284.4 
" style="fill: none; stroke: #000000; stroke-width: 0.8; stroke-linejoin: miter; stroke-linecap: square"/>
   </g>
   <g id="patch_11">
    <path d="M 343.339821 7.2 
L 596.976185 7.2 
" style="fill: none; stroke: #000000; stroke-width: 0.8; stroke-linejoin: miter; stroke-linecap: square"/>
   </g>
  </g>
 </g>
 <defs>
  <clipPath id="p9c8a515430">
   <rect x="38.976185" y="7.2" width="253.636364" height="277.2"/>
  </clipPath>
  <clipPath id="pa654229e33">
   <rect x="343.339821" y="7.2" width="253.636364" height="277.2"/>
  </clipPath>
 </defs>
</svg>
