<?xml version="1.0" encoding="utf-8" standalone="no"?>
<!DOCTYPE svg PUBLIC "-//W3C//DTD SVG 1.1//EN"
  "http://www.w3.org/Graphics/SVG/1.1/DTD/svg11.dtd">
<svg xmlns:xlink="http://www.w3.org/1999/xlink" width="432pt" height="216pt" viewBox="0 0 432 216" xmlns="http://www.w3.org/2000/svg" version="1.1">
 <metadata>
  <rdf:RDF xmlns:dc="http://purl.org/dc/elements/1.1/" xmlns:cc="http://creativecommons.org/ns#" xmlns:rdf="http://www.w3.org/1999/02/22-rdf-syntax-ns#">
   <cc:Work>
    <dc:type rdf:resource="http://purl.org/dc/dcmitype/StillImage"/>
    <dc:date>2024-03-08T18:55:03.829382</dc:date>
    <dc:format>image/svg+xml</dc:format>
    <dc:creator>
     <cc:Agent>
      <dc:title>Matplotlib v3.6.3, https://matplotlib.org/</dc:title>
     </cc:Agent>
    </dc:creator>
   </cc:Work>
  </rdf:RDF>
 </metadata>
 <defs>
  <style type="text/css">*{stroke-linejoin: round; stroke-linecap: butt}</style>
 </defs>
 <g id="figure_1">
  <g id="patch_1">
   <path d="M 0 216 
L 432 216 
L 432 0 
L 0 0 
L 0 216 
z
" style="fill: none"/>
  </g>
  <g id="axes_1">
   <g id="patch_2">
    <path d="M 52.96645 167.93532 
L 417.96 167.93532 
L 417.96 18.537014 
L 52.96645 18.537014 
L 52.96645 167.93532 
z
" style="fill: none"/>
   </g>
   <g id="matplotlib.axis_1">
    <g id="xtick_1">
     <g id="line2d_1">
      <path d="M 69.557065 167.93532 
L 69.557065 18.537014 
" clip-path="url(#p17adbd912e)" style="fill: none; stroke: #b0b0b0; stroke-width: 0.8; stroke-linecap: square"/>
     </g>
     <g id="line2d_2">
      <defs>
       <path id="m810190d6cb" d="M 0 0 
L 0 3.5 
" style="stroke: #000000; stroke-width: 0.8"/>
      </defs>
      <g>
       <use xlink:href="#m810190d6cb" x="69.557065" y="167.93532" style="stroke: #000000; stroke-width: 0.8"/>
      </g>
     </g>
     <g id="text_1">
      <!-- $\mathdefault{1.0}$ -->
      <g transform="translate(61.45501 183.929348) scale(0.13 -0.13)">
       <defs>
        <path id="CMR17-31" d="M 1702 4083 
C 1702 4217 1696 4224 1606 4224 
C 1357 3927 979 3833 621 3820 
C 602 3820 570 3820 563 3808 
C 557 3795 557 3782 557 3648 
C 755 3648 1088 3686 1344 3839 
L 1344 467 
C 1344 243 1331 166 781 166 
L 589 166 
L 589 0 
C 896 6 1216 12 1523 12 
C 1830 12 2150 6 2458 0 
L 2458 166 
L 2266 166 
C 1715 166 1702 236 1702 467 
L 1702 4083 
z
" transform="scale(0.015625)"/>
        <path id="CMMI12-3a" d="M 1178 307 
C 1178 492 1024 620 870 620 
C 685 620 557 467 557 313 
C 557 128 710 0 864 0 
C 1050 0 1178 153 1178 307 
z
" transform="scale(0.015625)"/>
        <path id="CMR17-30" d="M 2688 2038 
C 2688 2430 2682 3099 2413 3613 
C 2176 4063 1798 4224 1466 4224 
C 1158 4224 768 4082 525 3620 
C 269 3137 243 2539 243 2038 
C 243 1671 250 1112 448 623 
C 723 -39 1216 -128 1466 -128 
C 1760 -128 2208 -7 2470 604 
C 2662 1048 2688 1568 2688 2038 
z
M 1466 -26 
C 1056 -26 813 328 723 816 
C 653 1196 653 1749 653 2109 
C 653 2604 653 3015 736 3407 
C 858 3954 1216 4121 1466 4121 
C 1728 4121 2067 3947 2189 3420 
C 2272 3054 2278 2623 2278 2109 
C 2278 1691 2278 1176 2202 797 
C 2067 96 1690 -26 1466 -26 
z
" transform="scale(0.015625)"/>
       </defs>
       <use xlink:href="#CMR17-31" transform="scale(0.996264)"/>
       <use xlink:href="#CMMI12-3a" transform="translate(45.690477 0) scale(0.996264)"/>
       <use xlink:href="#CMR17-30" transform="translate(72.787654 0) scale(0.996264)"/>
      </g>
     </g>
    </g>
    <g id="xtick_2">
     <g id="line2d_3">
      <path d="M 135.919529 167.93532 
L 135.919529 18.537014 
" clip-path="url(#p17adbd912e)" style="fill: none; stroke: #b0b0b0; stroke-width: 0.8; stroke-linecap: square"/>
     </g>
     <g id="line2d_4">
      <g>
       <use xlink:href="#m810190d6cb" x="135.919529" y="167.93532" style="stroke: #000000; stroke-width: 0.8"/>
      </g>
     </g>
     <g id="text_2">
      <!-- $\mathdefault{1.5}$ -->
      <g transform="translate(127.817473 183.929348) scale(0.13 -0.13)">
       <defs>
        <path id="CMR17-35" d="M 730 3750 
C 794 3724 1056 3641 1325 3641 
C 1920 3641 2246 3961 2432 4140 
C 2432 4191 2432 4224 2394 4224 
C 2387 4224 2374 4224 2323 4198 
C 2099 4102 1837 4032 1517 4032 
C 1325 4032 1037 4055 723 4191 
C 653 4224 640 4224 634 4224 
C 602 4224 595 4217 595 4090 
L 595 2231 
C 595 2113 595 2080 659 2080 
C 691 2080 704 2093 736 2139 
C 941 2435 1222 2560 1542 2560 
C 1766 2560 2246 2415 2246 1293 
C 2246 1087 2246 716 2054 422 
C 1894 159 1645 25 1370 25 
C 947 25 518 319 403 812 
C 429 806 480 793 506 793 
C 589 793 749 838 749 1036 
C 749 1209 627 1280 506 1280 
C 358 1280 262 1190 262 1011 
C 262 454 704 -128 1382 -128 
C 2042 -128 2669 441 2669 1267 
C 2669 2054 2170 2662 1549 2662 
C 1222 2662 947 2540 730 2304 
L 730 3750 
z
" transform="scale(0.015625)"/>
       </defs>
       <use xlink:href="#CMR17-31" transform="scale(0.996264)"/>
       <use xlink:href="#CMMI12-3a" transform="translate(45.690477 0) scale(0.996264)"/>
       <use xlink:href="#CMR17-35" transform="translate(72.787654 0) scale(0.996264)"/>
      </g>
     </g>
    </g>
    <g id="xtick_3">
     <g id="line2d_5">
      <path d="M 202.281993 167.93532 
L 202.281993 18.537014 
" clip-path="url(#p17adbd912e)" style="fill: none; stroke: #b0b0b0; stroke-width: 0.8; stroke-linecap: square"/>
     </g>
     <g id="line2d_6">
      <g>
       <use xlink:href="#m810190d6cb" x="202.281993" y="167.93532" style="stroke: #000000; stroke-width: 0.8"/>
      </g>
     </g>
     <g id="text_3">
      <!-- $\mathdefault{2.0}$ -->
      <g transform="translate(194.179937 183.929348) scale(0.13 -0.13)">
       <defs>
        <path id="CMR17-32" d="M 2669 990 
L 2554 990 
C 2490 537 2438 460 2413 422 
C 2381 371 1920 371 1830 371 
L 602 371 
C 832 620 1280 1073 1824 1596 
C 2214 1966 2669 2400 2669 3033 
C 2669 3788 2067 4224 1395 4224 
C 691 4224 262 3603 262 3027 
C 262 2777 448 2745 525 2745 
C 589 2745 781 2783 781 3007 
C 781 3206 614 3264 525 3264 
C 486 3264 448 3257 422 3244 
C 544 3788 915 4057 1306 4057 
C 1862 4057 2227 3616 2227 3033 
C 2227 2477 1901 1998 1536 1583 
L 262 147 
L 262 0 
L 2515 0 
L 2669 990 
z
" transform="scale(0.015625)"/>
       </defs>
       <use xlink:href="#CMR17-32" transform="scale(0.996264)"/>
       <use xlink:href="#CMMI12-3a" transform="translate(45.690477 0) scale(0.996264)"/>
       <use xlink:href="#CMR17-30" transform="translate(72.787654 0) scale(0.996264)"/>
      </g>
     </g>
    </g>
    <g id="xtick_4">
     <g id="line2d_7">
      <path d="M 268.644457 167.93532 
L 268.644457 18.537014 
" clip-path="url(#p17adbd912e)" style="fill: none; stroke: #b0b0b0; stroke-width: 0.8; stroke-linecap: square"/>
     </g>
     <g id="line2d_8">
      <g>
       <use xlink:href="#m810190d6cb" x="268.644457" y="167.93532" style="stroke: #000000; stroke-width: 0.8"/>
      </g>
     </g>
     <g id="text_4">
      <!-- $\mathdefault{2.5}$ -->
      <g transform="translate(260.542401 183.929348) scale(0.13 -0.13)">
       <use xlink:href="#CMR17-32" transform="scale(0.996264)"/>
       <use xlink:href="#CMMI12-3a" transform="translate(45.690477 0) scale(0.996264)"/>
       <use xlink:href="#CMR17-35" transform="translate(72.787654 0) scale(0.996264)"/>
      </g>
     </g>
    </g>
    <g id="xtick_5">
     <g id="line2d_9">
      <path d="M 335.00692 167.93532 
L 335.00692 18.537014 
" clip-path="url(#p17adbd912e)" style="fill: none; stroke: #b0b0b0; stroke-width: 0.8; stroke-linecap: square"/>
     </g>
     <g id="line2d_10">
      <g>
       <use xlink:href="#m810190d6cb" x="335.00692" y="167.93532" style="stroke: #000000; stroke-width: 0.8"/>
      </g>
     </g>
     <g id="text_5">
      <!-- $\mathdefault{3.0}$ -->
      <g transform="translate(326.904864 183.929348) scale(0.13 -0.13)">
       <defs>
        <path id="CMR17-33" d="M 1414 2176 
C 1984 2176 2234 1673 2234 1094 
C 2234 322 1824 25 1453 25 
C 1114 25 563 193 390 691 
C 422 678 454 678 486 678 
C 640 678 755 780 755 947 
C 755 1132 614 1216 486 1216 
C 378 1216 211 1164 211 927 
C 211 335 787 -128 1466 -128 
C 2176 -128 2720 432 2720 1087 
C 2720 1718 2208 2176 1600 2246 
C 2086 2347 2554 2776 2554 3353 
C 2554 3856 2048 4224 1472 4224 
C 890 4224 378 3862 378 3347 
C 378 3123 544 3084 627 3084 
C 762 3084 877 3167 877 3334 
C 877 3500 762 3584 627 3584 
C 602 3584 570 3584 544 3571 
C 730 3999 1235 4076 1459 4076 
C 1683 4076 2106 3966 2106 3347 
C 2106 3167 2080 2851 1862 2574 
C 1670 2329 1453 2316 1242 2297 
C 1210 2297 1062 2284 1037 2284 
C 992 2278 966 2272 966 2227 
C 966 2182 973 2176 1101 2176 
L 1414 2176 
z
" transform="scale(0.015625)"/>
       </defs>
       <use xlink:href="#CMR17-33" transform="scale(0.996264)"/>
       <use xlink:href="#CMMI12-3a" transform="translate(45.690477 0) scale(0.996264)"/>
       <use xlink:href="#CMR17-30" transform="translate(72.787654 0) scale(0.996264)"/>
      </g>
     </g>
    </g>
    <g id="xtick_6">
     <g id="line2d_11">
      <path d="M 401.369384 167.93532 
L 401.369384 18.537014 
" clip-path="url(#p17adbd912e)" style="fill: none; stroke: #b0b0b0; stroke-width: 0.8; stroke-linecap: square"/>
     </g>
     <g id="line2d_12">
      <g>
       <use xlink:href="#m810190d6cb" x="401.369384" y="167.93532" style="stroke: #000000; stroke-width: 0.8"/>
      </g>
     </g>
     <g id="text_6">
      <!-- $\mathdefault{3.5}$ -->
      <g transform="translate(393.267328 183.929348) scale(0.13 -0.13)">
       <use xlink:href="#CMR17-33" transform="scale(0.996264)"/>
       <use xlink:href="#CMMI12-3a" transform="translate(45.690477 0) scale(0.996264)"/>
       <use xlink:href="#CMR17-35" transform="translate(72.787654 0) scale(0.996264)"/>
      </g>
     </g>
    </g>
    <g id="text_7">
     <!-- $x$ -->
     <g transform="translate(231.860015 199.441688) scale(0.13 -0.13)">
      <defs>
       <path id="CMMI12-78" d="M 3034 2624 
C 2829 2585 2752 2431 2752 2310 
C 2752 2156 2874 2105 2963 2105 
C 3155 2105 3290 2271 3290 2444 
C 3290 2694 2982 2816 2714 2816 
C 2323 2816 2106 2451 2048 2329 
C 1901 2790 1504 2816 1389 2816 
C 736 2816 390 1993 390 1849 
C 390 1823 416 1790 461 1790 
C 512 1790 525 1829 538 1855 
C 755 2572 1184 2687 1370 2687 
C 1658 2687 1715 2438 1715 2284 
C 1715 2143 1677 1993 1600 1678 
L 1382 778 
C 1286 390 1101 64 762 64 
C 730 64 570 64 435 126 
C 666 166 717 358 717 435 
C 717 563 621 640 499 640 
C 346 640 179 505 179 300 
C 179 57 480 -64 755 -64 
C 1062 -64 1280 153 1414 415 
C 1517 64 1837 -64 2074 -64 
C 2726 -64 3072 751 3072 896 
C 3072 929 3046 955 3008 955 
C 2950 955 2944 922 2925 870 
C 2752 300 2381 64 2093 64 
C 1869 64 1747 204 1747 467 
C 1747 607 1773 712 1875 1146 
L 2099 2039 
C 2195 2425 2413 2687 2707 2687 
C 2720 2687 2899 2687 3034 2624 
z
" transform="scale(0.015625)"/>
      </defs>
      <use xlink:href="#CMMI12-78" transform="scale(0.996264)"/>
     </g>
    </g>
   </g>
   <g id="matplotlib.axis_2">
    <g id="ytick_1">
     <g id="line2d_13">
      <path d="M 52.96645 167.93532 
L 417.96 167.93532 
" clip-path="url(#p17adbd912e)" style="fill: none; stroke: #b0b0b0; stroke-width: 0.8; stroke-linecap: square"/>
     </g>
     <g id="line2d_14">
      <defs>
       <path id="m3acb3610c0" d="M 0 0 
L -3.5 0 
" style="stroke: #000000; stroke-width: 0.8"/>
      </defs>
      <g>
       <use xlink:href="#m3acb3610c0" x="52.96645" y="167.93532" style="stroke: #000000; stroke-width: 0.8"/>
      </g>
     </g>
     <g id="text_8">
      <!-- $\mathdefault{−2}$ -->
      <g transform="translate(29.55234 172.432334) scale(0.13 -0.13)">
       <defs>
        <path id="CMSY10-0" d="M 4218 1472 
C 4326 1472 4442 1472 4442 1600 
C 4442 1728 4326 1728 4218 1728 
L 755 1728 
C 646 1728 531 1728 531 1600 
C 531 1472 646 1472 755 1472 
L 4218 1472 
z
" transform="scale(0.015625)"/>
       </defs>
       <use xlink:href="#CMSY10-0" transform="scale(0.996264)"/>
       <use xlink:href="#CMR17-32" transform="translate(77.487468 0) scale(0.996264)"/>
      </g>
     </g>
    </g>
    <g id="ytick_2">
     <g id="line2d_15">
      <path d="M 52.96645 138.055658 
L 417.96 138.055658 
" clip-path="url(#p17adbd912e)" style="fill: none; stroke: #b0b0b0; stroke-width: 0.8; stroke-linecap: square"/>
     </g>
     <g id="line2d_16">
      <g>
       <use xlink:href="#m3acb3610c0" x="52.96645" y="138.055658" style="stroke: #000000; stroke-width: 0.8"/>
      </g>
     </g>
     <g id="text_9">
      <!-- $\mathdefault{0}$ -->
      <g transform="translate(39.62571 142.552673) scale(0.13 -0.13)">
       <use xlink:href="#CMR17-30" transform="scale(0.996264)"/>
      </g>
     </g>
    </g>
    <g id="ytick_3">
     <g id="line2d_17">
      <path d="M 52.96645 108.175997 
L 417.96 108.175997 
" clip-path="url(#p17adbd912e)" style="fill: none; stroke: #b0b0b0; stroke-width: 0.8; stroke-linecap: square"/>
     </g>
     <g id="line2d_18">
      <g>
       <use xlink:href="#m3acb3610c0" x="52.96645" y="108.175997" style="stroke: #000000; stroke-width: 0.8"/>
      </g>
     </g>
     <g id="text_10">
      <!-- $\mathdefault{2}$ -->
      <g transform="translate(39.62571 112.673011) scale(0.13 -0.13)">
       <use xlink:href="#CMR17-32" transform="scale(0.996264)"/>
      </g>
     </g>
    </g>
    <g id="ytick_4">
     <g id="line2d_19">
      <path d="M 52.96645 78.296336 
L 417.96 78.296336 
" clip-path="url(#p17adbd912e)" style="fill: none; stroke: #b0b0b0; stroke-width: 0.8; stroke-linecap: square"/>
     </g>
     <g id="line2d_20">
      <g>
       <use xlink:href="#m3acb3610c0" x="52.96645" y="78.296336" style="stroke: #000000; stroke-width: 0.8"/>
      </g>
     </g>
     <g id="text_11">
      <!-- $\mathdefault{4}$ -->
      <g transform="translate(39.62571 82.79335) scale(0.13 -0.13)">
       <defs>
        <path id="CMR17-34" d="M 2150 4147 
C 2150 4281 2144 4288 2029 4288 
L 128 1254 
L 128 1088 
L 1779 1088 
L 1779 460 
C 1779 230 1766 166 1318 166 
L 1197 166 
L 1197 0 
C 1402 12 1747 12 1965 12 
C 2182 12 2528 12 2733 0 
L 2733 166 
L 2611 166 
C 2163 166 2150 230 2150 460 
L 2150 1088 
L 2803 1088 
L 2803 1254 
L 2150 1254 
L 2150 4147 
z
M 1798 3723 
L 1798 1254 
L 256 1254 
L 1798 3723 
z
" transform="scale(0.015625)"/>
       </defs>
       <use xlink:href="#CMR17-34" transform="scale(0.996264)"/>
      </g>
     </g>
    </g>
    <g id="ytick_5">
     <g id="line2d_21">
      <path d="M 52.96645 48.416675 
L 417.96 48.416675 
" clip-path="url(#p17adbd912e)" style="fill: none; stroke: #b0b0b0; stroke-width: 0.8; stroke-linecap: square"/>
     </g>
     <g id="line2d_22">
      <g>
       <use xlink:href="#m3acb3610c0" x="52.96645" y="48.416675" style="stroke: #000000; stroke-width: 0.8"/>
      </g>
     </g>
     <g id="text_12">
      <!-- $\mathdefault{6}$ -->
      <g transform="translate(39.62571 52.913689) scale(0.13 -0.13)">
       <defs>
        <path id="CMR17-36" d="M 678 2198 
C 678 3712 1395 4076 1811 4076 
C 1946 4076 2272 4049 2400 3782 
C 2298 3782 2106 3782 2106 3558 
C 2106 3385 2246 3328 2336 3328 
C 2394 3328 2566 3353 2566 3571 
C 2566 3987 2246 4224 1805 4224 
C 1043 4224 243 3411 243 2011 
C 243 257 966 -128 1478 -128 
C 2099 -128 2688 431 2688 1295 
C 2688 2101 2170 2688 1517 2688 
C 1126 2688 838 2430 678 1979 
L 678 2198 
z
M 1478 25 
C 691 25 691 1212 691 1450 
C 691 1914 909 2585 1504 2585 
C 1613 2585 1926 2585 2138 2140 
C 2253 1889 2253 1624 2253 1302 
C 2253 954 2253 696 2118 438 
C 1978 173 1773 25 1478 25 
z
" transform="scale(0.015625)"/>
       </defs>
       <use xlink:href="#CMR17-36" transform="scale(0.996264)"/>
      </g>
     </g>
    </g>
    <g id="ytick_6">
     <g id="line2d_23">
      <path d="M 52.96645 18.537014 
L 417.96 18.537014 
" clip-path="url(#p17adbd912e)" style="fill: none; stroke: #b0b0b0; stroke-width: 0.8; stroke-linecap: square"/>
     </g>
     <g id="line2d_24">
      <g>
       <use xlink:href="#m3acb3610c0" x="52.96645" y="18.537014" style="stroke: #000000; stroke-width: 0.8"/>
      </g>
     </g>
     <g id="text_13">
      <!-- $\mathdefault{8}$ -->
      <g transform="translate(39.62571 23.034028) scale(0.13 -0.13)">
       <defs>
        <path id="CMR17-38" d="M 1741 2289 
C 2144 2494 2554 2803 2554 3298 
C 2554 3884 1990 4224 1472 4224 
C 890 4224 378 3800 378 3215 
C 378 3054 416 2777 666 2533 
C 730 2469 998 2276 1171 2154 
C 883 2006 211 1652 211 945 
C 211 282 838 -128 1459 -128 
C 2144 -128 2720 366 2720 1022 
C 2720 1607 2330 1877 2074 2051 
L 1741 2289 
z
M 902 2855 
C 851 2887 595 3086 595 3388 
C 595 3781 998 4076 1459 4076 
C 1965 4076 2336 3716 2336 3298 
C 2336 2700 1670 2359 1638 2359 
C 1632 2359 1626 2359 1574 2398 
L 902 2855 
z
M 2080 1536 
C 2176 1466 2483 1253 2483 861 
C 2483 385 2010 25 1472 25 
C 890 25 448 443 448 951 
C 448 1459 838 1884 1280 2083 
L 2080 1536 
z
" transform="scale(0.015625)"/>
       </defs>
       <use xlink:href="#CMR17-38" transform="scale(0.996264)"/>
      </g>
     </g>
    </g>
    <g id="text_14">
     <!-- $f$ -->
     <g transform="translate(23.034028 96.361577) rotate(-90) scale(0.13 -0.13)">
      <defs>
       <path id="CMMI12-66" d="M 2854 2566 
C 2982 2566 3034 2566 3034 2687 
C 3034 2752 2982 2752 2867 2752 
L 2349 2752 
C 2470 3398 2560 3846 2611 4051 
C 2650 4204 2784 4351 2950 4351 
C 3085 4351 3219 4294 3283 4236 
C 3034 4211 2957 4025 2957 3916 
C 2957 3788 3053 3712 3174 3712 
C 3302 3712 3494 3820 3494 4064 
C 3494 4332 3226 4480 2944 4480 
C 2669 4480 2400 4275 2272 4025 
C 2157 3801 2093 3573 1946 2752 
L 1517 2752 
C 1395 2752 1331 2752 1331 2636 
C 1331 2566 1370 2566 1498 2566 
L 1907 2566 
C 1792 1977 1530 545 1382 -132 
C 1274 -685 1178 -1152 858 -1152 
C 838 -1152 653 -1152 538 -1031 
C 864 -1005 864 -724 864 -717 
C 864 -589 768 -512 646 -512 
C 518 -512 326 -621 326 -865 
C 326 -1140 608 -1280 858 -1280 
C 1510 -1280 1779 -113 1850 203 
C 1965 691 2278 2376 2310 2566 
L 2854 2566 
z
" transform="scale(0.015625)"/>
      </defs>
      <use xlink:href="#CMMI12-66" transform="scale(0.996264)"/>
     </g>
    </g>
   </g>
   <g id="line2d_25">
    <path d="M 69.557065 167.93532 
L 72.908712 167.171255 
L 76.260343 166.388139 
L 79.61199 165.585965 
L 82.963622 164.764741 
L 86.315268 163.92446 
L 89.6669 163.065128 
L 93.018547 162.186739 
L 96.370178 161.289299 
L 99.721825 160.372801 
L 103.073456 159.437254 
L 106.425103 158.482649 
L 109.776734 157.508993 
L 113.128381 156.51628 
L 116.480028 155.504513 
L 119.831659 154.473695 
L 123.18329 153.423826 
L 126.534937 152.354897 
L 129.886584 151.266911 
L 133.238215 150.15988 
L 136.589846 149.033793 
L 139.941493 147.888646 
L 143.29314 146.724449 
L 146.644771 145.5412 
L 149.996418 144.338891 
L 153.348049 143.117536 
L 156.699696 141.877121 
L 160.051343 140.61765 
L 163.402974 139.339133 
L 166.754605 138.04156 
L 170.106252 136.724931 
L 173.457899 135.389245 
L 176.80953 134.03451 
L 180.161161 132.660722 
L 183.512808 131.267875 
L 186.864455 129.855974 
L 190.216086 128.425025 
L 193.567717 126.975022 
L 196.919364 125.50596 
L 200.271011 124.017841 
L 203.622626 122.510684 
L 206.974305 120.984445 
L 210.32592 119.439179 
L 213.677567 117.874842 
L 217.029214 116.291456 
L 220.380829 114.689028 
L 223.732476 113.067536 
L 227.084123 111.426988 
L 230.43577 109.767384 
L 233.787417 108.088723 
L 237.139032 106.391027 
L 240.490679 104.674261 
L 243.842326 102.938445 
L 247.193973 101.183566 
L 250.54562 99.409638 
L 253.897235 97.616675 
L 257.248882 95.804641 
L 260.600529 93.973551 
L 263.952145 92.123426 
L 267.303823 90.254209 
L 270.655438 88.365978 
L 274.007085 86.45867 
L 277.358732 84.532312 
L 280.710348 82.586913 
L 284.061995 80.62245 
L 287.413641 78.638923 
L 290.765288 76.636347 
L 294.116935 74.614722 
L 297.468551 72.574055 
L 300.820198 70.514317 
L 304.171845 68.435523 
L 307.52346 66.337701 
L 310.875107 64.220802 
L 314.226754 62.084839 
L 317.578401 59.929841 
L 320.930048 57.755779 
L 324.281663 55.562682 
L 327.63331 53.350508 
L 330.984957 51.119285 
L 334.336604 48.869012 
L 337.688251 46.599676 
L 341.039866 44.311319 
L 344.391513 42.00387 
L 347.74316 39.677372 
L 351.094775 37.331854 
L 354.446422 34.967257 
L 357.798069 32.583597 
L 361.149716 30.180888 
L 364.501363 27.759116 
L 367.852978 25.318322 
L 371.204625 22.858451 
L 374.556272 20.379531 
L 377.907919 17.881547 
L 381.259534 15.364543 
L 384.611181 12.828446 
L 387.962828 10.273315 
L 391.314475 7.69912 
L 394.66609 5.10589 
L 398.017737 2.493583 
L 401.369384 -0.137774 
" clip-path="url(#p17adbd912e)" style="fill: none; stroke: #808080; stroke-width: 1.5; stroke-linecap: square"/>
   </g>
   <g id="line2d_26">
    <path d="M 335.00692 138.055658 
L 335.00692 48.416675 
" clip-path="url(#p17adbd912e)" style="fill: none; stroke-dasharray: 1.5,2.475; stroke-dashoffset: 0; stroke: #000000; stroke-width: 1.5"/>
   </g>
   <g id="line2d_27">
    <defs>
     <path id="me21e3405db" d="M 0 3 
C 0.795609 3 1.55874 2.683901 2.12132 2.12132 
C 2.683901 1.55874 3 0.795609 3 0 
C 3 -0.795609 2.683901 -1.55874 2.12132 -2.12132 
C 1.55874 -2.683901 0.795609 -3 0 -3 
C -0.795609 -3 -1.55874 -2.683901 -2.12132 -2.12132 
C -2.683901 -1.55874 -3 -0.795609 -3 0 
C -3 0.795609 -2.683901 1.55874 -2.12132 2.12132 
C -1.55874 2.683901 -0.795609 3 0 3 
z
" style="stroke: #000000"/>
    </defs>
    <g clip-path="url(#p17adbd912e)">
     <use xlink:href="#me21e3405db" x="335.00692" y="48.416675" style="stroke: #000000"/>
    </g>
   </g>
   <g id="line2d_28">
    <path d="M 202.281993 138.055658 
L 203.622658 137.150208 
L 204.963291 136.244779 
L 206.303957 135.339328 
L 207.644622 134.433878 
L 208.985287 133.528427 
L 210.32592 132.622998 
L 211.666585 131.717547 
L 213.00725 130.812097 
L 214.347884 129.906668 
L 215.688549 129.001217 
L 217.029214 128.095767 
L 218.369848 127.190338 
L 219.710513 126.284887 
L 221.051178 125.379436 
L 222.391843 124.473986 
L 223.732476 123.568557 
L 225.073141 122.663106 
L 226.413807 121.757656 
L 227.75444 120.852227 
L 229.095105 119.946776 
L 230.43577 119.041325 
L 231.776435 118.135875 
L 233.117069 117.230446 
L 234.457734 116.324995 
L 235.798399 115.419545 
L 237.139032 114.514116 
L 238.479698 113.608665 
L 239.820363 112.703214 
L 241.160996 111.797785 
L 242.501661 110.892335 
L 243.842326 109.986884 
L 245.182991 109.081434 
L 246.523625 108.176005 
L 247.86429 107.270554 
L 249.204955 106.365103 
L 250.54562 105.459653 
L 251.886254 104.554224 
L 253.226919 103.648773 
L 254.567584 102.743323 
L 255.908217 101.837894 
L 257.248882 100.932443 
L 258.589547 100.026992 
L 259.930181 99.121563 
L 261.270846 98.216113 
L 262.611511 97.310662 
L 263.952145 96.405233 
L 265.29281 95.499782 
L 266.633475 94.594332 
L 267.97414 93.688881 
L 269.314773 92.783452 
L 270.655438 91.878002 
L 271.996104 90.972551 
L 273.336769 90.067101 
L 274.677402 89.161671 
L 276.018067 88.256221 
L 277.358732 87.35077 
L 278.699366 86.445341 
L 280.040031 85.539891 
L 281.380696 84.63444 
L 282.721329 83.729011 
L 284.061995 82.82356 
L 285.40266 81.91811 
L 286.743293 81.012681 
L 288.083958 80.10723 
L 289.424623 79.20178 
L 290.765288 78.296329 
L 292.105922 77.3909 
L 293.446587 76.485449 
L 294.787252 75.579999 
L 296.127917 74.674548 
L 297.468551 73.769119 
L 298.809216 72.863669 
L 300.149881 71.958218 
L 301.490514 71.052789 
L 302.831179 70.147338 
L 304.171845 69.241888 
L 305.512478 68.336459 
L 306.853143 67.431008 
L 308.193808 66.525558 
L 309.534473 65.620107 
L 310.875107 64.714678 
L 312.215772 63.809227 
L 313.556437 62.903777 
L 314.89707 61.998348 
L 316.237735 61.092897 
L 317.578401 60.187447 
L 318.919066 59.281996 
L 320.259699 58.376567 
L 321.600364 57.471116 
L 322.941029 56.565666 
L 324.281663 55.660237 
L 325.622328 54.754786 
L 326.962993 53.849336 
L 328.303626 52.943906 
L 329.644292 52.038456 
L 330.984957 51.133005 
L 332.325622 50.227555 
L 333.666255 49.322126 
L 335.00692 48.416675 
" clip-path="url(#p17adbd912e)" style="fill: none; stroke: #000000; stroke-width: 1.5; stroke-linecap: square"/>
   </g>
   <g id="line2d_29">
    <g clip-path="url(#p17adbd912e)">
     <use xlink:href="#me21e3405db" x="202.281993" y="123.115828" style="stroke: #000000"/>
    </g>
   </g>
   <g id="line2d_30">
    <path d="M 202.281993 138.055658 
L 202.281993 123.115828 
" clip-path="url(#p17adbd912e)" style="fill: none; stroke-dasharray: 1.5,2.475; stroke-dashoffset: 0; stroke: #000000; stroke-width: 1.5"/>
   </g>
   <g id="line2d_31">
    <path d="M 169.100761 138.055658 
L 169.435919 137.904754 
L 169.771094 137.753842 
L 170.106252 137.602937 
L 170.44141 137.452032 
L 170.776585 137.30112 
L 171.111743 137.150215 
L 171.446901 136.99931 
L 171.782075 136.848398 
L 172.117234 136.697493 
L 172.452408 136.546581 
L 172.787566 136.395677 
L 173.122725 136.244772 
L 173.457899 136.09386 
L 173.793057 135.942955 
L 174.128216 135.79205 
L 174.46339 135.641138 
L 174.798548 135.490233 
L 175.133707 135.339328 
L 175.468881 135.188416 
L 175.804039 135.037511 
L 176.139197 134.886607 
L 176.474372 134.735695 
L 176.80953 134.58479 
L 177.144688 134.433885 
L 177.479863 134.282973 
L 177.815021 134.132068 
L 178.150195 133.981156 
L 178.485353 133.830251 
L 178.820512 133.679346 
L 179.155686 133.528434 
L 179.490844 133.377529 
L 179.826003 133.226625 
L 180.161177 133.075713 
L 180.496335 132.924808 
L 180.831494 132.773903 
L 181.166668 132.622991 
L 181.501826 132.472086 
L 181.836985 132.321181 
L 182.172159 132.170269 
L 182.507317 132.019364 
L 182.842491 131.868452 
L 183.17765 131.717547 
L 183.512808 131.566643 
L 183.847982 131.415731 
L 184.183141 131.264826 
L 184.518299 131.113921 
L 184.853473 130.963009 
L 185.188632 130.812104 
L 185.52379 130.661199 
L 185.858964 130.510287 
L 186.194122 130.359382 
L 186.529281 130.208478 
L 186.864455 130.057566 
L 187.199613 129.906661 
L 187.534772 129.755756 
L 187.869946 129.604844 
L 188.205104 129.453939 
L 188.540263 129.303034 
L 188.875437 129.152122 
L 189.210595 129.001217 
L 189.545769 128.850305 
L 189.880928 128.6994 
L 190.216086 128.548496 
L 190.55126 128.397584 
L 190.886419 128.246679 
L 191.221577 128.095774 
L 191.556751 127.944862 
L 191.89191 127.793957 
L 192.227068 127.643052 
L 192.562242 127.49214 
L 192.8974 127.341235 
L 193.232559 127.19033 
L 193.567733 127.039418 
L 193.902891 126.888514 
L 194.238066 126.737602 
L 194.573224 126.586697 
L 194.908382 126.435792 
L 195.243556 126.28488 
L 195.578715 126.133975 
L 195.913873 125.98307 
L 196.249047 125.832158 
L 196.584206 125.681253 
L 196.919364 125.530348 
L 197.254538 125.379436 
L 197.589697 125.228532 
L 197.924855 125.077627 
L 198.260029 124.926715 
L 198.595188 124.77581 
L 198.930346 124.624905 
L 199.26552 124.473993 
L 199.600679 124.323088 
L 199.935853 124.172176 
L 200.271011 124.021271 
L 200.606169 123.870366 
L 200.941344 123.719455 
L 201.276502 123.56855 
L 201.61166 123.417645 
L 201.946835 123.266733 
L 202.281993 123.115828 
" clip-path="url(#p17adbd912e)" style="fill: none; stroke: #000000; stroke-width: 1.5; stroke-linecap: square"/>
   </g>
   <g id="line2d_32">
    <g clip-path="url(#p17adbd912e)">
     <use xlink:href="#me21e3405db" x="169.100761" y="137.121919" style="stroke: #000000"/>
    </g>
   </g>
   <g id="line2d_33">
    <path d="M 169.100761 138.055658 
L 169.100761 137.121919 
" clip-path="url(#p17adbd912e)" style="fill: none; stroke-dasharray: 1.5,2.475; stroke-dashoffset: 0; stroke: #000000; stroke-width: 1.5"/>
   </g>
   <g id="patch_3">
    <path d="M 52.96645 167.93532 
L 52.96645 18.537014 
" style="fill: none; stroke: #000000; stroke-width: 0.8; stroke-linejoin: miter; stroke-linecap: square"/>
   </g>
   <g id="patch_4">
    <path d="M 417.96 167.93532 
L 417.96 18.537014 
" style="fill: none; stroke: #000000; stroke-width: 0.8; stroke-linejoin: miter; stroke-linecap: square"/>
   </g>
   <g id="patch_5">
    <path d="M 52.96645 167.93532 
L 417.96 167.93532 
" style="fill: none; stroke: #000000; stroke-width: 0.8; stroke-linejoin: miter; stroke-linecap: square"/>
   </g>
   <g id="patch_6">
    <path d="M 52.96645 18.537014 
L 417.96 18.537014 
" style="fill: none; stroke: #000000; stroke-width: 0.8; stroke-linejoin: miter; stroke-linecap: square"/>
   </g>
   <g id="text_15">
    <!-- $x^0$ -->
    <g transform="translate(321.734428 46.175701) scale(0.13 -0.13)">
     <use xlink:href="#CMMI12-78" transform="scale(0.996264)"/>
     <use xlink:href="#CMR17-30" transform="translate(55.43406 36.153639) scale(0.697382)"/>
    </g>
   </g>
   <g id="text_16">
    <!-- $x^1$ -->
    <g transform="translate(189.0095 120.127862) scale(0.13 -0.13)">
     <use xlink:href="#CMMI12-78" transform="scale(0.996264)"/>
     <use xlink:href="#CMR17-31" transform="translate(55.43406 36.153639) scale(0.697382)"/>
    </g>
   </g>
   <g id="text_17">
    <!-- $x^2$ -->
    <g transform="translate(162.464515 132.079726) scale(0.13 -0.13)">
     <use xlink:href="#CMMI12-78" transform="scale(0.996264)"/>
     <use xlink:href="#CMR17-32" transform="translate(55.43406 36.153639) scale(0.697382)"/>
    </g>
   </g>
   <g id="legend_1">
    <g id="patch_7">
     <path d="M 62.06645 48.388446 
L 128.369878 48.388446 
Q 130.969878 48.388446 130.969878 45.788446 
L 130.969878 27.637014 
Q 130.969878 25.037014 128.369878 25.037014 
L 62.06645 25.037014 
Q 59.46645 25.037014 59.46645 27.637014 
L 59.46645 45.788446 
Q 59.46645 48.388446 62.06645 48.388446 
z
" style="fill: #ffffff; opacity: 0.8; stroke: #cccccc; stroke-linejoin: miter"/>
    </g>
    <g id="line2d_34">
     <path d="M 64.66645 35.400588 
L 77.66645 35.400588 
L 90.66645 35.400588 
" style="fill: none; stroke: #808080; stroke-width: 1.5; stroke-linecap: square"/>
    </g>
    <g id="text_18">
     <!-- $f(x)$ -->
     <g transform="translate(101.06645 39.950588) scale(0.13 -0.13)">
      <defs>
       <path id="CMR17-28" d="M 1958 -1562 
C 1958 -1556 1958 -1543 1939 -1524 
C 1645 -1223 858 -403 858 1596 
C 858 3595 1632 4408 1946 4729 
C 1946 4735 1958 4748 1958 4767 
C 1958 4787 1939 4800 1914 4800 
C 1843 4800 1299 4325 986 3620 
C 666 2909 576 2218 576 1603 
C 576 1141 621 360 1005 -467 
C 1312 -1133 1837 -1600 1914 -1600 
C 1946 -1600 1958 -1588 1958 -1562 
z
" transform="scale(0.015625)"/>
       <path id="CMR17-29" d="M 1683 1596 
C 1683 2057 1638 2839 1254 3665 
C 947 4332 422 4800 346 4800 
C 326 4800 301 4793 301 4761 
C 301 4748 307 4742 314 4729 
C 621 4408 1402 3595 1402 1603 
C 1402 -396 627 -1210 314 -1530 
C 307 -1543 301 -1549 301 -1562 
C 301 -1594 326 -1600 346 -1600 
C 416 -1600 960 -1127 1274 -422 
C 1594 289 1683 981 1683 1596 
z
" transform="scale(0.015625)"/>
      </defs>
      <use xlink:href="#CMMI12-66" transform="scale(0.996264)"/>
      <use xlink:href="#CMR17-28" transform="translate(58.720305 0) scale(0.996264)"/>
      <use xlink:href="#CMMI12-78" transform="translate(94.001073 0) scale(0.996264)"/>
      <use xlink:href="#CMR17-29" transform="translate(149.435132 0) scale(0.996264)"/>
     </g>
    </g>
   </g>
  </g>
 </g>
 <defs>
  <clipPath id="p17adbd912e">
   <rect x="52.96645" y="18.537014" width="364.99355" height="149.398306"/>
  </clipPath>
 </defs>
</svg>
