<?xml version="1.0" encoding="utf-8" standalone="no"?>
<!DOCTYPE svg PUBLIC "-//W3C//DTD SVG 1.1//EN"
  "http://www.w3.org/Graphics/SVG/1.1/DTD/svg11.dtd">
<svg xmlns:xlink="http://www.w3.org/1999/xlink" width="432pt" height="216pt" viewBox="0 0 432 216" xmlns="http://www.w3.org/2000/svg" version="1.1">
 <metadata>
  <rdf:RDF xmlns:dc="http://purl.org/dc/elements/1.1/" xmlns:cc="http://creativecommons.org/ns#" xmlns:rdf="http://www.w3.org/1999/02/22-rdf-syntax-ns#">
   <cc:Work>
    <dc:type rdf:resource="http://purl.org/dc/dcmitype/StillImage"/>
    <dc:date>2024-02-21T18:16:35.572389</dc:date>
    <dc:format>image/svg+xml</dc:format>
    <dc:creator>
     <cc:Agent>
      <dc:title>Matplotlib v3.6.3, https://matplotlib.org/</dc:title>
     </cc:Agent>
    </dc:creator>
   </cc:Work>
  </rdf:RDF>
 </metadata>
 <defs>
  <style type="text/css">*{stroke-linejoin: round; stroke-linecap: butt}</style>
 </defs>
 <g id="figure_1">
  <g id="patch_1">
   <path d="M 0 216 
L 432 216 
L 432 0 
L 0 0 
L 0 216 
z
" style="fill: none"/>
  </g>
  <g id="axes_1">
   <g id="patch_2">
    <path d="M 43.385756 176.488647 
L 421.2 176.488647 
L 421.2 14.259249 
L 43.385756 14.259249 
L 43.385756 176.488647 
z
" style="fill: none"/>
   </g>
   <g id="matplotlib.axis_1">
    <g id="xtick_1">
     <g id="line2d_1">
      <path d="M 60.55913 176.488647 
L 60.55913 14.259249 
" clip-path="url(#p502b46cd6c)" style="fill: none; stroke: #b0b0b0; stroke-width: 0.8; stroke-linecap: square"/>
     </g>
     <g id="line2d_2">
      <defs>
       <path id="m120b3683c3" d="M 0 0 
L 0 3.5 
" style="stroke: #000000; stroke-width: 0.8"/>
      </defs>
      <g>
       <use xlink:href="#m120b3683c3" x="60.55913" y="176.488647" style="stroke: #000000; stroke-width: 0.8"/>
      </g>
     </g>
     <g id="text_1">
      <!-- $\mathdefault{1.0}$ -->
      <g transform="translate(54.194091 190.407145) scale(0.1 -0.1)">
       <defs>
        <path id="CMR17-31" d="M 1702 4083 
C 1702 4217 1696 4224 1606 4224 
C 1357 3927 979 3833 621 3820 
C 602 3820 570 3820 563 3808 
C 557 3795 557 3782 557 3648 
C 755 3648 1088 3686 1344 3839 
L 1344 467 
C 1344 243 1331 166 781 166 
L 589 166 
L 589 0 
C 896 6 1216 12 1523 12 
C 1830 12 2150 6 2458 0 
L 2458 166 
L 2266 166 
C 1715 166 1702 236 1702 467 
L 1702 4083 
z
" transform="scale(0.015625)"/>
        <path id="CMMI12-3a" d="M 1178 307 
C 1178 492 1024 620 870 620 
C 685 620 557 467 557 313 
C 557 128 710 0 864 0 
C 1050 0 1178 153 1178 307 
z
" transform="scale(0.015625)"/>
        <path id="CMR17-30" d="M 2688 2038 
C 2688 2430 2682 3099 2413 3613 
C 2176 4063 1798 4224 1466 4224 
C 1158 4224 768 4082 525 3620 
C 269 3137 243 2539 243 2038 
C 243 1671 250 1112 448 623 
C 723 -39 1216 -128 1466 -128 
C 1760 -128 2208 -7 2470 604 
C 2662 1048 2688 1568 2688 2038 
z
M 1466 -26 
C 1056 -26 813 328 723 816 
C 653 1196 653 1749 653 2109 
C 653 2604 653 3015 736 3407 
C 858 3954 1216 4121 1466 4121 
C 1728 4121 2067 3947 2189 3420 
C 2272 3054 2278 2623 2278 2109 
C 2278 1691 2278 1176 2202 797 
C 2067 96 1690 -26 1466 -26 
z
" transform="scale(0.015625)"/>
       </defs>
       <use xlink:href="#CMR17-31" transform="scale(0.996264)"/>
       <use xlink:href="#CMMI12-3a" transform="translate(45.690477 0) scale(0.996264)"/>
       <use xlink:href="#CMR17-30" transform="translate(72.787654 0) scale(0.996264)"/>
      </g>
     </g>
    </g>
    <g id="xtick_2">
     <g id="line2d_3">
      <path d="M 129.252629 176.488647 
L 129.252629 14.259249 
" clip-path="url(#p502b46cd6c)" style="fill: none; stroke: #b0b0b0; stroke-width: 0.8; stroke-linecap: square"/>
     </g>
     <g id="line2d_4">
      <g>
       <use xlink:href="#m120b3683c3" x="129.252629" y="176.488647" style="stroke: #000000; stroke-width: 0.8"/>
      </g>
     </g>
     <g id="text_2">
      <!-- $\mathdefault{1.5}$ -->
      <g transform="translate(122.88759 190.407145) scale(0.1 -0.1)">
       <defs>
        <path id="CMR17-35" d="M 730 3750 
C 794 3724 1056 3641 1325 3641 
C 1920 3641 2246 3961 2432 4140 
C 2432 4191 2432 4224 2394 4224 
C 2387 4224 2374 4224 2323 4198 
C 2099 4102 1837 4032 1517 4032 
C 1325 4032 1037 4055 723 4191 
C 653 4224 640 4224 634 4224 
C 602 4224 595 4217 595 4090 
L 595 2231 
C 595 2113 595 2080 659 2080 
C 691 2080 704 2093 736 2139 
C 941 2435 1222 2560 1542 2560 
C 1766 2560 2246 2415 2246 1293 
C 2246 1087 2246 716 2054 422 
C 1894 159 1645 25 1370 25 
C 947 25 518 319 403 812 
C 429 806 480 793 506 793 
C 589 793 749 838 749 1036 
C 749 1209 627 1280 506 1280 
C 358 1280 262 1190 262 1011 
C 262 454 704 -128 1382 -128 
C 2042 -128 2669 441 2669 1267 
C 2669 2054 2170 2662 1549 2662 
C 1222 2662 947 2540 730 2304 
L 730 3750 
z
" transform="scale(0.015625)"/>
       </defs>
       <use xlink:href="#CMR17-31" transform="scale(0.996264)"/>
       <use xlink:href="#CMMI12-3a" transform="translate(45.690477 0) scale(0.996264)"/>
       <use xlink:href="#CMR17-35" transform="translate(72.787654 0) scale(0.996264)"/>
      </g>
     </g>
    </g>
    <g id="xtick_3">
     <g id="line2d_5">
      <path d="M 197.946128 176.488647 
L 197.946128 14.259249 
" clip-path="url(#p502b46cd6c)" style="fill: none; stroke: #b0b0b0; stroke-width: 0.8; stroke-linecap: square"/>
     </g>
     <g id="line2d_6">
      <g>
       <use xlink:href="#m120b3683c3" x="197.946128" y="176.488647" style="stroke: #000000; stroke-width: 0.8"/>
      </g>
     </g>
     <g id="text_3">
      <!-- $\mathdefault{2.0}$ -->
      <g transform="translate(191.581089 190.407145) scale(0.1 -0.1)">
       <defs>
        <path id="CMR17-32" d="M 2669 990 
L 2554 990 
C 2490 537 2438 460 2413 422 
C 2381 371 1920 371 1830 371 
L 602 371 
C 832 620 1280 1073 1824 1596 
C 2214 1966 2669 2400 2669 3033 
C 2669 3788 2067 4224 1395 4224 
C 691 4224 262 3603 262 3027 
C 262 2777 448 2745 525 2745 
C 589 2745 781 2783 781 3007 
C 781 3206 614 3264 525 3264 
C 486 3264 448 3257 422 3244 
C 544 3788 915 4057 1306 4057 
C 1862 4057 2227 3616 2227 3033 
C 2227 2477 1901 1998 1536 1583 
L 262 147 
L 262 0 
L 2515 0 
L 2669 990 
z
" transform="scale(0.015625)"/>
       </defs>
       <use xlink:href="#CMR17-32" transform="scale(0.996264)"/>
       <use xlink:href="#CMMI12-3a" transform="translate(45.690477 0) scale(0.996264)"/>
       <use xlink:href="#CMR17-30" transform="translate(72.787654 0) scale(0.996264)"/>
      </g>
     </g>
    </g>
    <g id="xtick_4">
     <g id="line2d_7">
      <path d="M 266.639627 176.488647 
L 266.639627 14.259249 
" clip-path="url(#p502b46cd6c)" style="fill: none; stroke: #b0b0b0; stroke-width: 0.8; stroke-linecap: square"/>
     </g>
     <g id="line2d_8">
      <g>
       <use xlink:href="#m120b3683c3" x="266.639627" y="176.488647" style="stroke: #000000; stroke-width: 0.8"/>
      </g>
     </g>
     <g id="text_4">
      <!-- $\mathdefault{2.5}$ -->
      <g transform="translate(260.274588 190.407145) scale(0.1 -0.1)">
       <use xlink:href="#CMR17-32" transform="scale(0.996264)"/>
       <use xlink:href="#CMMI12-3a" transform="translate(45.690477 0) scale(0.996264)"/>
       <use xlink:href="#CMR17-35" transform="translate(72.787654 0) scale(0.996264)"/>
      </g>
     </g>
    </g>
    <g id="xtick_5">
     <g id="line2d_9">
      <path d="M 335.333126 176.488647 
L 335.333126 14.259249 
" clip-path="url(#p502b46cd6c)" style="fill: none; stroke: #b0b0b0; stroke-width: 0.8; stroke-linecap: square"/>
     </g>
     <g id="line2d_10">
      <g>
       <use xlink:href="#m120b3683c3" x="335.333126" y="176.488647" style="stroke: #000000; stroke-width: 0.8"/>
      </g>
     </g>
     <g id="text_5">
      <!-- $\mathdefault{3.0}$ -->
      <g transform="translate(328.968087 190.407145) scale(0.1 -0.1)">
       <defs>
        <path id="CMR17-33" d="M 1414 2176 
C 1984 2176 2234 1673 2234 1094 
C 2234 322 1824 25 1453 25 
C 1114 25 563 193 390 691 
C 422 678 454 678 486 678 
C 640 678 755 780 755 947 
C 755 1132 614 1216 486 1216 
C 378 1216 211 1164 211 927 
C 211 335 787 -128 1466 -128 
C 2176 -128 2720 432 2720 1087 
C 2720 1718 2208 2176 1600 2246 
C 2086 2347 2554 2776 2554 3353 
C 2554 3856 2048 4224 1472 4224 
C 890 4224 378 3862 378 3347 
C 378 3123 544 3084 627 3084 
C 762 3084 877 3167 877 3334 
C 877 3500 762 3584 627 3584 
C 602 3584 570 3584 544 3571 
C 730 3999 1235 4076 1459 4076 
C 1683 4076 2106 3966 2106 3347 
C 2106 3167 2080 2851 1862 2574 
C 1670 2329 1453 2316 1242 2297 
C 1210 2297 1062 2284 1037 2284 
C 992 2278 966 2272 966 2227 
C 966 2182 973 2176 1101 2176 
L 1414 2176 
z
" transform="scale(0.015625)"/>
       </defs>
       <use xlink:href="#CMR17-33" transform="scale(0.996264)"/>
       <use xlink:href="#CMMI12-3a" transform="translate(45.690477 0) scale(0.996264)"/>
       <use xlink:href="#CMR17-30" transform="translate(72.787654 0) scale(0.996264)"/>
      </g>
     </g>
    </g>
    <g id="xtick_6">
     <g id="line2d_11">
      <path d="M 404.026625 176.488647 
L 404.026625 14.259249 
" clip-path="url(#p502b46cd6c)" style="fill: none; stroke: #b0b0b0; stroke-width: 0.8; stroke-linecap: square"/>
     </g>
     <g id="line2d_12">
      <g>
       <use xlink:href="#m120b3683c3" x="404.026625" y="176.488647" style="stroke: #000000; stroke-width: 0.8"/>
      </g>
     </g>
     <g id="text_6">
      <!-- $\mathdefault{3.5}$ -->
      <g transform="translate(397.661586 190.407145) scale(0.1 -0.1)">
       <use xlink:href="#CMR17-33" transform="scale(0.996264)"/>
       <use xlink:href="#CMMI12-3a" transform="translate(45.690477 0) scale(0.996264)"/>
       <use xlink:href="#CMR17-35" transform="translate(72.787654 0) scale(0.996264)"/>
      </g>
     </g>
    </g>
    <g id="text_7">
     <!-- $x$ -->
     <g transform="translate(229.445918 203.262822) scale(0.1 -0.1)">
      <defs>
       <path id="CMMI12-78" d="M 3034 2624 
C 2829 2585 2752 2431 2752 2310 
C 2752 2156 2874 2105 2963 2105 
C 3155 2105 3290 2271 3290 2444 
C 3290 2694 2982 2816 2714 2816 
C 2323 2816 2106 2451 2048 2329 
C 1901 2790 1504 2816 1389 2816 
C 736 2816 390 1993 390 1849 
C 390 1823 416 1790 461 1790 
C 512 1790 525 1829 538 1855 
C 755 2572 1184 2687 1370 2687 
C 1658 2687 1715 2438 1715 2284 
C 1715 2143 1677 1993 1600 1678 
L 1382 778 
C 1286 390 1101 64 762 64 
C 730 64 570 64 435 126 
C 666 166 717 358 717 435 
C 717 563 621 640 499 640 
C 346 640 179 505 179 300 
C 179 57 480 -64 755 -64 
C 1062 -64 1280 153 1414 415 
C 1517 64 1837 -64 2074 -64 
C 2726 -64 3072 751 3072 896 
C 3072 929 3046 955 3008 955 
C 2950 955 2944 922 2925 870 
C 2752 300 2381 64 2093 64 
C 1869 64 1747 204 1747 467 
C 1747 607 1773 712 1875 1146 
L 2099 2039 
C 2195 2425 2413 2687 2707 2687 
C 2720 2687 2899 2687 3034 2624 
z
" transform="scale(0.015625)"/>
      </defs>
      <use xlink:href="#CMMI12-78" transform="scale(0.996264)"/>
     </g>
    </g>
   </g>
   <g id="matplotlib.axis_2">
    <g id="ytick_1">
     <g id="line2d_13">
      <path d="M 43.385756 176.488647 
L 421.2 176.488647 
" clip-path="url(#p502b46cd6c)" style="fill: none; stroke: #b0b0b0; stroke-width: 0.8; stroke-linecap: square"/>
     </g>
     <g id="line2d_14">
      <defs>
       <path id="m70f1871c3f" d="M 0 0 
L -3.5 0 
" style="stroke: #000000; stroke-width: 0.8"/>
      </defs>
      <g>
       <use xlink:href="#m70f1871c3f" x="43.385756" y="176.488647" style="stroke: #000000; stroke-width: 0.8"/>
      </g>
     </g>
     <g id="text_8">
      <!-- $\mathdefault{−2}$ -->
      <g transform="translate(23.655677 179.947896) scale(0.1 -0.1)">
       <defs>
        <path id="CMSY10-0" d="M 4218 1472 
C 4326 1472 4442 1472 4442 1600 
C 4442 1728 4326 1728 4218 1728 
L 755 1728 
C 646 1728 531 1728 531 1600 
C 531 1472 646 1472 755 1472 
L 4218 1472 
z
" transform="scale(0.015625)"/>
       </defs>
       <use xlink:href="#CMSY10-0" transform="scale(0.996264)"/>
       <use xlink:href="#CMR17-32" transform="translate(77.487468 0) scale(0.996264)"/>
      </g>
     </g>
    </g>
    <g id="ytick_2">
     <g id="line2d_15">
      <path d="M 43.385756 144.042767 
L 421.2 144.042767 
" clip-path="url(#p502b46cd6c)" style="fill: none; stroke: #b0b0b0; stroke-width: 0.8; stroke-linecap: square"/>
     </g>
     <g id="line2d_16">
      <g>
       <use xlink:href="#m70f1871c3f" x="43.385756" y="144.042767" style="stroke: #000000; stroke-width: 0.8"/>
      </g>
     </g>
     <g id="text_9">
      <!-- $\mathdefault{0}$ -->
      <g transform="translate(31.40442 147.502016) scale(0.1 -0.1)">
       <use xlink:href="#CMR17-30" transform="scale(0.996264)"/>
      </g>
     </g>
    </g>
    <g id="ytick_3">
     <g id="line2d_17">
      <path d="M 43.385756 111.596888 
L 421.2 111.596888 
" clip-path="url(#p502b46cd6c)" style="fill: none; stroke: #b0b0b0; stroke-width: 0.8; stroke-linecap: square"/>
     </g>
     <g id="line2d_18">
      <g>
       <use xlink:href="#m70f1871c3f" x="43.385756" y="111.596888" style="stroke: #000000; stroke-width: 0.8"/>
      </g>
     </g>
     <g id="text_10">
      <!-- $\mathdefault{2}$ -->
      <g transform="translate(31.40442 115.056137) scale(0.1 -0.1)">
       <use xlink:href="#CMR17-32" transform="scale(0.996264)"/>
      </g>
     </g>
    </g>
    <g id="ytick_4">
     <g id="line2d_19">
      <path d="M 43.385756 79.151008 
L 421.2 79.151008 
" clip-path="url(#p502b46cd6c)" style="fill: none; stroke: #b0b0b0; stroke-width: 0.8; stroke-linecap: square"/>
     </g>
     <g id="line2d_20">
      <g>
       <use xlink:href="#m70f1871c3f" x="43.385756" y="79.151008" style="stroke: #000000; stroke-width: 0.8"/>
      </g>
     </g>
     <g id="text_11">
      <!-- $\mathdefault{4}$ -->
      <g transform="translate(31.40442 82.610257) scale(0.1 -0.1)">
       <defs>
        <path id="CMR17-34" d="M 2150 4147 
C 2150 4281 2144 4288 2029 4288 
L 128 1254 
L 128 1088 
L 1779 1088 
L 1779 460 
C 1779 230 1766 166 1318 166 
L 1197 166 
L 1197 0 
C 1402 12 1747 12 1965 12 
C 2182 12 2528 12 2733 0 
L 2733 166 
L 2611 166 
C 2163 166 2150 230 2150 460 
L 2150 1088 
L 2803 1088 
L 2803 1254 
L 2150 1254 
L 2150 4147 
z
M 1798 3723 
L 1798 1254 
L 256 1254 
L 1798 3723 
z
" transform="scale(0.015625)"/>
       </defs>
       <use xlink:href="#CMR17-34" transform="scale(0.996264)"/>
      </g>
     </g>
    </g>
    <g id="ytick_5">
     <g id="line2d_21">
      <path d="M 43.385756 46.705129 
L 421.2 46.705129 
" clip-path="url(#p502b46cd6c)" style="fill: none; stroke: #b0b0b0; stroke-width: 0.8; stroke-linecap: square"/>
     </g>
     <g id="line2d_22">
      <g>
       <use xlink:href="#m70f1871c3f" x="43.385756" y="46.705129" style="stroke: #000000; stroke-width: 0.8"/>
      </g>
     </g>
     <g id="text_12">
      <!-- $\mathdefault{6}$ -->
      <g transform="translate(31.40442 50.164378) scale(0.1 -0.1)">
       <defs>
        <path id="CMR17-36" d="M 678 2198 
C 678 3712 1395 4076 1811 4076 
C 1946 4076 2272 4049 2400 3782 
C 2298 3782 2106 3782 2106 3558 
C 2106 3385 2246 3328 2336 3328 
C 2394 3328 2566 3353 2566 3571 
C 2566 3987 2246 4224 1805 4224 
C 1043 4224 243 3411 243 2011 
C 243 257 966 -128 1478 -128 
C 2099 -128 2688 431 2688 1295 
C 2688 2101 2170 2688 1517 2688 
C 1126 2688 838 2430 678 1979 
L 678 2198 
z
M 1478 25 
C 691 25 691 1212 691 1450 
C 691 1914 909 2585 1504 2585 
C 1613 2585 1926 2585 2138 2140 
C 2253 1889 2253 1624 2253 1302 
C 2253 954 2253 696 2118 438 
C 1978 173 1773 25 1478 25 
z
" transform="scale(0.015625)"/>
       </defs>
       <use xlink:href="#CMR17-36" transform="scale(0.996264)"/>
      </g>
     </g>
    </g>
    <g id="ytick_6">
     <g id="line2d_23">
      <path d="M 43.385756 14.259249 
L 421.2 14.259249 
" clip-path="url(#p502b46cd6c)" style="fill: none; stroke: #b0b0b0; stroke-width: 0.8; stroke-linecap: square"/>
     </g>
     <g id="line2d_24">
      <g>
       <use xlink:href="#m70f1871c3f" x="43.385756" y="14.259249" style="stroke: #000000; stroke-width: 0.8"/>
      </g>
     </g>
     <g id="text_13">
      <!-- $\mathdefault{8}$ -->
      <g transform="translate(31.40442 17.718498) scale(0.1 -0.1)">
       <defs>
        <path id="CMR17-38" d="M 1741 2289 
C 2144 2494 2554 2803 2554 3298 
C 2554 3884 1990 4224 1472 4224 
C 890 4224 378 3800 378 3215 
C 378 3054 416 2777 666 2533 
C 730 2469 998 2276 1171 2154 
C 883 2006 211 1652 211 945 
C 211 282 838 -128 1459 -128 
C 2144 -128 2720 366 2720 1022 
C 2720 1607 2330 1877 2074 2051 
L 1741 2289 
z
M 902 2855 
C 851 2887 595 3086 595 3388 
C 595 3781 998 4076 1459 4076 
C 1965 4076 2336 3716 2336 3298 
C 2336 2700 1670 2359 1638 2359 
C 1632 2359 1626 2359 1574 2398 
L 902 2855 
z
M 2080 1536 
C 2176 1466 2483 1253 2483 861 
C 2483 385 2010 25 1472 25 
C 890 25 448 443 448 951 
C 448 1459 838 1884 1280 2083 
L 2080 1536 
z
" transform="scale(0.015625)"/>
       </defs>
       <use xlink:href="#CMR17-38" transform="scale(0.996264)"/>
      </g>
     </g>
    </g>
    <g id="text_14">
     <!-- $f$ -->
     <g transform="translate(17.718498 97.812732) rotate(-90) scale(0.1 -0.1)">
      <defs>
       <path id="CMMI12-66" d="M 2854 2566 
C 2982 2566 3034 2566 3034 2687 
C 3034 2752 2982 2752 2867 2752 
L 2349 2752 
C 2470 3398 2560 3846 2611 4051 
C 2650 4204 2784 4351 2950 4351 
C 3085 4351 3219 4294 3283 4236 
C 3034 4211 2957 4025 2957 3916 
C 2957 3788 3053 3712 3174 3712 
C 3302 3712 3494 3820 3494 4064 
C 3494 4332 3226 4480 2944 4480 
C 2669 4480 2400 4275 2272 4025 
C 2157 3801 2093 3573 1946 2752 
L 1517 2752 
C 1395 2752 1331 2752 1331 2636 
C 1331 2566 1370 2566 1498 2566 
L 1907 2566 
C 1792 1977 1530 545 1382 -132 
C 1274 -685 1178 -1152 858 -1152 
C 838 -1152 653 -1152 538 -1031 
C 864 -1005 864 -724 864 -717 
C 864 -589 768 -512 646 -512 
C 518 -512 326 -621 326 -865 
C 326 -1140 608 -1280 858 -1280 
C 1510 -1280 1779 -113 1850 203 
C 1965 691 2278 2376 2310 2566 
L 2854 2566 
z
" transform="scale(0.015625)"/>
      </defs>
      <use xlink:href="#CMMI12-66" transform="scale(0.996264)"/>
     </g>
    </g>
   </g>
   <g id="line2d_25">
    <path d="M 60.55913 176.488647 
L 64.028507 175.65896 
L 67.497867 174.808586 
L 70.967243 173.937517 
L 74.436603 173.045763 
L 77.905979 172.133314 
L 81.375339 171.200177 
L 84.844715 170.246348 
L 88.314075 169.271832 
L 91.783451 168.27662 
L 95.252811 167.260724 
L 98.722187 166.224132 
L 102.191547 165.166853 
L 105.660923 164.088881 
L 109.1303 162.990219 
L 112.599659 161.870869 
L 116.069019 160.730831 
L 119.538396 159.570097 
L 123.007772 158.38867 
L 126.477132 157.186562 
L 129.946492 155.96376 
L 133.415868 154.720262 
L 136.885244 153.456078 
L 140.354604 152.171205 
L 143.82398 150.865636 
L 147.29334 149.539385 
L 150.762716 148.192437 
L 154.232092 146.824796 
L 157.701452 145.436473 
L 161.170812 144.027458 
L 164.640188 142.59775 
L 168.109565 141.147349 
L 171.578925 139.676262 
L 175.048284 138.184486 
L 178.517661 136.672014 
L 181.987037 135.138852 
L 185.456397 133.585005 
L 188.925757 132.010469 
L 192.395133 130.415236 
L 195.864509 128.79931 
L 199.333853 127.162711 
L 202.803262 125.505391 
L 206.272605 123.827409 
L 209.741981 122.128719 
L 213.211358 120.409343 
L 216.680701 118.66929 
L 220.150077 116.908537 
L 223.619454 115.12709 
L 227.08883 113.32495 
L 230.558206 111.502118 
L 234.02755 109.658615 
L 237.496926 107.794404 
L 240.966302 105.909508 
L 244.435678 104.003911 
L 247.905055 102.077629 
L 251.374398 100.130677 
L 254.843774 98.163016 
L 258.313151 96.174663 
L 261.782494 94.165639 
L 265.251903 92.135884 
L 268.721247 90.085483 
L 272.190623 88.014365 
L 275.659999 85.922562 
L 279.129342 83.810081 
L 282.598719 81.6769 
L 286.068095 79.523018 
L 289.537471 77.348451 
L 293.006847 75.153198 
L 296.476191 72.937268 
L 299.945567 70.70063 
L 303.414943 68.443298 
L 306.884287 66.165304 
L 310.353663 63.866595 
L 313.823039 61.547184 
L 317.292416 59.207104 
L 320.761792 56.846323 
L 324.231135 54.464872 
L 327.700512 52.062705 
L 331.169888 49.639852 
L 334.639264 47.196315 
L 338.10864 44.732076 
L 341.577984 42.247184 
L 345.04736 39.741559 
L 348.516736 37.21525 
L 351.98608 34.668286 
L 355.455456 32.100606 
L 358.924832 29.512225 
L 362.394209 26.903159 
L 365.863585 24.273392 
L 369.332928 21.622971 
L 372.802305 18.951833 
L 376.271681 16.260011 
L 379.741057 13.547487 
L 383.210401 10.81431 
L 386.679777 8.0604 
L 390.149153 5.285821 
L 393.618529 2.490541 
L 397.087873 -0.325408 
L 397.91293 -1 
" clip-path="url(#p502b46cd6c)" style="fill: none; stroke: #808080; stroke-width: 1.5; stroke-linecap: square"/>
   </g>
   <g id="line2d_26">
    <path d="M 335.333126 144.042767 
L 335.333126 46.705129 
" clip-path="url(#p502b46cd6c)" style="fill: none; stroke-dasharray: 1.5,2.475; stroke-dashoffset: 0; stroke: #000000; stroke-width: 1.5"/>
   </g>
   <g id="line2d_27">
    <path d="M 197.946128 144.042767 
L 199.333885 143.059552 
L 200.72161 142.07636 
L 202.109367 141.093145 
L 203.497124 140.109929 
L 204.884881 139.126714 
L 206.272605 138.143522 
L 207.660362 137.160307 
L 209.048119 136.177091 
L 210.435844 135.193899 
L 211.823601 134.210684 
L 213.211358 133.227469 
L 214.599082 132.244277 
L 215.986839 131.261061 
L 217.374596 130.277846 
L 218.762353 129.294631 
L 220.150077 128.311439 
L 221.537834 127.328224 
L 222.925591 126.345008 
L 224.313316 125.361816 
L 225.701073 124.378601 
L 227.08883 123.395386 
L 228.476587 122.41217 
L 229.864311 121.428978 
L 231.252068 120.445763 
L 232.639825 119.462548 
L 234.02755 118.479356 
L 235.415307 117.496141 
L 236.803064 116.512925 
L 238.190788 115.529733 
L 239.578545 114.546518 
L 240.966302 113.563303 
L 242.354059 112.580087 
L 243.741783 111.596895 
L 245.12954 110.61368 
L 246.517298 109.630465 
L 247.905055 108.64725 
L 249.292779 107.664057 
L 250.680536 106.680842 
L 252.068293 105.697627 
L 253.456017 104.714435 
L 254.843774 103.73122 
L 256.231531 102.748004 
L 257.619256 101.764812 
L 259.007013 100.781597 
L 260.39477 99.798382 
L 261.782494 98.81519 
L 263.170251 97.831974 
L 264.558008 96.848759 
L 265.945765 95.865544 
L 267.333489 94.882352 
L 268.721247 93.899137 
L 270.109004 92.915921 
L 271.496761 91.932706 
L 272.884485 90.949514 
L 274.272242 89.966299 
L 275.659999 88.983083 
L 277.047723 87.999891 
L 278.43548 87.016676 
L 279.823237 86.033461 
L 281.210962 85.050269 
L 282.598719 84.067054 
L 283.986476 83.083838 
L 285.3742 82.100646 
L 286.761957 81.117431 
L 288.149714 80.134216 
L 289.537471 79.151 
L 290.925196 78.167808 
L 292.312953 77.184593 
L 293.70071 76.201378 
L 295.088467 75.218163 
L 296.476191 74.23497 
L 297.863948 73.251755 
L 299.251705 72.26854 
L 300.639429 71.285348 
L 302.027186 70.302133 
L 303.414943 69.318917 
L 304.802668 68.335725 
L 306.190425 67.35251 
L 307.578182 66.369295 
L 308.965939 65.386079 
L 310.353663 64.402887 
L 311.74142 63.419672 
L 313.129177 62.436457 
L 314.516902 61.453265 
L 315.904659 60.47005 
L 317.292416 59.486834 
L 318.680173 58.503619 
L 320.067897 57.520427 
L 321.455654 56.537212 
L 322.843411 55.553996 
L 324.231135 54.570804 
L 325.618892 53.587589 
L 327.00665 52.604374 
L 328.394374 51.621182 
L 329.782131 50.637967 
L 331.169888 49.654751 
L 332.557645 48.671536 
L 333.945369 47.688344 
L 335.333126 46.705129 
" clip-path="url(#p502b46cd6c)" style="fill: none; stroke: #000000; stroke-width: 1.5; stroke-linecap: square"/>
   </g>
   <g id="line2d_28">
    <path d="M 197.946128 144.042767 
L 197.946128 127.819827 
" clip-path="url(#p502b46cd6c)" style="fill: none; stroke-dasharray: 1.5,2.475; stroke-dashoffset: 0; stroke: #000000; stroke-width: 1.5"/>
   </g>
   <g id="line2d_29">
    <path d="M 163.599379 144.042767 
L 163.94631 143.878902 
L 164.293257 143.715029 
L 164.640188 143.551163 
L 164.98712 143.387298 
L 165.334067 143.223425 
L 165.680998 143.05956 
L 166.027929 142.895694 
L 166.374877 142.731821 
L 166.721808 142.567956 
L 167.068755 142.404083 
L 167.415686 142.240217 
L 167.762617 142.076352 
L 168.109565 141.912479 
L 168.456496 141.748614 
L 168.803427 141.584748 
L 169.150374 141.420875 
L 169.497305 141.25701 
L 169.844236 141.093145 
L 170.191184 140.929271 
L 170.538115 140.765406 
L 170.885046 140.601541 
L 171.231994 140.437668 
L 171.578925 140.273802 
L 171.925856 140.109937 
L 172.272803 139.946064 
L 172.619734 139.782199 
L 172.966682 139.618325 
L 173.313613 139.45446 
L 173.660544 139.290595 
L 174.007491 139.126722 
L 174.354422 138.962856 
L 174.701353 138.798991 
L 175.048301 138.635118 
L 175.395232 138.471253 
L 175.742163 138.307387 
L 176.08911 138.143514 
L 176.436042 137.979649 
L 176.782973 137.815783 
L 177.12992 137.65191 
L 177.476851 137.488045 
L 177.823799 137.324172 
L 178.17073 137.160307 
L 178.517661 136.996441 
L 178.864608 136.832568 
L 179.211539 136.668703 
L 179.55847 136.504838 
L 179.905418 136.340964 
L 180.252349 136.177099 
L 180.59928 136.013234 
L 180.946227 135.849361 
L 181.293158 135.685495 
L 181.640089 135.52163 
L 181.987037 135.357757 
L 182.333968 135.193892 
L 182.680899 135.030026 
L 183.027847 134.866153 
L 183.374778 134.702288 
L 183.721709 134.538422 
L 184.068656 134.374549 
L 184.415587 134.210684 
L 184.762535 134.046811 
L 185.109466 133.882946 
L 185.456397 133.71908 
L 185.803344 133.555207 
L 186.150275 133.391342 
L 186.497206 133.227477 
L 186.844154 133.063603 
L 187.191085 132.899738 
L 187.538016 132.735873 
L 187.884963 132.572 
L 188.231895 132.408134 
L 188.578826 132.244269 
L 188.925773 132.080396 
L 189.272704 131.916531 
L 189.619652 131.752657 
L 189.966583 131.588792 
L 190.313514 131.424927 
L 190.660461 131.261054 
L 191.007392 131.097188 
L 191.354323 130.933323 
L 191.701271 130.76945 
L 192.048202 130.605585 
L 192.395133 130.441719 
L 192.74208 130.277846 
L 193.089011 130.113981 
L 193.435943 129.950116 
L 193.78289 129.786242 
L 194.129821 129.622377 
L 194.476752 129.458512 
L 194.8237 129.294639 
L 195.170631 129.130773 
L 195.517578 128.9669 
L 195.864509 128.803035 
L 196.21144 128.63917 
L 196.558388 128.475296 
L 196.905319 128.311431 
L 197.25225 128.147566 
L 197.599197 127.983693 
L 197.946128 127.819827 
" clip-path="url(#p502b46cd6c)" style="fill: none; stroke: #000000; stroke-width: 1.5; stroke-linecap: square"/>
   </g>
   <g id="line2d_30">
    <path d="M 163.599379 144.042767 
L 163.599379 143.028833 
" clip-path="url(#p502b46cd6c)" style="fill: none; stroke-dasharray: 1.5,2.475; stroke-dashoffset: 0; stroke: #000000; stroke-width: 1.5"/>
   </g>
   <g id="patch_3">
    <path d="M 43.385756 176.488647 
L 43.385756 14.259249 
" style="fill: none; stroke: #000000; stroke-width: 0.8; stroke-linejoin: miter; stroke-linecap: square"/>
   </g>
   <g id="patch_4">
    <path d="M 421.2 176.488647 
L 421.2 14.259249 
" style="fill: none; stroke: #000000; stroke-width: 0.8; stroke-linejoin: miter; stroke-linecap: square"/>
   </g>
   <g id="patch_5">
    <path d="M 43.385756 176.488647 
L 421.2 176.488647 
" style="fill: none; stroke: #000000; stroke-width: 0.8; stroke-linejoin: miter; stroke-linecap: square"/>
   </g>
   <g id="patch_6">
    <path d="M 43.385756 14.259249 
L 421.2 14.259249 
" style="fill: none; stroke: #000000; stroke-width: 0.8; stroke-linejoin: miter; stroke-linecap: square"/>
   </g>
   <g id="text_15">
    <!-- $x^0$ -->
    <g transform="translate(321.594426 44.271688) scale(0.1 -0.1)">
     <use xlink:href="#CMMI12-78" transform="scale(0.996264)"/>
     <use xlink:href="#CMR17-30" transform="translate(55.43406 36.153639) scale(0.697382)"/>
    </g>
   </g>
   <g id="text_16">
    <!-- $x^1$ -->
    <g transform="translate(184.207429 124.575239) scale(0.1 -0.1)">
     <use xlink:href="#CMMI12-78" transform="scale(0.996264)"/>
     <use xlink:href="#CMR17-31" transform="translate(55.43406 36.153639) scale(0.697382)"/>
    </g>
   </g>
   <g id="text_17">
    <!-- $x^2$ -->
    <g transform="translate(156.730029 137.553591) scale(0.1 -0.1)">
     <use xlink:href="#CMMI12-78" transform="scale(0.996264)"/>
     <use xlink:href="#CMR17-32" transform="translate(55.43406 36.153639) scale(0.697382)"/>
    </g>
   </g>
   <g id="legend_1">
    <g id="patch_7">
     <path d="M 50.385756 37.221889 
L 101.778365 37.221889 
Q 103.778365 37.221889 103.778365 35.221889 
L 103.778365 21.259249 
Q 103.778365 19.259249 101.778365 19.259249 
L 50.385756 19.259249 
Q 48.385756 19.259249 48.385756 21.259249 
L 48.385756 35.221889 
Q 48.385756 37.221889 50.385756 37.221889 
z
" style="fill: #ffffff; opacity: 0.8; stroke: #cccccc; stroke-linejoin: miter"/>
    </g>
    <g id="line2d_31">
     <path d="M 52.385756 27.231229 
L 62.385756 27.231229 
L 72.385756 27.231229 
" style="fill: none; stroke: #808080; stroke-width: 1.5; stroke-linecap: square"/>
    </g>
    <g id="text_18">
     <!-- $f(x)$ -->
     <g transform="translate(80.385756 30.731229) scale(0.1 -0.1)">
      <defs>
       <path id="CMR17-28" d="M 1958 -1562 
C 1958 -1556 1958 -1543 1939 -1524 
C 1645 -1223 858 -403 858 1596 
C 858 3595 1632 4408 1946 4729 
C 1946 4735 1958 4748 1958 4767 
C 1958 4787 1939 4800 1914 4800 
C 1843 4800 1299 4325 986 3620 
C 666 2909 576 2218 576 1603 
C 576 1141 621 360 1005 -467 
C 1312 -1133 1837 -1600 1914 -1600 
C 1946 -1600 1958 -1588 1958 -1562 
z
" transform="scale(0.015625)"/>
       <path id="CMR17-29" d="M 1683 1596 
C 1683 2057 1638 2839 1254 3665 
C 947 4332 422 4800 346 4800 
C 326 4800 301 4793 301 4761 
C 301 4748 307 4742 314 4729 
C 621 4408 1402 3595 1402 1603 
C 1402 -396 627 -1210 314 -1530 
C 307 -1543 301 -1549 301 -1562 
C 301 -1594 326 -1600 346 -1600 
C 416 -1600 960 -1127 1274 -422 
C 1594 289 1683 981 1683 1596 
z
" transform="scale(0.015625)"/>
      </defs>
      <use xlink:href="#CMMI12-66" transform="scale(0.996264)"/>
      <use xlink:href="#CMR17-28" transform="translate(58.720305 0) scale(0.996264)"/>
      <use xlink:href="#CMMI12-78" transform="translate(94.001073 0) scale(0.996264)"/>
      <use xlink:href="#CMR17-29" transform="translate(149.435132 0) scale(0.996264)"/>
     </g>
    </g>
   </g>
  </g>
 </g>
 <defs>
  <clipPath id="p502b46cd6c">
   <rect x="43.385756" y="14.259249" width="377.814244" height="162.229397"/>
  </clipPath>
 </defs>
</svg>
