<?xml version="1.0" encoding="utf-8" standalone="no"?>
<!DOCTYPE svg PUBLIC "-//W3C//DTD SVG 1.1//EN"
  "http://www.w3.org/Graphics/SVG/1.1/DTD/svg11.dtd">
<svg xmlns:xlink="http://www.w3.org/1999/xlink" width="265.53629pt" height="280.512pt" viewBox="0 0 265.53629 280.512" xmlns="http://www.w3.org/2000/svg" version="1.1">
 <metadata>
  <rdf:RDF xmlns:dc="http://purl.org/dc/elements/1.1/" xmlns:cc="http://creativecommons.org/ns#" xmlns:rdf="http://www.w3.org/1999/02/22-rdf-syntax-ns#">
   <cc:Work>
    <dc:type rdf:resource="http://purl.org/dc/dcmitype/StillImage"/>
    <dc:date>2024-03-08T19:18:37.190388</dc:date>
    <dc:format>image/svg+xml</dc:format>
    <dc:creator>
     <cc:Agent>
      <dc:title>Matplotlib v3.6.3, https://matplotlib.org/</dc:title>
     </cc:Agent>
    </dc:creator>
   </cc:Work>
  </rdf:RDF>
 </metadata>
 <defs>
  <style type="text/css">*{stroke-linejoin: round; stroke-linecap: butt}</style>
 </defs>
 <g id="figure_1">
  <g id="patch_1">
   <path d="M 0 280.512 
L 265.53629 280.512 
L 265.53629 0 
L 0 0 
L 0 280.512 
z
" style="fill: none"/>
  </g>
  <g id="axes_1">
   <g id="PathCollection_1">
    <defs>
     <path id="me100e03b2e" d="M 0 3 
C 0.795609 3 1.55874 2.683901 2.12132 2.12132 
C 2.683901 1.55874 3 0.795609 3 0 
C 3 -0.795609 2.683901 -1.55874 2.12132 -2.12132 
C 1.55874 -2.683901 0.795609 -3 0 -3 
C -0.795609 -3 -1.55874 -2.683901 -2.12132 -2.12132 
C -2.683901 -1.55874 -3 -0.795609 -3 0 
C -3 0.795609 -2.683901 1.55874 -2.12132 2.12132 
C -1.55874 2.683901 -0.795609 3 0 3 
z
" style="stroke: #d3d3d3"/>
    </defs>
    <g clip-path="url(#p044d4140bc)">
     <use xlink:href="#me100e03b2e" x="195.552218" y="210.527927" style="fill: #d3d3d3; stroke: #d3d3d3"/>
     <use xlink:href="#me100e03b2e" x="69.984073" y="210.527927" style="fill: #d3d3d3; stroke: #d3d3d3"/>
     <use xlink:href="#me100e03b2e" x="69.984073" y="84.959782" style="fill: #d3d3d3; stroke: #d3d3d3"/>
    </g>
   </g>
   <g id="patch_2">
    <path d="M 195.552218 263.894389 
L 186.134607 235.641556 
L 192.413014 235.641556 
L 192.413014 210.527927 
L 198.691421 210.527927 
L 198.691421 235.641556 
L 204.969829 235.641556 
z
" clip-path="url(#p044d4140bc)" style="fill: #808080; stroke: #000000; stroke-linejoin: miter"/>
   </g>
   <g id="PathCollection_2">
    <defs>
     <path id="m71407d52ce" d="M 0 3 
C 0.795609 3 1.55874 2.683901 2.12132 2.12132 
C 2.683901 1.55874 3 0.795609 3 0 
C 3 -0.795609 2.683901 -1.55874 2.12132 -2.12132 
C 1.55874 -2.683901 0.795609 -3 0 -3 
C -0.795609 -3 -1.55874 -2.683901 -2.12132 -2.12132 
C -2.683901 -1.55874 -3 -0.795609 -3 0 
C -3 0.795609 -2.683901 1.55874 -2.12132 2.12132 
C -1.55874 2.683901 -0.795609 3 0 3 
z
" style="stroke: #000000"/>
    </defs>
    <g clip-path="url(#p044d4140bc)">
     <use xlink:href="#m71407d52ce" x="195.552218" y="147.743855" style="stroke: #000000"/>
     <use xlink:href="#m71407d52ce" x="69.984073" y="210.527927" style="stroke: #000000"/>
     <use xlink:href="#m71407d52ce" x="69.984073" y="69.984073" style="stroke: #000000"/>
    </g>
   </g>
   <g id="patch_3">
    <path d="M 195.552218 201.110317 
L 186.134607 172.857484 
L 192.413014 172.857484 
L 192.413014 147.743855 
L 198.691421 147.743855 
L 198.691421 172.857484 
L 204.969829 172.857484 
z
" clip-path="url(#p044d4140bc)" style="fill: #808080; stroke: #000000; stroke-linejoin: miter"/>
   </g>
   <g id="line2d_1">
    <path d="M 195.552218 210.527927 
L 69.984073 210.527927 
" clip-path="url(#p044d4140bc)" style="fill: none; stroke: #d3d3d3; stroke-width: 2; stroke-linecap: square"/>
   </g>
   <g id="line2d_2">
    <path d="M 195.552218 210.527927 
L 69.984073 84.959782 
" clip-path="url(#p044d4140bc)" style="fill: none; stroke: #d3d3d3; stroke-width: 2; stroke-linecap: square"/>
   </g>
   <g id="line2d_3">
    <path d="M 69.984073 210.527927 
L 69.984073 84.959782 
" clip-path="url(#p044d4140bc)" style="fill: none; stroke: #d3d3d3; stroke-width: 2; stroke-linecap: square"/>
   </g>
   <g id="line2d_4">
    <defs>
     <path id="mfa18c7c8d9" d="M 3 0 
L -3 -3 
L -3 3 
z
" style="stroke: #808080; stroke-linejoin: miter"/>
    </defs>
    <g clip-path="url(#p044d4140bc)">
     <use xlink:href="#mfa18c7c8d9" x="57.427258" y="210.527927" style="fill: #808080; stroke: #808080; stroke-linejoin: miter"/>
    </g>
   </g>
   <g id="line2d_5">
    <defs>
     <path id="m620277c52e" d="M 0 -3 
L -3 3 
L 3 3 
z
" style="stroke: #808080; stroke-linejoin: miter"/>
    </defs>
    <g clip-path="url(#p044d4140bc)">
     <use xlink:href="#m620277c52e" x="69.984073" y="223.084742" style="fill: #808080; stroke: #808080; stroke-linejoin: miter"/>
    </g>
   </g>
   <g id="line2d_6">
    <g clip-path="url(#p044d4140bc)">
     <use xlink:href="#mfa18c7c8d9" x="57.427258" y="84.959782" style="fill: #808080; stroke: #808080; stroke-linejoin: miter"/>
    </g>
   </g>
   <g id="line2d_7">
    <path d="M 195.552218 147.743855 
L 69.984073 210.527927 
" clip-path="url(#p044d4140bc)" style="fill: none; stroke: #000000; stroke-width: 2; stroke-linecap: square"/>
   </g>
   <g id="line2d_8">
    <path d="M 195.552218 147.743855 
L 69.984073 69.984073 
" clip-path="url(#p044d4140bc)" style="fill: none; stroke: #000000; stroke-width: 2; stroke-linecap: square"/>
   </g>
   <g id="line2d_9">
    <path d="M 69.984073 210.527927 
L 69.984073 69.984073 
" clip-path="url(#p044d4140bc)" style="fill: none; stroke: #000000; stroke-width: 2; stroke-linecap: square"/>
   </g>
   <g id="line2d_10">
    <g clip-path="url(#p044d4140bc)">
     <use xlink:href="#mfa18c7c8d9" x="57.427258" y="210.527927" style="fill: #808080; stroke: #808080; stroke-linejoin: miter"/>
    </g>
   </g>
   <g id="line2d_11">
    <g clip-path="url(#p044d4140bc)">
     <use xlink:href="#m620277c52e" x="69.984073" y="223.084742" style="fill: #808080; stroke: #808080; stroke-linejoin: miter"/>
    </g>
   </g>
   <g id="line2d_12">
    <g clip-path="url(#p044d4140bc)">
     <use xlink:href="#mfa18c7c8d9" x="57.427258" y="69.984073" style="fill: #808080; stroke: #808080; stroke-linejoin: miter"/>
    </g>
   </g>
   <g id="text_1">
    <!-- 0 -->
    <g transform="translate(196.807899 135.18704) scale(0.14 -0.14)">
     <defs>
      <path id="CMSS17-30" d="M 2758 2073 
C 2758 2439 2752 3120 2490 3647 
C 2227 4153 1805 4288 1504 4288 
C 1069 4288 698 4031 506 3621 
C 301 3191 243 2748 243 2073 
C 243 1611 262 1046 493 551 
C 755 6 1197 -128 1498 -128 
C 1894 -128 2278 83 2496 525 
C 2720 988 2758 1495 2758 2073 
z
M 1498 262 
C 1011 262 864 821 819 1007 
C 742 1328 730 1636 730 2144 
C 730 2542 730 2992 851 3345 
C 998 3756 1254 3897 1498 3897 
C 1971 3897 2125 3422 2176 3255 
C 2272 2915 2272 2516 2272 2144 
C 2272 1546 2272 262 1498 262 
z
" transform="scale(0.015625)"/>
     </defs>
     <use xlink:href="#CMSS17-30" transform="scale(0.996264)"/>
    </g>
   </g>
   <g id="text_2">
    <!-- 1 -->
    <g transform="translate(71.239754 197.971113) scale(0.14 -0.14)">
     <defs>
      <path id="CMSS17-31" d="M 1818 4288 
L 1696 4288 
C 1350 3949 947 3902 538 3891 
L 538 3520 
C 723 3526 1024 3539 1325 3673 
L 1325 371 
L 570 371 
L 570 0 
L 2573 0 
L 2573 371 
L 1818 371 
L 1818 4288 
z
" transform="scale(0.015625)"/>
     </defs>
     <use xlink:href="#CMSS17-31" transform="scale(0.996264)"/>
    </g>
   </g>
   <g id="text_3">
    <!-- 2 -->
    <g transform="translate(71.239754 57.427258) scale(0.14 -0.14)">
     <defs>
      <path id="CMSS17-32" d="M 1651 1353 
C 1830 1538 2099 1761 2285 1984 
C 2464 2201 2701 2507 2701 2953 
C 2701 3655 2227 4288 1421 4288 
C 787 4288 422 3891 250 3272 
L 499 2928 
C 640 3508 838 3878 1338 3878 
C 1888 3878 2195 3431 2195 2940 
C 2195 2354 1747 1901 1408 1563 
C 1030 1187 659 805 301 409 
L 301 0 
L 2701 0 
L 2701 435 
L 1613 435 
C 1536 435 1459 428 1382 428 
L 742 428 
L 742 435 
L 1651 1353 
z
" transform="scale(0.015625)"/>
     </defs>
     <use xlink:href="#CMSS17-32" transform="scale(0.996264)"/>
    </g>
   </g>
  </g>
 </g>
 <defs>
  <clipPath id="p044d4140bc">
   <rect x="7.2" y="7.2" width="251.13629" height="266.112"/>
  </clipPath>
 </defs>
</svg>
