<?xml version="1.0" encoding="utf-8" standalone="no"?>
<!DOCTYPE svg PUBLIC "-//W3C//DTD SVG 1.1//EN"
  "http://www.w3.org/Graphics/SVG/1.1/DTD/svg11.dtd">
<svg xmlns:xlink="http://www.w3.org/1999/xlink" width="219.101538pt" height="280.512pt" viewBox="0 0 219.101538 280.512" xmlns="http://www.w3.org/2000/svg" version="1.1">
 <metadata>
  <rdf:RDF xmlns:dc="http://purl.org/dc/elements/1.1/" xmlns:cc="http://creativecommons.org/ns#" xmlns:rdf="http://www.w3.org/1999/02/22-rdf-syntax-ns#">
   <cc:Work>
    <dc:type rdf:resource="http://purl.org/dc/dcmitype/StillImage"/>
    <dc:date>2024-03-08T15:18:38.399853</dc:date>
    <dc:format>image/svg+xml</dc:format>
    <dc:creator>
     <cc:Agent>
      <dc:title>Matplotlib v3.6.3, https://matplotlib.org/</dc:title>
     </cc:Agent>
    </dc:creator>
   </cc:Work>
  </rdf:RDF>
 </metadata>
 <defs>
  <style type="text/css">*{stroke-linejoin: round; stroke-linecap: butt}</style>
 </defs>
 <g id="figure_1">
  <g id="patch_1">
   <path d="M -0 280.512 
L 219.101538 280.512 
L 219.101538 0 
L -0 0 
L -0 280.512 
z
" style="fill: none"/>
  </g>
  <g id="axes_1">
   <g id="PathCollection_1">
    <defs>
     <path id="m42c4e01aad" d="M 0 3 
C 0.795609 3 1.55874 2.683901 2.12132 2.12132 
C 2.683901 1.55874 3 0.795609 3 0 
C 3 -0.795609 2.683901 -1.55874 2.12132 -2.12132 
C 1.55874 -2.683901 0.795609 -3 0 -3 
C -0.795609 -3 -1.55874 -2.683901 -2.12132 -2.12132 
C -2.683901 -1.55874 -3 -0.795609 -3 0 
C -3 0.795609 -2.683901 1.55874 -2.12132 2.12132 
C -1.55874 2.683901 -0.795609 3 0 3 
z
" style="stroke: #000000"/>
    </defs>
    <g clip-path="url(#p282876ff9f)">
     <use xlink:href="#m42c4e01aad" x="160.726154" y="170.961231" style="stroke: #000000"/>
     <use xlink:href="#m42c4e01aad" x="58.375385" y="170.961231" style="stroke: #000000"/>
     <use xlink:href="#m42c4e01aad" x="58.375385" y="68.610462" style="stroke: #000000"/>
    </g>
   </g>
   <g id="patch_2">
    <path d="M 160.726154 214.460308 
L 153.049846 191.431385 
L 158.167385 191.431385 
L 158.167385 170.961231 
L 163.284923 170.961231 
L 163.284923 191.431385 
L 168.402462 191.431385 
z
" clip-path="url(#p282876ff9f)" style="fill: #808080; stroke: #000000; stroke-linejoin: miter"/>
   </g>
   <g id="PathCollection_2">
    <defs>
     <path id="mf1fb922ee2" d="M 0 3 
C 0.795609 3 1.55874 2.683901 2.12132 2.12132 
C 2.683901 1.55874 3 0.795609 3 0 
C 3 -0.795609 2.683901 -1.55874 2.12132 -2.12132 
C 1.55874 -2.683901 0.795609 -3 0 -3 
C -0.795609 -3 -1.55874 -2.683901 -2.12132 -2.12132 
C -2.683901 -1.55874 -3 -0.795609 -3 0 
C -3 0.795609 -2.683901 1.55874 -2.12132 2.12132 
C -1.55874 2.683901 -0.795609 3 0 3 
z
" style="stroke: #d3d3d3"/>
    </defs>
    <g clip-path="url(#p282876ff9f)">
     <use xlink:href="#mf1fb922ee2" x="160.726154" y="119.785846" style="fill: #d3d3d3; stroke: #d3d3d3"/>
     <use xlink:href="#mf1fb922ee2" x="58.375385" y="170.961231" style="fill: #d3d3d3; stroke: #d3d3d3"/>
     <use xlink:href="#mf1fb922ee2" x="58.375385" y="17.435077" style="fill: #d3d3d3; stroke: #d3d3d3"/>
    </g>
   </g>
   <g id="patch_3">
    <path d="M 160.726154 163.284923 
L 153.049846 140.256 
L 158.167385 140.256 
L 158.167385 119.785846 
L 163.284923 119.785846 
L 163.284923 140.256 
L 168.402462 140.256 
z
" clip-path="url(#p282876ff9f)" style="fill: #808080; stroke: #000000; stroke-linejoin: miter"/>
   </g>
   <g id="PathCollection_3">
    <defs>
     <path id="m5254d20ba1" d="M 0 3 
C 0.795609 3 1.55874 2.683901 2.12132 2.12132 
C 2.683901 1.55874 3 0.795609 3 0 
C 3 -0.795609 2.683901 -1.55874 2.12132 -2.12132 
C 1.55874 -2.683901 0.795609 -3 0 -3 
C -0.795609 -3 -1.55874 -2.683901 -2.12132 -2.12132 
C -2.683901 -1.55874 -3 -0.795609 -3 0 
C -3 0.795609 -2.683901 1.55874 -2.12132 2.12132 
C -1.55874 2.683901 -0.795609 3 0 3 
z
" style="stroke: #a9a9a9"/>
    </defs>
    <g clip-path="url(#p282876ff9f)">
     <use xlink:href="#m5254d20ba1" x="160.726154" y="222.136615" style="fill: #a9a9a9; stroke: #a9a9a9"/>
     <use xlink:href="#m5254d20ba1" x="58.375385" y="170.961231" style="fill: #a9a9a9; stroke: #a9a9a9"/>
     <use xlink:href="#m5254d20ba1" x="58.375385" y="119.785846" style="fill: #a9a9a9; stroke: #a9a9a9"/>
    </g>
   </g>
   <g id="patch_4">
    <path d="M 160.726154 265.635692 
L 153.049846 242.606769 
L 158.167385 242.606769 
L 158.167385 222.136615 
L 163.284923 222.136615 
L 163.284923 242.606769 
L 168.402462 242.606769 
z
" clip-path="url(#p282876ff9f)" style="fill: #808080; stroke: #000000; stroke-linejoin: miter"/>
   </g>
   <g id="line2d_1">
    <path d="M 160.726154 170.961231 
L 58.375385 170.961231 
" clip-path="url(#p282876ff9f)" style="fill: none; stroke: #000000; stroke-width: 2; stroke-linecap: square"/>
   </g>
   <g id="line2d_2">
    <path d="M 160.726154 170.961231 
L 58.375385 68.610462 
" clip-path="url(#p282876ff9f)" style="fill: none; stroke: #000000; stroke-width: 2; stroke-linecap: square"/>
   </g>
   <g id="line2d_3">
    <path d="M 58.375385 170.961231 
L 58.375385 68.610462 
" clip-path="url(#p282876ff9f)" style="fill: none; stroke: #000000; stroke-width: 2; stroke-linecap: square"/>
   </g>
   <g id="line2d_4">
    <defs>
     <path id="m51a3d1f892" d="M 3 0 
L -3 -3 
L -3 3 
z
" style="stroke: #808080; stroke-linejoin: miter"/>
    </defs>
    <g clip-path="url(#p282876ff9f)">
     <use xlink:href="#m51a3d1f892" x="48.140308" y="170.961231" style="fill: #808080; stroke: #808080; stroke-linejoin: miter"/>
    </g>
   </g>
   <g id="line2d_5">
    <defs>
     <path id="mac6e53f36c" d="M 0 -3 
L -3 3 
L 3 3 
z
" style="stroke: #808080; stroke-linejoin: miter"/>
    </defs>
    <g clip-path="url(#p282876ff9f)">
     <use xlink:href="#mac6e53f36c" x="58.375385" y="181.196308" style="fill: #808080; stroke: #808080; stroke-linejoin: miter"/>
    </g>
   </g>
   <g id="line2d_6">
    <g clip-path="url(#p282876ff9f)">
     <use xlink:href="#m51a3d1f892" x="48.140308" y="68.610462" style="fill: #808080; stroke: #808080; stroke-linejoin: miter"/>
    </g>
   </g>
   <g id="line2d_7">
    <path d="M 160.726154 119.785846 
L 58.375385 170.961231 
" clip-path="url(#p282876ff9f)" style="fill: none; stroke: #d3d3d3; stroke-width: 2; stroke-linecap: square"/>
   </g>
   <g id="line2d_8">
    <path d="M 160.726154 119.785846 
L 58.375385 17.435077 
" clip-path="url(#p282876ff9f)" style="fill: none; stroke: #d3d3d3; stroke-width: 2; stroke-linecap: square"/>
   </g>
   <g id="line2d_9">
    <path d="M 58.375385 170.961231 
L 58.375385 17.435077 
" clip-path="url(#p282876ff9f)" style="fill: none; stroke: #d3d3d3; stroke-width: 2; stroke-linecap: square"/>
   </g>
   <g id="line2d_10">
    <g clip-path="url(#p282876ff9f)">
     <use xlink:href="#m51a3d1f892" x="48.140308" y="170.961231" style="fill: #808080; stroke: #808080; stroke-linejoin: miter"/>
    </g>
   </g>
   <g id="line2d_11">
    <g clip-path="url(#p282876ff9f)">
     <use xlink:href="#mac6e53f36c" x="58.375385" y="181.196308" style="fill: #808080; stroke: #808080; stroke-linejoin: miter"/>
    </g>
   </g>
   <g id="line2d_12">
    <g clip-path="url(#p282876ff9f)">
     <use xlink:href="#m51a3d1f892" x="48.140308" y="17.435077" style="fill: #808080; stroke: #808080; stroke-linejoin: miter"/>
    </g>
   </g>
   <g id="line2d_13">
    <path d="M 160.726154 222.136615 
L 58.375385 170.961231 
" clip-path="url(#p282876ff9f)" style="fill: none; stroke: #a9a9a9; stroke-width: 2; stroke-linecap: square"/>
   </g>
   <g id="line2d_14">
    <path d="M 160.726154 222.136615 
L 58.375385 119.785846 
" clip-path="url(#p282876ff9f)" style="fill: none; stroke: #a9a9a9; stroke-width: 2; stroke-linecap: square"/>
   </g>
   <g id="line2d_15">
    <path d="M 58.375385 170.961231 
L 58.375385 119.785846 
" clip-path="url(#p282876ff9f)" style="fill: none; stroke: #a9a9a9; stroke-width: 2; stroke-linecap: square"/>
   </g>
   <g id="line2d_16">
    <g clip-path="url(#p282876ff9f)">
     <use xlink:href="#m51a3d1f892" x="48.140308" y="170.961231" style="fill: #808080; stroke: #808080; stroke-linejoin: miter"/>
    </g>
   </g>
   <g id="line2d_17">
    <g clip-path="url(#p282876ff9f)">
     <use xlink:href="#mac6e53f36c" x="58.375385" y="181.196308" style="fill: #808080; stroke: #808080; stroke-linejoin: miter"/>
    </g>
   </g>
   <g id="line2d_18">
    <g clip-path="url(#p282876ff9f)">
     <use xlink:href="#m51a3d1f892" x="48.140308" y="119.785846" style="fill: #808080; stroke: #808080; stroke-linejoin: miter"/>
    </g>
   </g>
   <g id="text_1">
    <!-- 0 -->
    <g transform="translate(161.749662 160.726154) scale(0.1 -0.1)">
     <defs>
      <path id="CMSS17-30" d="M 2758 2073 
C 2758 2439 2752 3120 2490 3647 
C 2227 4153 1805 4288 1504 4288 
C 1069 4288 698 4031 506 3621 
C 301 3191 243 2748 243 2073 
C 243 1611 262 1046 493 551 
C 755 6 1197 -128 1498 -128 
C 1894 -128 2278 83 2496 525 
C 2720 988 2758 1495 2758 2073 
z
M 1498 262 
C 1011 262 864 821 819 1007 
C 742 1328 730 1636 730 2144 
C 730 2542 730 2992 851 3345 
C 998 3756 1254 3897 1498 3897 
C 1971 3897 2125 3422 2176 3255 
C 2272 2915 2272 2516 2272 2144 
C 2272 1546 2272 262 1498 262 
z
" transform="scale(0.015625)"/>
     </defs>
     <use xlink:href="#CMSS17-30" transform="scale(0.996264)"/>
    </g>
   </g>
   <g id="text_2">
    <!-- 1 -->
    <g transform="translate(59.398892 160.726154) scale(0.1 -0.1)">
     <defs>
      <path id="CMSS17-31" d="M 1818 4288 
L 1696 4288 
C 1350 3949 947 3902 538 3891 
L 538 3520 
C 723 3526 1024 3539 1325 3673 
L 1325 371 
L 570 371 
L 570 0 
L 2573 0 
L 2573 371 
L 1818 371 
L 1818 4288 
z
" transform="scale(0.015625)"/>
     </defs>
     <use xlink:href="#CMSS17-31" transform="scale(0.996264)"/>
    </g>
   </g>
   <g id="text_3">
    <!-- 2 -->
    <g transform="translate(59.398892 58.375385) scale(0.1 -0.1)">
     <defs>
      <path id="CMSS17-32" d="M 1651 1353 
C 1830 1538 2099 1761 2285 1984 
C 2464 2201 2701 2507 2701 2953 
C 2701 3655 2227 4288 1421 4288 
C 787 4288 422 3891 250 3272 
L 499 2928 
C 640 3508 838 3878 1338 3878 
C 1888 3878 2195 3431 2195 2940 
C 2195 2354 1747 1901 1408 1563 
C 1030 1187 659 805 301 409 
L 301 0 
L 2701 0 
L 2701 435 
L 1613 435 
C 1536 435 1459 428 1382 428 
L 742 428 
L 742 435 
L 1651 1353 
z
" transform="scale(0.015625)"/>
     </defs>
     <use xlink:href="#CMSS17-32" transform="scale(0.996264)"/>
    </g>
   </g>
  </g>
 </g>
 <defs>
  <clipPath id="p282876ff9f">
   <rect x="7.2" y="7.2" width="204.701538" height="266.112"/>
  </clipPath>
 </defs>
</svg>
